<svg width="580" height="307" viewBox="0 0 580 307" fill="none" xmlns="http://www.w3.org/2000/svg">
<path d="M0.640411 258.693L30.3497 242.777L86.6003 258.693H0.640411Z" fill="#231F20"/>
<path d="M310.486 128.304L352.486 119.304V145.304L310.486 128.304Z" fill="#231F20"/>
<path d="M131.238 237.064L160.947 221.148L209.756 247.144L131.238 237.064Z" fill="#231F20"/>
<path d="M144.501 271.019L174.211 255.103L223.019 281.099L144.501 271.019Z" fill="#231F20"/>
<path d="M157.234 286.404L186.943 270.488L235.751 296.484L157.234 286.404Z" fill="#231F20"/>
<path d="M26.1055 244.963V222.087L148.391 191.582L144.147 221.556L148.391 222.882L145.208 255.51L153.166 260.815C153.254 270.099 152.317 273.039 152.105 281.524L26.1055 244.963Z" fill="#E76F51" stroke="#231F20" stroke-width="2" stroke-miterlimit="10" stroke-linejoin="round"/>
<path d="M152.99 233.882C153.166 227.162 153.255 213.191 153.255 213.191L186.413 217.17L257.768 283.75L260.421 305.237L174.741 284.016C174.642 280.256 174.737 274.393 174.84 269.957L163.07 267.57V247.144L173.149 233.882H152.99Z" fill="#E76F51" stroke="#231F20" stroke-width="2" stroke-miterlimit="10" stroke-linejoin="round"/>
<path d="M175.006 191.97L153.255 213.191L185.882 217.17L163.07 247.144L198.349 251.123L175.006 263.856L257.768 283.75L310.29 217.17L428.066 191.97L432.31 177.911H342.917L346.365 161.995L325.675 166.505L334.959 142.631L310.29 156.69L290.395 108.678L226.467 177.911L175.006 191.97Z" fill="#231F20" stroke="#231F20" stroke-width="2" stroke-miterlimit="10" stroke-linecap="round" stroke-linejoin="round"/>
<path d="M26.1055 222.087L148.391 191.582L125.313 214.925L148.391 222.882L129.292 244.899L153.166 260.815L26.1055 222.087Z" fill="#231F20" stroke="#231F20" stroke-width="2" stroke-miterlimit="10" stroke-linecap="round" stroke-linejoin="round"/>
<path d="M508.043 45.0615C451.338 71.6292 334.651 125.965 334.651 125.965L361.962 125.879L346.228 148.528C346.228 148.528 361.461 140.862 370.819 136.272L361.015 158.81L524.191 62.1046L508.043 45.0615Z" fill="#E76F51" stroke="#231F20" stroke-width="2" stroke-miterlimit="10" stroke-linejoin="round"/>
<path d="M334.651 125.966L361.702 125.932L355.255 135.347L346.228 148.529L370.559 136.325L361.015 158.811L524.192 62.1052L540.941 60.6276L555.986 4.30468L557.177 10.8042L544.017 66.5023L525.343 67.8262C472.133 101.898 367.088 164.515 367.212 164.057C367.337 163.599 361.015 158.811 361.015 158.811L354.516 161.472L346.228 148.529L355.255 135.347L336.745 136.367L334.651 125.966Z" fill="#231F20"/>
<path d="M346.228 148.529L370.559 136.325L361.015 158.811M346.228 148.529L354.516 161.472L361.015 158.811M346.228 148.529L355.255 135.347M361.015 158.811L524.192 62.1052L540.941 60.6276L555.986 4.30468L557.177 10.8042L544.017 66.5023L525.343 67.8262C472.133 101.898 367.088 164.515 367.212 164.057C367.337 163.599 361.015 158.811 361.015 158.811ZM355.255 135.347L361.702 125.932L334.651 125.966L336.745 136.367L355.255 135.347Z" stroke="#231F20" stroke-width="2" stroke-miterlimit="10" stroke-linecap="round" stroke-linejoin="round"/>
<path d="M210.021 211.865L231.242 203.642L265.46 225.924C261.924 229.637 254.744 237.383 254.32 238.656C253.895 239.929 224.61 221.326 210.021 211.865Z" fill="#E76F51" stroke="#231F20" stroke-width="2" stroke-miterlimit="10" stroke-linejoin="round"/>
<path d="M248.218 199.663L265.46 189.317L289.865 207.355L277.397 217.966L248.218 199.663Z" stroke="#E76F51" stroke-width="2" stroke-miterlimit="10" stroke-linejoin="round"/>
<path d="M277.397 182.421C281.553 179.414 290.183 173.296 291.456 172.871L316.125 189.317L303.128 199.663L277.397 182.421Z" stroke="#E76F51" stroke-width="2" stroke-miterlimit="10" stroke-linejoin="round"/>
<path d="M519.973 58.6246L340.17 177.581" stroke="#231F20" stroke-width="2"/>
<path d="M341.325 177.646L235.751 221.679" stroke="#E76F51" stroke-width="2"/>
<path d="M518.043 54.4132C517.759 53.0021 422.61 112.954 344.17 165.582M513.565 50.9855C469.7 83.9878 375.411 139.19 362.702 93.2603C346.815 35.8478 413.285 25.1495 426.261 42.043C436.161 54.9319 412.002 80.0889 397.065 74.4373" stroke="#231F20" stroke-width="2"/>
<path d="M230.181 215.844L342.386 167.566" stroke="#E76F51" stroke-width="2"/>
<path d="M511.635 46.7743C462.997 76.6786 354.967 130.913 311.948 108.619" stroke="#231F20" stroke-width="2"/>
<path d="M556.986 5.8042L507.731 44.8541L524.244 62.3648L540.941 60.6272L556.986 5.8042Z" fill="#231F20" stroke="#231F20" stroke-width="2" stroke-miterlimit="10" stroke-linecap="round" stroke-linejoin="round"/>
<path d="M429.657 202.315L314.799 229.902L310.29 217.17L428.066 191.97L429.657 202.315Z" fill="#E76F51" stroke="#231F20" stroke-width="2" stroke-miterlimit="10" stroke-linejoin="round"/>
<path d="M362.363 113.082L384.303 144.111" stroke="#231F20" stroke-width="2"/>
<path d="M380.924 104.474L402.864 135.504" stroke="#231F20" stroke-width="2"/>
<path d="M372.19 109.479L394.13 140.509" stroke="#231F20" stroke-width="2"/>
<path d="M447.681 73.1772L463.527 98.128" stroke="#231F20" stroke-width="2"/>
<path d="M426.263 85.0649L442.109 110.016" stroke="#231F20" stroke-width="2"/>
<path d="M408.066 94.1401L423.912 119.091" stroke="#231F20" stroke-width="2"/>
<path d="M393.926 101.856L409.772 126.807" stroke="#231F20" stroke-width="2"/>
<path d="M468.478 63.5791L482.554 87.8038" stroke="#231F20" stroke-width="2"/>
<path d="M487.61 53.7754L502.463 75.1379" stroke="#231F20" stroke-width="2"/>
<path d="M314.799 229.902L260.421 305.237L257.768 283.751L310.29 217.17L314.799 229.902Z" fill="#E76F51" stroke="#231F20" stroke-width="2" stroke-miterlimit="10" stroke-linejoin="round"/>
<path d="M428.066 191.97L429.657 202.315L433.106 189.317L432.31 177.911L428.066 191.97Z" fill="#E76F51" stroke="#231F20" stroke-width="2" stroke-miterlimit="10" stroke-linejoin="round"/>
<path d="M106.697 291.177L101.185 258.36C97.3043 260.043 70.1762 275.286 70.1762 275.286L72.8341 283.348L106.697 291.177Z" fill="#E76F51" stroke="#231F20" stroke-width="2" stroke-miterlimit="10" stroke-linejoin="round"/>
<path d="M101.271 257.773C94.1026 260.881 77.8148 268.634 70.0101 274.783L103.873 282.611L101.271 257.773Z" fill="#231F20" stroke="#231F20" stroke-width="2" stroke-miterlimit="10" stroke-linecap="round" stroke-linejoin="round"/>
<path d="M536.721 55.7948L533.388 52.6777L554.188 4.11498L536.721 55.7948Z" fill="#E76F51"/>
<path d="M505.085 32.3788C501.035 34.261 501.711 43.3857 505.646 41.402C509.58 39.4183 509.134 30.4967 505.085 32.3788Z" stroke="#231F20" stroke-width="2"/>
<path d="M513.157 25.1908C509.108 27.073 509.783 36.1977 513.718 34.214C517.653 32.2303 517.207 23.3087 513.157 25.1908Z" stroke="#231F20" stroke-width="2"/>
<path d="M518.934 19.0341C514.885 20.9162 515.56 30.041 519.495 28.0573C523.43 26.0736 522.984 17.1519 518.934 19.0341Z" stroke="#231F20" stroke-width="2"/>
<path d="M526.899 13.1044C522.849 14.9866 523.525 24.1113 527.46 22.1276C531.395 20.1439 530.949 11.2222 526.899 13.1044Z" stroke="#231F20" stroke-width="2"/>
<path d="M536.033 6.60148C531.983 8.48363 532.659 17.6084 536.594 15.6247C540.528 13.641 540.083 4.71932 536.033 6.60148Z" stroke="#231F20" stroke-width="2"/>
<path d="M543.365 2.15079C539.315 4.03295 539.991 13.1577 543.925 11.174C547.86 9.19028 547.414 0.268635 543.365 2.15079Z" stroke="#231F20" stroke-width="2"/>
</svg>
