<svg width="1033" height="1003" viewBox="0 0 1033 1003" fill="none" xmlns="http://www.w3.org/2000/svg">
<path d="M319.201 888.29L423.776 948.664L739.931 766.127L635.356 705.754L319.201 888.29Z" fill="#E9C46A" stroke="#231F20" stroke-width="2.6" stroke-linecap="round" stroke-linejoin="round"/>
<path d="M319.201 873.828L423.776 910.124L739.931 727.588L635.356 691.303L319.201 873.828Z" fill="#E76F51" stroke="#231F20" stroke-width="2.6" stroke-linecap="round" stroke-linejoin="round"/>
<path d="M319.201 873.828V888.29L423.776 948.663V910.124L319.201 873.828Z" fill="#231F20" stroke="#231F20" stroke-width="2.6" stroke-linecap="round" stroke-linejoin="round"/>
<path d="M423.776 910.124L739.931 727.588V766.127L423.776 948.663V910.124Z" fill="#E76F51" stroke="#231F20" stroke-width="2.6" stroke-linecap="round" stroke-linejoin="round"/>
<path d="M606.268 724.038L679.046 750.01L715.341 729.047L642.564 703.086L606.268 724.038Z" fill="#E9C46A" stroke="#231F20" stroke-width="2.6" stroke-linecap="round" stroke-linejoin="round"/>
<path d="M622.68 714.564L644.46 722.132L664.345 710.654L642.565 703.086L622.68 714.564Z" fill="#E9C46A" stroke="#231F20" stroke-width="2.6" stroke-linecap="round" stroke-linejoin="round"/>
<path d="M336.015 870.126L424.811 900.585L461.107 867.588L372.311 851.58L336.015 870.126Z" fill="#E9C46A" stroke="#231F20" stroke-width="2.6" stroke-linecap="round" stroke-linejoin="round"/>
<path d="M336.015 860.052L424.811 868.84L461.107 847.877L372.311 839.089L336.015 860.052Z" fill="#E9C46A" stroke="#231F20" stroke-width="2.6" stroke-linecap="round" stroke-linejoin="round"/>
<path d="M336.015 860.053V870.126L424.811 900.585V868.841L336.015 860.053Z" fill="#231F20" stroke="#231F20" stroke-width="2.6" stroke-linecap="round" stroke-linejoin="round"/>
<path d="M461.107 847.878V879.633L424.811 900.585V868.841L461.107 847.878Z" fill="#E9C46A" stroke="#231F20" stroke-width="2.6" stroke-linecap="round" stroke-linejoin="round"/>
<path d="M412.832 867.675L449.128 846.723" stroke="#231F20" stroke-width="2.6" stroke-linecap="round" stroke-linejoin="round"/>
<path d="M399.415 866.347L435.711 845.395" stroke="#231F20" stroke-width="2.6" stroke-linecap="round" stroke-linejoin="round"/>
<path d="M386.01 865.018L422.306 844.065" stroke="#231F20" stroke-width="2.6" stroke-linecap="round" stroke-linejoin="round"/>
<path d="M372.604 863.689L408.9 842.737" stroke="#231F20" stroke-width="2.6" stroke-linecap="round" stroke-linejoin="round"/>
<path d="M359.188 862.361L395.484 841.398" stroke="#231F20" stroke-width="2.6" stroke-linecap="round" stroke-linejoin="round"/>
<path d="M345.783 861.021L382.079 840.069" stroke="#231F20" stroke-width="2.6" stroke-linecap="round" stroke-linejoin="round"/>
<path d="M606.268 713.965L679.046 739.926L715.341 718.974L642.564 693.013L606.268 713.965Z" fill="#E76F51" stroke="#231F20" stroke-width="2.6" stroke-linecap="round" stroke-linejoin="round"/>
<path d="M606.268 713.965V724.038L679.046 750.01V739.926L606.268 713.965Z" fill="#231F20" stroke="#231F20" stroke-width="2.6" stroke-linecap="round" stroke-linejoin="round"/>
<path d="M715.342 718.974V729.047L679.046 750.01V739.926L715.342 718.974Z" fill="#E76F51" stroke="#231F20" stroke-width="2.6" stroke-linecap="round" stroke-linejoin="round"/>
<path d="M622.68 703.881L644.46 711.438L664.345 699.96L642.565 692.403L622.68 703.881Z" fill="#E9C46A" stroke="#231F20" stroke-width="2.6" stroke-linecap="round" stroke-linejoin="round"/>
<path d="M622.68 703.739V714.564L644.46 722.132V711.297L622.68 703.739Z" fill="#231F20" stroke="#231F20" stroke-width="2.6" stroke-linecap="round" stroke-linejoin="round"/>
<path d="M664.344 699.938V710.654L644.459 722.132V711.416L664.344 699.938Z" fill="#E9C46A" stroke="#231F20" stroke-width="2.6" stroke-linecap="round" stroke-linejoin="round"/>
<path d="M682.367 715.206C681.964 710.687 679.46 706.995 675.866 706.995C672.272 706.995 669.855 710.698 669.365 715.206C668.864 719.856 668.439 722.938 668.526 723.406C668.679 724.212 671.238 725.944 676.214 725.944C681.191 725.944 683.26 722.829 683.238 722.001C683.217 721.174 682.574 717.395 682.378 715.206H682.367Z" fill="#E9C46A" stroke="#231F20" stroke-width="2.6" stroke-linecap="round" stroke-linejoin="round"/>
<path d="M496.139 777.55L568.916 803.512L605.212 782.56L532.435 756.598L496.139 777.55Z" fill="#E9C46A" stroke="#231F20" stroke-width="2.6" stroke-linecap="round" stroke-linejoin="round"/>
<path d="M496.139 777.551V787.624L568.916 813.585V803.512L496.139 777.551Z" fill="#231F20" stroke="#231F20" stroke-width="2.6" stroke-linecap="round" stroke-linejoin="round"/>
<path d="M605.213 782.56V792.633L568.917 813.585V803.512L605.213 782.56Z" fill="#E9C46A" stroke="#231F20" stroke-width="2.6" stroke-linecap="round" stroke-linejoin="round"/>
<path d="M512.55 777.115L534.341 784.661L554.215 773.194L532.435 765.637L512.55 777.115Z" fill="#E76F51" stroke="#231F20" stroke-width="2.6" stroke-linecap="round" stroke-linejoin="round"/>
<path d="M579.752 784.879C579.48 781.895 577.835 779.456 575.461 779.456C573.087 779.456 571.497 781.906 571.171 784.879C570.844 787.95 570.561 789.987 570.615 790.291C570.713 790.825 572.401 791.969 575.69 791.969C578.979 791.969 580.34 789.91 580.329 789.366C580.318 788.821 579.894 786.328 579.763 784.879H579.752Z" fill="#E9C46A" stroke="#231F20" stroke-width="2.6" stroke-linecap="round" stroke-linejoin="round"/>
<path d="M440.71 809.556L513.487 835.517L549.783 814.565L477.006 788.593L440.71 809.556Z" fill="#E76F51" stroke="#231F20" stroke-width="2.6" stroke-linecap="round" stroke-linejoin="round"/>
<path d="M440.71 809.556V819.629L513.487 845.591V835.518L440.71 809.556Z" fill="#231F20" stroke="#231F20" stroke-width="2.6" stroke-linecap="round" stroke-linejoin="round"/>
<path d="M549.783 814.565V824.639L513.487 845.591V835.518L549.783 814.565Z" fill="#E76F51" stroke="#231F20" stroke-width="2.6" stroke-linecap="round" stroke-linejoin="round"/>
<path d="M517.484 815.35C517.081 810.831 513.901 807.4 510.307 807.4C506.713 807.4 503.457 811.103 502.967 815.611C502.804 817.397 502.967 818.998 502.967 818.998C503.12 819.804 505.679 821.536 510.656 821.536C515.632 821.536 517.701 818.421 517.68 817.593C517.658 816.766 517.69 817.539 517.494 815.35H517.484Z" fill="#E9C46A" stroke="#231F20" stroke-width="2.6" stroke-linecap="round" stroke-linejoin="round"/>
<path d="M482.973 807.193C485.413 805.723 485.075 803.883 482.222 803.088C479.369 802.282 475.089 802.826 472.661 804.285C470.232 805.745 470.559 807.596 473.412 808.391C476.265 809.197 480.545 808.652 482.973 807.193Z" fill="#231F20" stroke="#231F20" stroke-width="2.6" stroke-linecap="round" stroke-linejoin="round"/>
<path d="M490.019 797.087C490.052 794.866 490.052 789.802 490.052 789.802L465.615 791.588C465.626 791.511 465.615 799.461 465.615 799.461C465.615 799.461 465.637 799.461 465.648 799.461C465.452 801.084 466.856 802.576 469.873 803.425C475.013 804.873 482.734 803.904 487.133 801.258C488.81 800.245 489.747 799.145 489.997 798.078C489.997 797.991 490.008 797.73 490.019 797.37C490.019 797.283 490.041 797.185 490.019 797.098V797.087Z" fill="#E9C46A" stroke="#231F20" stroke-width="2.6" stroke-linecap="round" stroke-linejoin="round"/>
<path d="M487.133 793.384C491.522 790.738 490.923 787.416 485.783 785.968C480.643 784.52 472.922 785.489 468.523 788.135C464.134 790.781 464.733 794.103 469.873 795.551C475.013 797 482.734 796.03 487.133 793.384Z" fill="#E9C46A" stroke="#231F20" stroke-width="2.6" stroke-linecap="round" stroke-linejoin="round"/>
<path d="M551.569 745.546L624.346 771.507L660.642 750.555L587.865 724.594L551.569 745.546Z" fill="#E9C46A" stroke="#231F20" stroke-width="2.6" stroke-linecap="round" stroke-linejoin="round"/>
<path d="M551.569 745.545V755.618L624.346 781.59V771.506L551.569 745.545Z" fill="#231F20" stroke="#231F20" stroke-width="2.6" stroke-linecap="round" stroke-linejoin="round"/>
<path d="M660.642 750.555V760.628L624.346 781.591V771.507L660.642 750.555Z" fill="#E9C46A" stroke="#231F20" stroke-width="2.6" stroke-linecap="round" stroke-linejoin="round"/>
<path d="M598.156 730.594C607.728 733.882 609.644 742.235 609.644 742.235L591.916 752.471C591.916 752.471 589.781 742.518 580.187 739.142L598.156 730.594Z" fill="#E9C46A" stroke="#231F20" stroke-width="2.6" stroke-linecap="round" stroke-linejoin="round"/>
<path d="M596.294 729.842C593.941 728.971 595.019 727.076 592.929 727.653L570.615 739.806C572.358 738.151 575.189 737.302 579.752 739.393L596.294 729.842Z" fill="#E9C46A" stroke="#231F20" stroke-width="2.6" stroke-linecap="round" stroke-linejoin="round"/>
<path d="M567.98 746.144L591.927 750.555C591.927 750.555 590.032 742.093 578.913 739.12C567.795 736.137 567.98 746.155 567.98 746.155V746.144Z" fill="#231F20" stroke="#231F20" stroke-width="2.6" stroke-linecap="round" stroke-linejoin="round"/>
<path d="M741.575 788.626L754.818 766.912C755.21 767.064 732.406 753.887 726.319 750.381C725.938 750.043 725.513 749.804 725.034 749.64C724.849 749.532 724.783 749.499 724.892 749.553C724.892 749.553 724.892 749.575 724.892 749.586C723.564 749.194 721.941 749.412 720.166 750.446L716.801 752.385C712.467 754.889 708.917 761.031 708.917 766.041C708.917 768.491 709.777 770.222 711.149 771.072L711.193 771.093C711.193 771.093 711.258 771.126 711.28 771.148L741.554 788.626H741.575Z" fill="#231F20" stroke="#231F20" stroke-width="2.6" stroke-linecap="round" stroke-linejoin="round"/>
<path d="M747.205 769.916C742.871 772.421 739.321 778.563 739.321 783.572C739.321 788.582 742.871 790.629 747.205 788.124L750.57 786.186C754.905 783.681 758.455 777.539 758.455 772.53C758.455 767.521 754.905 765.473 750.57 767.978L747.205 769.916Z" fill="#E9C46A" stroke="#231F20" stroke-width="2.6" stroke-linecap="round" stroke-linejoin="round"/>
<path d="M764.063 793.396L769.443 784.575C769.606 784.641 760.339 779.283 757.867 777.856C757.714 777.726 757.54 777.617 757.344 777.551C757.268 777.508 757.246 777.497 757.29 777.519C757.29 777.519 757.29 777.519 757.29 777.53C756.756 777.366 756.092 777.464 755.362 777.878L754.001 778.662C752.237 779.675 750.799 782.18 750.799 784.216C750.799 785.207 751.148 785.915 751.703 786.263H751.725C751.725 786.263 751.747 786.285 751.757 786.296L764.063 793.396Z" fill="#231F20" stroke="#231F20" stroke-width="2.6" stroke-linecap="round" stroke-linejoin="round"/>
<path d="M766.35 785.784C764.586 786.796 763.148 789.301 763.148 791.337C763.148 793.374 764.586 794.202 766.35 793.189L767.711 792.405C769.475 791.392 770.913 788.887 770.913 786.851C770.913 784.814 769.475 783.987 767.711 785L766.35 785.784Z" fill="#E9C46A" stroke="#231F20" stroke-width="2.6" stroke-linecap="round" stroke-linejoin="round"/>
<path d="M531.216 912.019L544.458 890.305C544.85 890.457 522.046 877.281 515.959 873.774C515.578 873.436 515.153 873.197 514.674 873.033C514.489 872.925 514.423 872.892 514.532 872.946C514.532 872.946 514.532 872.968 514.532 872.979C513.204 872.587 511.581 872.805 509.806 873.839L506.441 875.778C502.107 878.282 498.557 884.424 498.557 889.434C498.557 891.884 499.417 893.615 500.789 894.465L500.833 894.487C500.833 894.487 500.898 894.519 500.92 894.541L531.194 912.019H531.216Z" fill="#231F20" stroke="#231F20" stroke-width="2.6" stroke-linecap="round" stroke-linejoin="round"/>
<path d="M536.846 893.31C532.511 895.814 528.961 901.956 528.961 906.965C528.961 911.975 532.511 914.022 536.846 911.517L540.211 909.579C544.545 907.074 548.095 900.932 548.095 895.923C548.095 890.914 544.545 888.866 540.211 891.371L536.846 893.31Z" fill="#E9C46A" stroke="#231F20" stroke-width="2.6" stroke-linecap="round" stroke-linejoin="round"/>
<path d="M553.693 916.788L559.072 907.967C559.235 908.033 549.968 902.675 547.496 901.248C547.344 901.118 547.169 901.009 546.973 900.943C546.897 900.9 546.875 900.889 546.919 900.911C546.919 900.911 546.919 900.911 546.919 900.922C546.385 900.758 545.721 900.856 544.991 901.27L543.63 902.054C541.866 903.067 540.429 905.572 540.429 907.608C540.429 908.599 540.777 909.307 541.332 909.655H541.354C541.354 909.655 541.376 909.677 541.387 909.688L553.693 916.788Z" fill="#231F20" stroke="#231F20" stroke-width="2.6" stroke-linecap="round" stroke-linejoin="round"/>
<path d="M555.979 909.188C554.215 910.201 552.778 912.705 552.778 914.742C552.778 916.778 554.215 917.606 555.979 916.593L557.34 915.809C559.105 914.796 560.542 912.292 560.542 910.255C560.542 908.219 559.105 907.391 557.34 908.404L555.979 909.188Z" fill="#E9C46A" stroke="#231F20" stroke-width="2.6" stroke-linecap="round" stroke-linejoin="round"/>
<path d="M649.817 53.1231C642.086 27.6952 616.636 12.0246 590.446 16.5875C556.829 22.4463 514.641 28.4139 468.838 35.1112C388.329 46.8831 296.691 60.942 220.952 80.718C214.516 82.3951 115.494 147.397 115.494 147.397C115.494 147.397 142.621 416.834 156.397 416.834L426.901 372.425C426.901 372.425 397.76 271.487 393.056 179.947L474.011 157.611L614.534 118.843C642.478 110.023 658.344 79.3132 649.796 53.1231H649.817Z" fill="#F4A261" stroke="#231F20" stroke-width="2.6" stroke-linecap="round" stroke-linejoin="round"/>
<path d="M475.612 645.413L582.877 616.174" stroke="#231F20" stroke-width="2.6" stroke-linecap="round" stroke-linejoin="round"/>
<path d="M190.548 632.813L160.666 727.305L295.787 805.309L291.595 697.031L306.862 657.479L190.548 632.813Z" fill="#E9C46A" stroke="#231F20" stroke-width="2.6" stroke-linecap="round" stroke-linejoin="round"/>
<path d="M291.595 697.032L172.492 689.92L182.456 658.416L294.6 689.224L291.595 697.032Z" fill="#2D2A25" stroke="#231F20" stroke-width="2.6" stroke-linecap="round" stroke-linejoin="round"/>
<path d="M582.06 617.393L491.076 661.791L447.984 609.509L556.469 581.511L582.06 617.393Z" fill="#2D2A25" stroke="#231F20" stroke-width="2.6" stroke-linecap="round" stroke-linejoin="round"/>
<path d="M582.06 617.394L491.076 661.792" stroke="#231F20" stroke-width="2.6" stroke-linecap="round" stroke-linejoin="round"/>
<path d="M422.981 357.854L557.036 565.633L561.794 564.436L574.046 590.539L447.364 637.343L433.588 616.435L324.264 474.148L321.117 450.952L335.808 559.165L320.409 647.166L323.981 648.124L314.812 679.15L174.365 635.34L203.659 591.377L156.419 416.834L422.981 357.854Z" fill="#E76F51" stroke="#231F20" stroke-width="2.6" stroke-linecap="round" stroke-linejoin="round"/>
<path d="M183.818 518.056L161.853 455.308L319.549 372.534L422.981 357.854L426.923 363.92L318.743 402.416L244.05 535.447L183.818 518.056Z" fill="#231F20" stroke="#231F20" stroke-width="2.6" stroke-linecap="round" stroke-linejoin="round"/>
<path d="M432.902 350.504L393.077 179.947L481.688 169.884L468.838 35.1111C388.329 46.883 296.691 60.9419 220.952 80.7179C214.516 82.395 115.494 147.397 115.494 147.397L143.732 470.303L432.891 350.515L432.902 350.504Z" fill="#E9C46A" stroke="#231F20" stroke-width="2.6" stroke-linecap="round" stroke-linejoin="round"/>
<path d="M393.077 179.947L383.821 150.729" stroke="#231F20" stroke-width="2.6" stroke-linecap="round" stroke-linejoin="round"/>
<path d="M649.817 53.123C651.984 59.7659 652.583 66.6918 651.81 73.4762C648.499 102.726 609.568 110.905 593.909 85.9778" fill="#F4A261"/>
<path d="M649.817 53.123C651.984 59.7659 652.583 66.6918 651.81 73.4762C648.499 102.726 609.568 110.905 593.909 85.9778" stroke="#231F20" stroke-width="2.6" stroke-linecap="round" stroke-linejoin="round"/>
<path d="M178.166 480.3L163.083 492.301C160.056 494.708 159.653 499.151 162.201 502.058C164.575 504.77 168.659 505.151 171.49 502.929L187.281 490.504L178.166 480.311V480.3Z" fill="#E9C46A" stroke="#231F20" stroke-width="2.6" stroke-linecap="round" stroke-linejoin="round"/>
<path d="M160.524 499.336C160.698 499.14 148.36 510.051 151.801 512.044C155.253 514.037 164.466 503.746 164.466 503.746L160.513 499.347L160.524 499.336Z" stroke="#231F20" stroke-width="2.6" stroke-linecap="round" stroke-linejoin="round"/>
<path d="M172.492 689.92L291.595 697.031" stroke="#231F20" stroke-width="2.6" stroke-linecap="round" stroke-linejoin="round"/>
<path d="M185.625 648.385L297.998 680.434L294.6 689.222L182.456 658.415L185.625 648.385Z" fill="#2D2A25" stroke="#231F20" stroke-width="2.6" stroke-linecap="round" stroke-linejoin="round"/>
<path d="M291.595 712.691L257.041 713.235" stroke="#231F20" stroke-width="2.6" stroke-linecap="round" stroke-linejoin="round"/>
<path d="M265.993 723.635H292.618" stroke="#231F20" stroke-width="2.6" stroke-linecap="round" stroke-linejoin="round"/>
<path d="M275.467 734.655H293.043" stroke="#231F20" stroke-width="2.6" stroke-linecap="round" stroke-linejoin="round"/>
<path d="M164.118 716.393L294.97 784.215" stroke="#231F20" stroke-width="2.6" stroke-linecap="round" stroke-linejoin="round"/>
<path d="M463.731 631.605L567.414 593.523L575.33 605.11L475.612 645.413L463.731 631.605Z" fill="#2D2A25" stroke="#231F20" stroke-width="2.6" stroke-linecap="round" stroke-linejoin="round"/>
<path d="M321.117 450.952L387.85 416.834" stroke="#231F20" stroke-width="2.6" stroke-linecap="round" stroke-linejoin="round"/>
<path d="M188.369 639.706L182.456 658.415L297.998 680.434L299.947 674.488L188.369 639.706Z" fill="#231F20" stroke="#231F20" stroke-width="2.6" stroke-miterlimit="10" stroke-linecap="round" stroke-linejoin="round"/>
<path d="M567.414 593.523L475.612 645.413L463.731 631.605L567.414 593.523Z" fill="#231F20" stroke="#231F20" stroke-width="2.6" stroke-miterlimit="10" stroke-linecap="round" stroke-linejoin="round"/>
<path d="M557.863 565.144L434.415 615.945" stroke="#231F20" stroke-width="2.6" stroke-linecap="round" stroke-linejoin="round"/>
<path d="M320.409 647.166L190.547 611.817" stroke="#231F20" stroke-width="2.6" stroke-linecap="round" stroke-linejoin="round"/>
<path d="M595.967 89.7023C595.967 89.7023 606.465 111.025 622.538 114.967C634.027 109.064 645.832 93.3177 647.803 87.7312C631.403 103.151 606.791 105.449 595.967 89.7023Z" fill="#231F20" stroke="#231F20" stroke-width="2.6" stroke-linecap="round" stroke-linejoin="round"/>
<path d="M387.85 162.545L481.688 169.874L393.099 179.163L387.85 162.545Z" fill="#231F20" stroke="#231F20" stroke-width="2.6" stroke-linecap="round" stroke-linejoin="round"/>
<path d="M354.484 433.888L363.958 525.809L324.264 474.148L321.117 450.952L354.484 433.888Z" fill="#231F20" stroke="#231F20" stroke-width="2.6" stroke-miterlimit="10" stroke-linecap="round" stroke-linejoin="round"/>
<path d="M642.652 376.193L851.138 255.827L1017.43 442.066L887.086 517.326L642.652 376.193Z" fill="#E9C46A" stroke="#231F20" stroke-width="2.6" stroke-linecap="round" stroke-linejoin="round"/>
<path d="M642.652 175.242L772.993 99.9934L1017.43 241.115L887.086 316.364L642.652 175.242Z" fill="#E76F51" stroke="#231F20" stroke-width="2.6" stroke-linecap="round" stroke-linejoin="round"/>
<path d="M662.689 163.677L907.123 304.799" stroke="#231F20" stroke-width="2.6" stroke-linecap="round" stroke-linejoin="round"/>
<path d="M642.652 175.242V352.573V376.193L887.086 517.326V316.364L642.652 175.242Z" fill="#231F20" stroke="#231F20" stroke-width="2.6" stroke-linecap="round" stroke-linejoin="round"/>
<path d="M653.433 196.717V367.166L873.071 493.967V323.53L653.433 196.717Z" fill="#E9C46A" stroke="#231F20" stroke-width="2.6" stroke-linecap="round" stroke-linejoin="round"/>
<path d="M679.884 265.498C699.377 271.934 726.678 266.761 720.699 257.668C714.721 248.575 705.334 259.9 688.999 259.16C679.699 258.735 670.802 254.739 674.864 246.517C678.937 238.295 710.496 252.277 713.327 241.224C716.159 230.171 689.315 241.159 687.518 236.346C685.721 231.532 692.582 230.269 697.809 229.724C702.067 229.289 706.281 229.332 710.267 229.539L697.003 221.884C685.765 223.898 675.18 228.352 670.443 236.411C663.669 247.921 659.64 251.069 655.044 253.018V264.823C662.014 262.862 671.009 262.579 679.873 265.498H679.884Z" fill="#231F20"/>
<path d="M726.221 255.925C736.283 265.225 722.453 267.588 732.199 279.295C741.946 291.012 756.723 283.281 749.492 274.721C742.261 266.162 735.967 264.354 740.693 257.395C743.176 253.725 748.73 254.727 753.968 254.749L731.241 241.627C721.941 238.621 716.594 247.017 726.231 255.914L726.221 255.925Z" fill="#231F20"/>
<path d="M678.948 217.473C681.539 216.929 684.785 216.798 688.193 216.787L675.136 209.252C667.84 207.15 661.644 201.095 655.055 199.745V209.633C656.057 209.393 657.07 209.426 658.028 209.763C670.356 214.141 656.101 216.668 655.055 221.677V222.82C655.142 223.267 655.338 223.735 655.676 224.225C660.391 231.031 669.506 219.477 678.948 217.473Z" fill="#231F20"/>
<path d="M661.97 235.583C660.533 233.884 657.821 233.155 655.055 232.393V244.437C659.368 242.923 665.455 239.689 661.97 235.583Z" fill="#231F20"/>
<path d="M675.517 304.571C671.586 299.932 658.192 302.447 659.89 292.102C661.535 282.083 667.056 277.15 671.586 278.751C685.841 283.815 664.519 286.406 669.234 293.213C673.949 300.019 683.064 288.465 692.506 286.461C702.666 284.305 723.008 288.704 723.008 280.787C723.008 272.87 712.63 272.859 699.421 277.858C686.211 282.867 677.249 269.331 667.034 268.504C662.341 268.122 658.115 269.407 655.066 271.956V318.989C658.202 317.072 662.112 315.352 667.067 313.914C671.216 312.716 679.46 309.199 675.528 304.571H675.517Z" fill="#231F20"/>
<path d="M776.619 274.089C778.111 272.88 779.309 271.497 780.354 269.994L759.598 258.016C756.723 258.93 754.73 260.074 753.99 262.306C751.736 269.047 764.967 283.574 776.63 274.089H776.619Z" fill="#231F20"/>
<path d="M658.638 347.031C656.438 338.831 676.563 329.738 696.056 336.174C715.549 342.609 742.85 337.437 736.871 328.344C730.893 319.251 721.505 330.576 705.171 329.836C695.871 329.411 686.974 325.414 691.036 317.192C695.108 308.971 726.667 322.953 729.499 311.9C732.33 300.847 705.486 311.835 703.69 307.021C701.893 302.208 708.753 300.945 713.97 300.4C731.579 298.593 748.556 304.985 750.756 297.329C752.955 289.685 699.192 285.699 686.614 307.076C674.036 328.453 670.889 321.004 656.112 330.543C655.731 330.783 655.382 331.034 655.044 331.273V355.47C658.431 353.597 659.825 351.485 658.627 347.031H658.638Z" fill="#231F20"/>
<path d="M770.172 300.127C777.087 306.944 759.794 315.416 749.732 311.18C739.67 306.944 733.386 315.7 743.448 324.999C753.511 334.299 739.68 336.663 749.427 348.369C759.173 360.087 773.951 352.355 766.72 343.795C759.489 335.236 753.195 333.428 757.921 326.47C762.636 319.511 778.361 329.323 782.129 317.507C785.897 305.681 771.12 292.722 783.393 288.507C791.669 285.665 797.07 284.043 799.041 280.765L789.426 275.211C788.772 277.28 786.975 279.033 782.14 280.362C766.731 284.609 763.279 293.288 770.194 300.116L770.172 300.127Z" fill="#231F20"/>
<path d="M749.765 396.459C743.786 387.366 734.399 398.691 718.064 397.951C708.764 397.526 699.867 393.53 703.929 385.308C707.991 377.086 739.561 391.068 742.392 380.015C745.224 368.962 718.38 379.95 716.583 375.137C714.786 370.323 721.647 369.06 726.863 368.516C744.472 366.708 761.45 373.1 763.649 365.445C765.849 357.8 712.086 353.814 699.508 375.191C695.577 381.867 692.571 385.732 689.849 388.183L722.29 406.913C738.701 408.296 754.436 403.581 749.754 396.459H749.765Z" fill="#231F20"/>
<path d="M860.667 328.55C851.367 328.126 842.47 324.129 846.532 315.907C847.665 313.609 850.954 313.054 855.146 313.185L842.176 305.692C842.176 305.692 842.133 305.758 842.111 305.79C829.533 327.167 826.386 319.719 811.608 329.258C796.831 338.798 812.24 347.292 796.831 351.539C781.422 355.786 777.97 364.465 784.885 371.293C791.8 378.11 774.507 386.582 764.444 382.346C754.382 378.11 748.099 386.866 758.161 396.166C768.223 405.465 754.393 407.829 764.139 419.535C773.886 431.253 788.663 423.521 781.432 414.961C774.202 406.402 767.907 404.594 772.633 397.636C777.349 390.677 793.074 400.489 796.842 388.673C800.62 376.847 785.832 363.888 798.105 359.674C810.367 355.459 816.345 353.945 814.146 345.745C811.946 337.545 832.07 328.452 851.563 334.888C858.903 337.306 867.343 338.09 874.704 337.632V326.514C870.697 327.733 866.069 328.801 860.678 328.55H860.667Z" fill="#231F20"/>
<path d="M691.025 374.375C687.093 369.736 673.699 372.251 675.398 361.906C677.042 351.887 682.563 346.954 687.082 348.555C701.337 353.619 680.015 356.21 684.73 363.017C689.446 369.823 698.56 358.269 708.002 356.265C718.162 354.109 738.504 358.508 738.504 350.591C738.504 342.674 728.126 342.663 714.917 347.662C701.708 352.671 692.745 339.135 682.53 338.307C672.316 337.48 664.235 344.471 665.869 355.47C667.459 366.186 664.094 369.169 658.333 369.997L682.269 383.816C682.367 383.784 682.454 383.751 682.563 383.729C686.712 382.531 694.956 379.014 691.025 374.386V374.375Z" fill="#231F20"/>
<path d="M792.497 299.943C783.382 299.943 783.698 309.776 798.78 310.157C813.874 310.549 799.314 320.71 788.402 324.88C778.198 328.779 770.27 328.267 768.593 333.287C766.339 340.028 779.57 354.555 791.233 345.07C801.361 336.838 797.931 320.949 824.284 313.348C828.433 312.15 836.677 308.633 832.746 304.005C828.814 299.365 815.42 301.881 817.119 291.536C817.13 291.438 817.151 291.351 817.173 291.253L807.677 285.775C809.55 299.932 802.341 299.943 792.497 299.943Z" fill="#231F20"/>
<path d="M735.336 414.449L750.004 422.922C751.289 422.17 752.052 421.114 752.052 419.589C752.052 413.11 745.104 411.934 735.336 414.46V414.449Z" fill="#231F20"/>
<path d="M841.577 340.071C831.363 339.244 823.282 346.235 824.916 357.234C827.116 372.077 819.83 372.077 809.822 372.077C800.708 372.077 801.023 381.91 816.106 382.291C831.199 382.683 816.639 392.844 805.728 397.014C795.524 400.913 787.596 400.401 785.919 405.421C783.665 412.162 796.896 426.689 808.559 417.204C818.687 408.971 815.256 393.083 841.61 385.482C845.759 384.284 854.003 380.767 850.071 376.138C846.14 371.499 832.746 374.015 834.444 363.67C836.089 353.651 841.61 348.718 846.129 350.319C860.384 355.382 839.062 357.974 843.777 364.78C848.492 371.586 857.607 360.032 867.049 358.029C869.227 357.56 871.884 357.408 874.693 357.364V349.164C874.454 349.251 874.214 349.338 873.964 349.426C860.754 354.435 851.792 340.899 841.577 340.071Z" fill="#231F20"/>
<path d="M858.729 378.153C846.151 399.53 843.004 392.081 828.226 401.621C813.449 411.16 828.858 419.654 813.448 423.901C798.039 428.149 794.587 436.828 801.502 443.656C804.312 446.422 803.125 449.471 800.054 451.823L814.657 460.252C815.049 459.599 815.387 458.869 815.659 458.041C819.427 446.215 798.671 439.539 814.712 432.058C826.462 426.569 832.952 426.33 830.752 418.13C828.553 409.93 848.677 400.837 868.17 407.273C870.272 407.97 872.472 408.514 874.704 408.95V400.717C866.439 399.726 859.469 395.74 863.161 388.281C864.555 385.471 869.15 385.253 874.704 385.743V366.436C867.789 368.951 861.93 372.741 858.739 378.175L858.729 378.153Z" fill="#231F20"/>
<path d="M841.109 469.748C839.334 470.892 837.994 472.035 836.982 473.146L847.131 479.005C852.554 474.747 863.292 471.904 874.682 473.821V442.306C873.495 443.525 872.45 444.843 871.601 446.28C859.023 467.657 855.876 460.209 841.098 469.748H841.109Z" fill="#231F20"/>
<path d="M837.973 426.548C840.173 441.391 832.887 441.391 822.879 441.391C813.765 441.391 814.08 451.224 829.163 451.606C842.601 451.954 832.539 460.045 822.466 464.76L832.114 470.336C835.817 464.423 841.555 458.586 854.656 454.807C858.805 453.609 867.049 450.092 863.117 445.464C859.186 440.825 845.792 443.34 847.49 432.995C849.135 422.976 854.656 418.043 859.175 419.644C873.43 424.708 852.108 427.299 856.823 434.105C860.624 439.594 867.288 433.147 874.672 429.39V418.609C867.495 415.952 861.321 409.941 854.613 409.396C844.398 408.569 836.317 415.56 837.951 426.559L837.973 426.548Z" fill="#231F20"/>
<path d="M854.667 483.349L866.581 490.221C868.552 488.5 870.74 487.923 872.744 488.631C873.496 488.892 874.127 489.154 874.693 489.415V480.387C872.548 479.342 870.403 478.569 868.192 478.384C862.649 477.937 857.749 479.799 854.678 483.349H854.667Z" fill="#231F20"/>
<path d="M887.086 517.326L1017.43 442.066V241.115L887.086 316.364V517.326Z" fill="#231F20" stroke="#231F20" stroke-width="2.6" stroke-linecap="round" stroke-linejoin="round"/>
<path d="M665.477 205.288L653.433 196.717V367.166L665.836 361.797L665.477 205.288Z" fill="#E9C46A" stroke="#231F20" stroke-width="2.6" stroke-linecap="round" stroke-linejoin="round"/>
<path d="M665.836 361.797L873.071 476.489V493.967L653.433 367.166L665.836 361.797Z" fill="#E9C46A" stroke="#231F20" stroke-width="2.6" stroke-linecap="round" stroke-linejoin="round"/>
<path d="M320.409 60.7242L324.95 175.177C325.114 179.261 324.286 183.268 322.544 186.851C320.649 190.749 321.161 195.508 323.872 199.178C326.693 202.99 327.237 207.901 325.31 211.963C321.52 219.967 316.87 232.969 325.223 235.354C333.804 237.805 336.657 223.484 337.604 214.718C338.04 210.602 340.599 207.139 344.334 205.473L349.191 203.305C353.634 201.324 356.204 196.706 355.616 191.74L355.268 188.778C355.006 186.6 355.028 184.412 355.333 182.277L361.137 58.3394L320.409 60.7134V60.7242Z" fill="#231F20" stroke="#231F20" stroke-width="2.6" stroke-linecap="round" stroke-linejoin="round"/>
<path d="M311.719 56.5099L330.744 169.841C331.419 173.881 331.103 177.856 329.807 181.406C328.402 185.261 329.524 189.976 332.704 193.613C336.004 197.381 337.18 202.249 335.764 206.278C332.987 214.195 329.981 227.078 338.639 229.441C347.536 231.87 348.571 217.691 348.407 209.012C348.331 204.939 350.444 201.498 353.961 199.853L358.546 197.708C362.738 195.748 364.72 191.174 363.511 186.263L362.782 183.333C362.248 181.177 361.998 179.01 362.03 176.897L363.958 49.9868L311.719 56.5207V56.5099Z" fill="#E76F51" stroke="#231F20" stroke-width="2.6" stroke-linecap="round" stroke-linejoin="round"/>
<path d="M329.121 160.171L330.679 169.46" stroke="#231F20" stroke-width="2.6" stroke-linecap="round" stroke-linejoin="round"/>
<path d="M329.295 183.835C329.383 183.007 329.535 182.179 329.818 181.406C331.114 177.856 331.43 173.892 330.755 169.841L330.689 169.46" stroke="#231F20" stroke-width="2.6" stroke-linecap="round" stroke-linejoin="round"/>
<path d="M317.524 91.0854L319.168 100.908" stroke="#231F20" stroke-width="2.6" stroke-linecap="round" stroke-linejoin="round"/>
<path d="M363.087 184.531L362.793 183.334C362.259 181.177 362.009 179.01 362.041 176.898L362.096 173.576" stroke="#231F20" stroke-width="2.6" stroke-linecap="round" stroke-linejoin="round"/>
<path d="M363.718 65.886L363.849 57.4246" stroke="#231F20" stroke-width="2.6" stroke-linecap="round" stroke-linejoin="round"/>
<path d="M323.284 125.378L321.052 112.135" stroke="#231F20" stroke-width="2.6" stroke-linecap="round" stroke-linejoin="round"/>
<path d="M319.168 100.908L321.052 112.136" stroke="#231F20" stroke-width="2.6" stroke-linecap="round" stroke-linejoin="round"/>
<path d="M315.465 78.856L317.523 91.0853" stroke="#231F20" stroke-width="2.6" stroke-linecap="round" stroke-linejoin="round"/>
<path d="M362.281 160.498L362.085 173.565" stroke="#231F20" stroke-width="2.6" stroke-linecap="round" stroke-linejoin="round"/>
<path d="M348.211 216.09C348.418 213.618 348.451 211.146 348.407 209.012C348.331 204.939 350.444 201.498 353.961 199.853L358.546 197.708C362.738 195.748 364.72 191.174 363.511 186.263L363.087 184.531" stroke="#231F20" stroke-width="2.6" stroke-linecap="round" stroke-linejoin="round"/>
<path d="M348.211 216.09C347.59 223.67 345.347 231.271 338.639 229.441C335.514 228.592 333.913 226.37 333.27 223.517" stroke="#231F20" stroke-width="2.6" stroke-linecap="round" stroke-linejoin="round"/>
<path d="M329.296 183.834C328.969 187.123 330.167 190.706 332.704 193.614C333.76 194.822 334.577 196.162 335.187 197.534" stroke="#231F20" stroke-width="2.6" stroke-linecap="round" stroke-linejoin="round"/>
<path d="M333.749 213.28C334.294 210.787 335.045 208.358 335.775 206.278C336.733 203.545 336.472 200.441 335.198 197.534" stroke="#231F20" stroke-width="2.6" stroke-linecap="round" stroke-linejoin="round"/>
<path d="M333.749 213.281C332.965 216.842 332.606 220.523 333.281 223.517" stroke="#231F20" stroke-width="2.6" stroke-linecap="round" stroke-linejoin="round"/>
<path d="M362.281 160.497L362.618 138.63" stroke="#231F20" stroke-width="2.6" stroke-linecap="round" stroke-linejoin="round"/>
<path d="M329.121 160.171L327.085 148.007" stroke="#231F20" stroke-width="2.6" stroke-linecap="round" stroke-linejoin="round"/>
<path d="M362.771 128.133L362.847 122.917" stroke="#231F20" stroke-width="2.6" stroke-linecap="round" stroke-linejoin="round"/>
<path d="M363.196 100.058L362.847 122.916" stroke="#231F20" stroke-width="2.6" stroke-linecap="round" stroke-linejoin="round"/>
<path d="M362.618 138.631L362.771 128.133" stroke="#231F20" stroke-width="2.6" stroke-linecap="round" stroke-linejoin="round"/>
<path d="M363.468 82.1448L363.718 65.8862" stroke="#231F20" stroke-width="2.6" stroke-linecap="round" stroke-linejoin="round"/>
<path d="M363.468 82.1445L363.196 100.058" stroke="#231F20" stroke-width="2.6" stroke-linecap="round" stroke-linejoin="round"/>
<path d="M325.637 139.425L323.284 125.377" stroke="#231F20" stroke-width="2.6" stroke-linecap="round" stroke-linejoin="round"/>
<path d="M317.306 55.8127L311.719 56.5097L313.995 70.0785" stroke="#231F20" stroke-width="2.6" stroke-linecap="round" stroke-linejoin="round"/>
<path d="M315.465 78.8559L313.995 70.0786" stroke="#231F20" stroke-width="2.6" stroke-linecap="round" stroke-linejoin="round"/>
<path d="M327.085 148.007L325.636 139.426" stroke="#231F20" stroke-width="2.6" stroke-linecap="round" stroke-linejoin="round"/>
<path d="M317.306 55.8129L363.958 49.9868L363.849 57.4246" stroke="#231F20" stroke-width="2.6" stroke-linecap="round" stroke-linejoin="round"/>
<path d="M315.465 78.8561C322.881 75.796 326.584 74.2823 324.841 67.8028C322.642 59.6028 342.766 50.5097 362.259 56.9456C362.782 57.1199 363.304 57.2723 363.838 57.4357" stroke="#231F20" stroke-width="2.6" stroke-linecap="round" stroke-linejoin="round"/>
<path d="M313.995 70.0786C316.783 66.3978 313.233 61.3993 317.306 55.8237" stroke="#231F20" stroke-width="2.6" stroke-linecap="round" stroke-linejoin="round"/>
<path d="M325.636 139.425C331.778 134.786 322.751 127.49 335.22 119.431C348.952 110.556 352.643 116.361 363.196 100.058" stroke="#231F20" stroke-width="2.6" stroke-linecap="round" stroke-linejoin="round"/>
<path d="M327.085 148.007C335.655 144.99 339.597 142.812 337.746 135.919C336.014 129.461 348.113 122.459 362.858 122.906" stroke="#231F20" stroke-width="2.6" stroke-linecap="round" stroke-linejoin="round"/>
<path d="M323.284 125.377C327.139 117.831 331.713 109.424 348.788 104.491C352.937 103.293 361.181 99.7753 357.25 95.1471C353.319 90.508 339.924 93.0235 341.623 82.6781C343.267 72.6595 348.788 67.7263 353.308 69.3271C367.563 74.3909 346.24 76.9827 350.955 83.7889C353.809 87.9162 358.295 85.2917 363.479 82.1337" stroke="#231F20" stroke-width="2.6" stroke-linecap="round" stroke-linejoin="round"/>
<path d="M317.524 91.0851C327.259 91.0851 334.25 90.8237 332.083 76.2422C330.45 65.2434 338.53 58.2521 348.745 59.0797C353.819 59.4935 358.589 63.0327 363.718 65.8859" stroke="#231F20" stroke-width="2.6" stroke-linecap="round" stroke-linejoin="round"/>
<path d="M321.052 112.135C329.143 107.485 334.686 101.605 323.273 101.311C321.749 101.267 320.388 101.136 319.168 100.919" stroke="#231F20" stroke-width="2.6" stroke-linecap="round" stroke-linejoin="round"/>
<path d="M329.121 160.171C329.568 160.117 330.036 160.084 330.537 160.084C340.545 160.084 347.83 160.084 345.63 145.241C343.997 134.242 352.077 127.251 362.292 128.078C362.455 128.089 362.608 128.111 362.771 128.133" stroke="#231F20" stroke-width="2.6" stroke-linecap="round" stroke-linejoin="round"/>
<path d="M329.295 183.835C339.63 179.196 350.65 170.647 336.831 170.299C334.403 170.233 332.366 169.928 330.678 169.46" stroke="#231F20" stroke-width="2.6" stroke-linecap="round" stroke-linejoin="round"/>
<path d="M362.618 138.63C359.351 140.177 356.324 144.685 355.17 151.666C354.211 157.503 358.045 159.245 362.292 160.486" stroke="#231F20" stroke-width="2.6" stroke-linecap="round" stroke-linejoin="round"/>
<path d="M335.187 197.534C339.619 189.323 342.799 179.217 362.085 173.565" stroke="#231F20" stroke-width="2.6" stroke-linecap="round" stroke-linejoin="round"/>
<path d="M363.087 184.531C359.961 185.631 356.324 186.927 351.391 190.107C336.613 199.646 352.023 208.141 336.613 212.388C335.601 212.671 334.653 212.965 333.749 213.281" stroke="#231F20" stroke-width="2.6" stroke-linecap="round" stroke-linejoin="round"/>
<path d="M348.211 216.09C345.521 217.31 342.037 218.595 337.866 220.533C335.72 221.535 334.25 222.526 333.27 223.517" stroke="#231F20" stroke-width="2.6" stroke-linecap="round" stroke-linejoin="round"/>
<path d="M273.452 294.508C265.372 296.381 93.0721 348.054 93.0721 348.054L90.9921 366.817C90.9921 366.817 252.979 507.394 252.99 506.436C253.012 504.53 339.401 371.881 339.401 371.881L455.923 345.244L453.255 325.566L363.958 330.499L352.088 301.238L330.885 227.851L273.452 294.508Z" fill="#E76F51" stroke="#231F20" stroke-width="2.6" stroke-linecap="round" stroke-linejoin="round"/>
<path d="M280.062 304.277C271.982 306.15 90.9921 366.806 90.9921 366.806C90.9921 366.806 123.803 413.48 161.863 455.297C199.924 497.125 250.899 526.136 250.91 525.189C250.932 523.283 337.321 390.633 337.321 390.633L455.923 345.233L453.821 334.583L357.718 340.507L358.633 315.003L338.051 235.67L280.073 304.266L280.062 304.277Z" fill="#231F20" stroke="#231F20" stroke-width="2.6" stroke-miterlimit="10" stroke-linecap="round" stroke-linejoin="round"/>
<path d="M204.138 494.022C218.382 481.585 223.065 460.742 219.253 437.198C212.654 448.121 201.111 458.27 187.444 463.367C180.572 465.926 172.046 465.926 172.046 465.926C177.382 474.845 204.149 494.032 204.149 494.032L204.138 494.022Z" fill="#231F20" stroke="#231F20" stroke-width="2.6" stroke-linecap="round" stroke-linejoin="round"/>
<path d="M161.853 455.309C199.913 497.137 250.888 526.147 250.899 525.2L161.853 455.309Z" fill="#231F20"/>
<path d="M161.853 455.309C199.913 497.137 250.888 526.147 250.899 525.2" stroke="#E76F51" stroke-width="2.6" stroke-linecap="round" stroke-linejoin="round"/>
<path d="M249.843 361.329L284.854 407.48L274.628 420.428L230.873 366.447L249.843 361.329Z" fill="#E76F51" stroke="#E76F51" stroke-width="2.6" stroke-linecap="round" stroke-linejoin="round"/>
<path d="M550.338 191.12C542.737 194.006 349.442 353.183 349.18 351.506C348.919 349.818 342.037 304.908 342.037 304.908L545.427 159.125L550.338 191.12Z" fill="#E76F51" stroke="#231F20" stroke-width="2.6" stroke-linecap="round" stroke-linejoin="round"/>
<path d="M545.427 159.126L595.662 100.07L600.083 94.8752L602.588 100.048V111.798L580.155 186.775L550.338 191.12L545.427 159.126Z" fill="#231F20" stroke="#231F20" stroke-width="2.6" stroke-miterlimit="10" stroke-linecap="round" stroke-linejoin="round"/>
<path d="M273.518 363.746L293.533 393.301L309.291 380.811L289.275 351.255L273.518 363.746Z" stroke="#E76F51" stroke-width="2.6" stroke-linecap="round" stroke-linejoin="round"/>
<path d="M299.544 342.99L319.549 372.534L335.307 360.043L315.302 330.499L299.544 342.99Z" stroke="#E76F51" stroke-width="2.6" stroke-linecap="round" stroke-linejoin="round"/>
<path d="M548.247 186.949L276 402.067" stroke="#231F20" stroke-width="2.6" stroke-linecap="round" stroke-linejoin="round"/>
<path d="M270.349 394.88L547.605 179.587" stroke="#231F20" stroke-width="2.6" stroke-linecap="round" stroke-linejoin="round"/>
<path d="M265.579 387.476L545.525 173.337" stroke="#231F20" stroke-width="2.6" stroke-linecap="round" stroke-linejoin="round"/>
<path d="M259.328 381.224L268.552 374.255L334.468 324.455L545.525 164.995" fill="#E9C46A"/>
<path d="M259.328 381.224L268.552 374.255L334.468 324.455L545.525 164.995" stroke="#231F20" stroke-width="2.6" stroke-linecap="round" stroke-linejoin="round"/>
<path d="M338.04 235.681L330.885 227.851L273.452 294.508L280.062 304.276L338.04 235.681Z" fill="#E76F51" stroke="#231F20" stroke-width="2.6" stroke-linecap="round" stroke-linejoin="round"/>
<path d="M562.72 181.689L575.505 180.556L597.938 111.264L562.72 181.689Z" fill="#E76F51" stroke="#231F20" stroke-width="2.6" stroke-linecap="round" stroke-linejoin="round"/>
<path d="M131.677 334.682L90.9921 366.818L142.469 349.448L131.677 334.682Z" fill="#231F20" stroke="#231F20" stroke-width="2.6" stroke-linecap="round" stroke-linejoin="round"/>
<path d="M376.002 330.499L364.622 339.603L453.821 334.594L453.255 325.566L376.002 330.499Z" fill="#231F20" stroke="#231F20" stroke-width="2.6" stroke-linecap="round" stroke-linejoin="round"/>
<path d="M244.05 67.8787C244.05 67.8787 207.993 78.7794 157.823 125.573C132.94 148.78 68.7007 173.75 45.7884 206.986C28.2992 232.359 20.0229 259.138 27.1993 288.41C30.2594 300.911 36.1399 313.859 45.3201 327.341C76.0078 372.414 122.791 441.162 122.791 441.162C141.053 467.995 178.09 474.006 203.899 454.328C228.51 435.565 233.486 400.521 215.082 375.648L145.899 282.148L177.861 222.863" fill="#F4A261"/>
<path d="M244.05 67.8787C244.05 67.8787 207.993 78.7794 157.823 125.573C132.94 148.78 68.7007 173.75 45.7884 206.986C28.2992 232.359 20.0229 259.138 27.1993 288.41C30.2594 300.911 36.1399 313.859 45.3201 327.341C76.0078 372.414 122.791 441.162 122.791 441.162C141.053 467.995 178.09 474.006 203.899 454.328C228.51 435.565 233.486 400.521 215.082 375.648L145.899 282.148L177.861 222.863" stroke="#231F20" stroke-width="2.6" stroke-linecap="round" stroke-linejoin="round"/>
<path d="M145.921 282.148L35.5736 310.799L27.2101 288.41L145.921 282.148Z" fill="#231F20" stroke="#231F20" stroke-width="2.6" stroke-miterlimit="10" stroke-linecap="round" stroke-linejoin="round"/>
<path d="M244.049 67.8787C244.049 67.8787 58.867 76.9499 2 296.468L145.91 282.137L177.872 222.853" fill="#E9C46A"/>
<path d="M244.049 67.8787C244.049 67.8787 58.867 76.9499 2 296.468L145.91 282.137L177.872 222.853" stroke="#231F20" stroke-width="2.6" stroke-linecap="round" stroke-linejoin="round"/>
<path d="M207.993 450.898C208.766 450.179 209.529 449.45 210.258 448.698C226.517 431.96 225.036 408.177 212.665 392.354" fill="#F4A261"/>
<path d="M207.993 450.898C208.766 450.179 209.529 449.45 210.258 448.698C226.517 431.96 225.036 408.177 212.665 392.354" stroke="#231F20" stroke-width="2.6" stroke-linecap="round" stroke-linejoin="round"/>
<path d="M234.303 67.6064C234.303 67.6064 217.674 139.349 251.803 160.345C279.855 177.605 304.739 150.718 309.988 113.976C297.301 114.411 234.303 67.6064 234.303 67.6064Z" fill="#231F20" stroke="#231F20" stroke-width="2.6" stroke-miterlimit="10" stroke-linecap="round" stroke-linejoin="round"/>
<path d="M305.866 116.08C327.464 105.255 334.148 74.8815 320.795 48.2396C307.443 21.5976 279.109 8.77553 257.51 19.6007C235.912 30.4259 229.227 60.799 242.58 87.441C255.933 114.083 284.267 126.905 305.866 116.08Z" fill="#F4A261" stroke="#231F20" stroke-width="2.6" stroke-linecap="round" stroke-linejoin="round"/>
<path d="M333.826 68.7065L319.386 79.8578L308.888 108.073L291.605 107.42" stroke="#231F20" stroke-width="2.6" stroke-linecap="round" stroke-linejoin="round"/>
<path d="M300.35 89.9199L272.352 95.1689" stroke="#231F20" stroke-width="2.6" stroke-linecap="round" stroke-linejoin="round"/>
<path d="M71.129 266.902L145.921 282.148L108.525 258.495" stroke="#231F20" stroke-width="2.6" stroke-linecap="round" stroke-linejoin="round"/>
<path d="M491.076 661.792L502.205 683.822L650.982 721L582.877 616.174L531.248 641.83L491.076 661.792Z" fill="#E9C46A" stroke="#231F20" stroke-width="2.6" stroke-linecap="round" stroke-linejoin="round"/>
<path d="M475.612 645.413L491.075 661.791L582.877 616.174L575.33 605.109" stroke="#231F20" stroke-width="2.6" stroke-linecap="round" stroke-linejoin="round"/>
<path d="M617.071 668.804L594.921 634.708L557.863 658.415" fill="#E9C46A"/>
<path d="M617.071 668.804L594.921 634.708L557.863 658.415" stroke="#231F20" stroke-width="2.6" stroke-linecap="round" stroke-linejoin="round"/>
<path d="M602.283 642.56L571.029 661.791" stroke="#231F20" stroke-width="2.6" stroke-linecap="round" stroke-linejoin="round"/>
<path d="M594.922 664.917L609.656 657.381" stroke="#231F20" stroke-width="2.6" stroke-linecap="round" stroke-linejoin="round"/>
<path d="M440.71 738.565L510.285 763.514L532.533 750.675L536.29 749.651L559.083 743.531L621.177 761.848L646.659 752.461L587.865 724.594L560.553 734.493L538.523 745.546L440.71 738.565Z" fill="#231F20" stroke="#231F20" stroke-width="2.6" stroke-linecap="round" stroke-linejoin="round"/>
<path d="M273.452 294.508L167.123 310.8L178.057 322.8L273.452 294.508Z" fill="#231F20" stroke="#231F20" stroke-width="2.6" stroke-linecap="round" stroke-linejoin="round"/>
<path d="M667.448 235.627L873.626 353.401L874.693 324.466L665.477 205.288L667.448 235.627Z" fill="#E9C46A" stroke="#231F20" stroke-width="2.6" stroke-linecap="round" stroke-linejoin="round"/>
<path d="M648.761 231.979L656.711 252.485L685.373 235.856L675.169 216.777L648.761 231.979Z" fill="#231F20" stroke="#231F20" stroke-width="2.6" stroke-linecap="round" stroke-linejoin="round"/>
<path d="M659.705 246.843C659.411 252.048 655.687 254.411 651.385 252.135C647.084 249.859 643.828 243.793 644.111 238.599C644.405 233.394 648.129 231.031 652.431 233.307C656.732 235.582 659.988 241.648 659.705 246.843Z" fill="#E9C46A" stroke="#231F20" stroke-width="2.6" stroke-linecap="round" stroke-linejoin="round"/>
<path d="M687.486 230.803C687.192 236.008 683.467 238.371 679.166 236.095C674.864 233.819 671.608 227.753 671.891 222.559C672.185 217.354 675.91 214.99 680.211 217.266C684.513 219.542 687.769 225.608 687.486 230.803Z" fill="#231F20" stroke="#231F20" stroke-width="2.6" stroke-linecap="round" stroke-linejoin="round"/>
<path d="M640.354 242.412L644.329 252.659L651.276 248.608L646.18 239.068L640.354 242.412Z" fill="#231F20" stroke="#231F20" stroke-width="2.6" stroke-linecap="round" stroke-linejoin="round"/>
<path d="M645.832 249.838C645.69 252.44 643.828 253.627 641.672 252.484C639.516 251.341 637.893 248.313 638.035 245.711C638.176 243.108 640.038 241.921 642.195 243.064C644.351 244.208 645.973 247.235 645.832 249.838Z" fill="#E9C46A" stroke="#231F20" stroke-width="2.6" stroke-linecap="round" stroke-linejoin="round"/>
<path d="M652.333 246.081C652.191 248.684 650.329 249.871 648.173 248.727C646.017 247.584 644.394 244.556 644.536 241.954C644.677 239.351 646.539 238.164 648.696 239.307C650.852 240.451 652.474 243.478 652.333 246.081Z" fill="#231F20" stroke="#231F20" stroke-width="2.6" stroke-linecap="round" stroke-linejoin="round"/>
<path d="M690.741 240.549L698.691 261.043L711.726 253.442L701.522 234.363L690.741 240.549Z" fill="#231F20" stroke="#231F20" stroke-width="2.6" stroke-linecap="round" stroke-linejoin="round"/>
<path d="M701.686 255.403C701.392 260.608 697.668 262.971 693.366 260.695C689.065 258.419 685.808 252.353 686.092 247.159C686.375 241.964 690.11 239.59 694.411 241.866C698.713 244.142 701.969 250.208 701.686 255.403Z" fill="#E9C46A" stroke="#231F20" stroke-width="2.6" stroke-linecap="round" stroke-linejoin="round"/>
<path d="M713.839 248.389C713.545 253.594 709.821 255.957 705.519 253.681C701.218 251.405 697.961 245.34 698.245 240.145C698.539 234.94 702.263 232.577 706.565 234.853C710.866 237.129 714.122 243.195 713.839 248.389Z" fill="#231F20" stroke="#231F20" stroke-width="2.6" stroke-linecap="round" stroke-linejoin="round"/>
<path d="M719.611 257.211L727.56 277.716L740.595 270.115L730.402 251.036L719.611 257.211Z" fill="#231F20" stroke="#231F20" stroke-width="2.6" stroke-linecap="round" stroke-linejoin="round"/>
<path d="M730.566 272.075C730.272 277.28 726.547 279.643 722.246 277.367C717.944 275.091 714.688 269.025 714.971 263.831C715.265 258.626 718.99 256.262 723.291 258.538C727.593 260.814 730.849 266.88 730.566 272.075Z" fill="#E9C46A" stroke="#231F20" stroke-width="2.6" stroke-linecap="round" stroke-linejoin="round"/>
<path d="M742.708 265.062C742.414 270.267 738.69 272.63 734.388 270.354C730.087 268.078 726.831 262.013 727.114 256.818C727.408 251.613 731.132 249.25 735.434 251.526C739.735 253.802 742.991 259.867 742.708 265.062Z" fill="#231F20" stroke="#231F20" stroke-width="2.6" stroke-linecap="round" stroke-linejoin="round"/>
<path d="M748.828 274.079L756.778 294.585L769.813 286.972L759.609 267.904L748.828 274.079Z" fill="#231F20" stroke="#231F20" stroke-width="2.6" stroke-linecap="round" stroke-linejoin="round"/>
<path d="M759.772 288.944C759.478 294.149 755.754 296.512 751.453 294.236C747.151 291.96 743.895 285.895 744.178 280.7C744.472 275.495 748.197 273.132 752.498 275.408C756.8 277.684 760.056 283.749 759.772 288.944Z" fill="#E9C46A" stroke="#231F20" stroke-width="2.6" stroke-linecap="round" stroke-linejoin="round"/>
<path d="M771.925 281.93C771.631 287.135 767.907 289.499 763.606 287.223C759.304 284.947 756.048 278.881 756.331 273.686C756.625 268.481 760.35 266.118 764.651 268.394C768.953 270.67 772.209 276.736 771.925 281.93Z" fill="#231F20" stroke="#231F20" stroke-width="2.6" stroke-linecap="round" stroke-linejoin="round"/>
<path d="M160.666 727.305L102.416 760.933L295.787 805.309L160.666 727.305Z" fill="#231F20" stroke="#231F20" stroke-width="2.6" stroke-linecap="round" stroke-linejoin="round"/>
<path d="M641.378 376.934L562.317 422.584L885.812 518.056L641.378 376.934Z" fill="#231F20" stroke="#231F20" stroke-width="2.6" stroke-linecap="round" stroke-linejoin="round"/>
<path d="M319.201 888.291L274.356 914.176L423.776 948.664L319.201 888.291Z" fill="#231F20" stroke="#231F20" stroke-width="2.6" stroke-linecap="round" stroke-linejoin="round"/>
<path d="M498.579 672.278L637.305 699.939" stroke="#231F20" stroke-width="2.6" stroke-linecap="round" stroke-linejoin="round"/>
<path d="M518.986 1001C483.159 1001 455.999 985.025 425.312 966.98C387.861 944.961 345.413 919.99 275.99 919.74C238.91 919.609 206.839 913.184 183.262 901.184C161.875 890.294 147.816 874.863 143.667 857.711C137.449 832 153.282 806.529 186.017 789.551C202.428 781.046 211.304 772.454 213.144 763.285C215.975 749.204 202.799 733.436 186.126 713.464C168.626 692.512 146.846 666.43 137.187 632.966C130.152 608.605 123.912 572.669 134.084 539.759C140.247 519.82 149.493 510.498 149.874 510.106C150.941 509.05 152.662 509.061 153.729 510.117C154.785 511.184 154.785 512.905 153.718 513.961C153.631 514.048 144.897 522.945 139.169 541.741C129.553 573.278 135.63 607.93 142.425 631.441C151.769 663.795 173.146 689.397 190.319 709.957C207.928 731.051 221.834 747.702 218.491 764.341C216.27 775.373 206.752 784.912 188.533 794.365C158.172 810.111 143.373 833.296 148.97 856.404C155.384 882.91 192.508 913.968 276.022 914.273C346.915 914.524 390.039 939.886 428.089 962.265C463.622 983.163 494.31 1001.21 539.296 993.824C595.02 984.676 608.087 971.772 609.242 962.548C611.409 945.211 574.361 925.054 559.911 918.76C558.528 918.161 557.907 916.549 558.506 915.177C559.105 913.794 560.706 913.173 562.089 913.772C562.644 914.012 575.919 919.838 589.074 928.626C607.38 940.866 615.993 952.508 614.654 963.223C612.618 979.536 588.257 991.308 540.189 999.192C532.773 1000.41 525.738 1000.97 519.019 1000.97L518.986 1001Z" fill="#E9C46A" stroke="#231F20" stroke-width="2.6" stroke-linecap="round" stroke-linejoin="round"/>
<path d="M867.288 909.471C863.923 909.471 860.645 909.319 857.466 909.014C837.395 907.076 822.03 898.93 815.311 886.657C807.503 872.391 812.98 856.274 829.283 845.602C834.466 842.205 840.477 837.184 839.606 832.567C838.408 826.185 825.09 819.837 803.07 815.154C790.068 812.388 778.263 805.364 769.835 795.389L769.639 795.16C768.669 794.017 768.811 792.296 769.954 791.327C771.109 790.358 772.818 790.499 773.788 791.643L773.984 791.871C781.639 800.932 792.366 807.313 804.192 809.829C829.544 815.219 843.265 822.537 844.953 831.565C846.086 837.642 841.817 843.903 832.255 850.165C818.512 859.16 813.732 872.457 820.07 884.043C825.907 894.705 839.726 901.838 857.977 903.591C873.866 905.126 900.981 903.286 939.891 885.808C996.333 860.456 1027.46 830.454 1025.28 803.524C1023.41 780.372 996.486 760.716 949.496 748.181C920.376 740.417 894.938 730.899 875.913 720.673C853.48 708.607 840.031 695.703 835.914 682.319C832.484 671.157 835.588 659.93 845.116 648.953C861.647 629.906 868.508 612.199 865.524 596.333C861.865 576.862 843.951 559.253 809.158 540.936C747.706 508.593 723.411 484.701 703.886 465.502C688.444 450.321 677.282 439.344 653.444 430.447C631.196 422.138 615.786 394.5 611.158 354.632C605.975 309.853 615.732 264.093 632.916 252.637C634.169 251.799 635.856 252.136 636.695 253.389C637.533 254.641 637.196 256.329 635.944 257.167C620.556 267.426 611.681 311.769 616.57 354C620.948 391.766 635.083 417.771 655.349 425.34C680.276 434.651 692.375 446.553 707.697 461.614C726.972 480.562 750.952 504.139 811.684 536.112C859.491 561.267 868.355 581.947 870.871 595.32C874.181 612.918 866.896 632.16 849.222 652.525C841.011 661.988 838.278 671.484 841.12 680.729C848.111 703.522 888.12 726.195 950.89 742.932C1014.19 759.812 1029.23 784.967 1030.7 803.099C1033.08 832.469 1000.8 864.431 942.123 890.784C914.703 903.101 889.068 909.482 867.277 909.482L867.288 909.471Z" fill="#E9C46A" stroke="#231F20" stroke-width="2.6" stroke-linecap="round" stroke-linejoin="round"/>
</svg>
