<svg width="48" height="48" viewBox="0 0 48 48" fill="none" xmlns="http://www.w3.org/2000/svg">
<path d="M24 48C20.7609 48 17.6156 47.3672 14.6578 46.1156C11.7984 44.9062 9.23438 43.1719 7.03125 40.9688C4.82813 38.7656 3.09375 36.2016 1.88438 33.3422C0.632813 30.3844 0 27.2391 0 24C0 23.0672 0.754688 22.3125 1.6875 22.3125C2.62031 22.3125 3.375 23.0672 3.375 24C3.375 26.7844 3.91875 29.4844 4.99688 32.0297C6.0375 34.4859 7.52344 36.6938 9.41719 38.5875C11.3109 40.4813 13.5188 41.9719 15.975 43.0078C18.5156 44.0812 21.2156 44.625 24 44.625C26.7844 44.625 29.4844 44.0813 32.0297 43.0031C34.4859 41.9625 36.6938 40.4766 38.5875 38.5828C40.4813 36.6891 41.9719 34.4813 43.0078 32.025C44.0813 29.4844 44.625 26.7844 44.625 24C44.625 21.2156 44.0813 18.5156 43.0031 15.9703C41.966 13.52 40.4651 11.2932 38.5828 9.4125C36.7042 7.52774 34.4769 6.02641 32.025 4.99219C29.4844 3.91875 26.7844 3.375 24 3.375C23.0672 3.375 22.3125 2.62031 22.3125 1.6875C22.3125 0.754688 23.0672 0 24 0C27.2391 0 30.3844 0.632812 33.3422 1.88438C36.2016 3.09375 38.7656 4.82812 40.9688 7.03125C43.1719 9.23438 44.9016 11.8031 46.1109 14.6578C47.3625 17.6156 47.9953 20.7609 47.9953 24C47.9953 27.2391 47.3625 30.3844 46.1109 33.3422C44.9063 36.2016 43.1719 38.7656 40.9688 40.9688C38.7656 43.1719 36.1969 44.9016 33.3422 46.1109C30.3844 47.3672 27.2391 48 24 48Z" fill="#FF6600"/>
</svg>
