<?xml version="1.0" encoding="utf-8"?>
<!-- Generator: Adobe Illustrator 27.5.0, SVG Export Plug-In . SVG Version: 6.00 Build 0)  -->
<svg version="1.1" id="PRINT" xmlns="http://www.w3.org/2000/svg" xmlns:xlink="http://www.w3.org/1999/xlink" x="0px" y="0px"
	 viewBox="0 0 595.276 834.404" style="enable-background:new 0 0 595.276 834.404;" xml:space="preserve">
<g>
	<rect x="-8.778" y="-8.504" style="fill:#31313C;" width="612.832" height="851.412"/>
	<g>
		<g>
			<path style="fill:#FFFFFF;" d="M429.1,629.686c-8.959-63.441-94.548-638.19-94.548-638.19h-89.923
				c0,0-71.872,583.391-79.827,638.19H429.1z"/>
			<g>
				<polygon style="fill:#31323C;" points="302.041,483.289 301.586,437.26 297.664,437.431 297.918,483.289 				"/>
				<path style="fill:#31323C;" d="M394.277,562.738c-1.234-14.806-15.512-42.341-25.936-62.447
					c-5.966-11.505-10.677-20.592-11.947-25.095c-2.037-7.22,1.387-17.598,4.697-27.635c2.667-8.084,5.186-15.719,4.908-21.422
					c-0.653-13.384-6.467-21.963-10.348-22.221c-1.266-0.074-2.862,1.598-4.864,3.729c-4.018,4.277-10.09,10.741-21.961,12.012
					c-4.685,0.505-8.912-0.809-12.559-3.896c-0.753-0.638-1.466-1.338-2.142-2.092c-1.802-2.008-5.123-0.714-5.074,1.983
					l0.229,12.668v-0.003l0.164,7.654c0.011,0.524-0.398,0.961-0.922,0.984l-5.97,0.26l0.455,46.07h3.197
					c1.989,0,3.601,1.612,3.601,3.602v18.825c0,1.989-1.612,3.601-3.601,3.601h-2.94l0.129,13.06l4.457-0.026
					c1.935-0.011,3.504,1.566,3.481,3.502l-0.017,1.423l-0.096,8.975l-0.05,4.627c-0.02,1.881-1.539,3.401-3.42,3.424l-33.716,0.401
					c-1.883,0.022-3.439-1.465-3.5-3.347l-0.168-5.105l-0.289-8.975l-0.038-1.15c-0.064-1.947,1.491-3.563,3.439-3.575l5.026-0.029
					l0.056-13.205h-2.868c-1.989,0-3.601-1.613-3.601-3.601v-18.825c0-1.989,1.612-3.602,3.601-3.602h2.978l0.19-45.04l-3.594,0.156
					c-0.014,0.001-0.028,0.001-0.042,0.001c-0.249,0-0.489-0.096-0.669-0.27c-0.19-0.184-0.297-0.437-0.295-0.702l0.068-9.1
					l0.09-38.579c0.005-2.347-2.637-3.75-4.555-2.399c-3.042,2.143-6.516,3.897-10.102,4.346c-0.039,0.003-0.078,0.005-0.117,0.008
					c-24.276,0.279-34.782-34.633-38.236-46.104c-0.498-1.654-0.968-3.215-1.146-3.514c-1.015-1.624-2.471-1.131-2.851-0.968
					c-0.469,0.376-3.226,2.696-5.788,7.296c-2.583,4.637-5.492,12.612-4.683,24.265c1.427,20.544,9.078,32.658,15.829,43.347
					c6.157,9.747,11.473,18.164,11.165,30.65c-0.554,22.43-10.167,36.502-19.464,50.11c-8.161,11.947-15.87,23.231-17.493,39.613
					c-2.794,28.196,7.957,45.753,27.412,61.542c7.474,6.066,17.299,8.439,26.727,6.502c9.406-1.933,18.668-2.772,27.683-2.772
					c25.128,0,48.371,6.508,67.656,13.967c14.88,5.755,31.965-0.033,39.665-14.007C392.627,589.816,395.329,575.366,394.277,562.738
					z M267.734,483.289h0.754c0.923,0,1.671,0.748,1.671,1.671v22.686c0,0.923-0.748,1.671-1.671,1.671h-0.754
					c-0.923,0-1.671-0.748-1.671-1.671V484.96C266.063,484.037,266.811,483.289,267.734,483.289z M314.68,509.317h-1.277
					c-0.923,0-1.671-0.748-1.671-1.671V484.96c0-0.923,0.748-1.671,1.671-1.671h1.277c0.923,0,1.671,0.748,1.671,1.671v22.686
					C316.351,508.569,315.603,509.317,314.68,509.317z"/>
				<polygon style="fill:#31323C;" points="279.465,522.516 283.112,522.495 283.133,509.317 279.52,509.317 				"/>
				<polygon style="fill:#31323C;" points="302.427,522.383 302.298,509.317 298.062,509.317 298.135,522.408 				"/>
				<polygon style="fill:#31323C;" points="284.076,522.49 287.544,522.469 287.543,509.317 284.097,509.317 				"/>
				<polygon style="fill:#31323C;" points="291.904,522.444 291.875,509.317 288.507,509.317 288.508,522.464 				"/>
				<polygon style="fill:#31323C;" points="284.14,483.289 287.541,483.289 287.538,437.871 284.215,438.016 				"/>
				<polygon style="fill:#31323C;" points="288.502,437.829 288.505,483.289 291.816,483.289 291.713,437.69 				"/>
				<polygon style="fill:#31323C;" points="296.954,483.289 296.7,437.473 292.677,437.648 292.78,483.289 				"/>
				<polygon style="fill:#31323C;" points="297.171,522.414 297.098,509.317 292.839,509.317 292.868,522.439 				"/>
				<polygon style="fill:#31323C;" points="283.251,438.058 279.82,438.207 279.63,483.289 283.176,483.289 				"/>
				<polygon style="fill:#31323C;" points="288.495,331.316 288.495,340.011 291.493,340.016 291.473,331.32 				"/>
				<polygon style="fill:#31323C;" points="288.493,320.221 288.494,329.388 291.469,329.393 291.448,320.225 				"/>
				<polygon style="fill:#31323C;" points="280.491,279.334 283.512,279.339 283.532,267.106 280.543,267.101 				"/>
				<polygon style="fill:#31323C;" points="299.359,114.079 299.595,138.004 302.1,137.996 301.667,114.079 				"/>
				<polygon style="fill:#31323C;" points="288.495,341.939 288.496,349.921 291.515,349.925 291.497,341.944 				"/>
				<polygon style="fill:#31323C;" points="283.393,351.841 280.185,351.836 280.15,360.059 283.379,360.064 				"/>
				<polygon style="fill:#31323C;" points="280.551,265.173 283.535,265.178 283.557,252 280.607,251.995 				"/>
				<polygon style="fill:#31323C;" points="280.615,250.066 283.56,250.072 283.583,236.335 280.673,236.33 				"/>
				<polygon style="fill:#31323C;" points="288.492,294.964 288.493,306.02 291.416,306.025 291.391,294.969 				"/>
				<path style="fill:#31323C;" d="M291.428,311.709l-0.008-3.755l-2.927-0.005l0.001,10.344l2.95,0.005l-0.008-3.587
					c-0.648-0.195-1.124-0.79-1.124-1.502C290.312,312.499,290.784,311.906,291.428,311.709z"/>
				<polygon style="fill:#31323C;" points="280.28,329.375 283.43,329.38 283.445,320.212 280.318,320.207 				"/>
				<polygon style="fill:#31323C;" points="280.235,339.998 283.412,340.003 283.427,331.308 280.272,331.303 				"/>
				<polygon style="fill:#31323C;" points="280.327,318.279 283.448,318.284 283.465,307.94 280.37,307.935 				"/>
				<polygon style="fill:#31323C;" points="280.193,349.908 283.396,349.913 283.409,341.931 280.227,341.926 				"/>
				<polygon style="fill:#31323C;" points="283.376,361.992 280.142,361.987 280.112,369.217 283.364,369.222 				"/>
				<polygon style="fill:#31323C;" points="280.378,306.007 283.468,306.012 283.487,294.956 280.425,294.951 				"/>
				<polygon style="fill:#31323C;" points="288.496,351.849 288.496,360.072 291.538,360.076 291.519,351.853 				"/>
				<polygon style="fill:#31323C;" points="288.497,362 288.497,369.23 291.558,369.234 291.542,362.004 				"/>
				<polygon style="fill:#31323C;" points="280.433,293.023 283.49,293.028 283.509,281.267 280.483,281.262 				"/>
				<polygon style="fill:#31323C;" points="301.504,331.337 301.59,340.032 305.753,340.039 305.596,331.343 				"/>
				<polygon style="fill:#31323C;" points="301.145,294.985 301.255,306.041 305.139,306.048 304.939,294.991 				"/>
				<path style="fill:#31323C;" d="M301.274,307.97l0.036,3.676c0.81,0.065,1.449,0.736,1.449,1.563c0,0.816-0.623,1.48-1.418,1.56
					l0.035,3.545l3.985,0.006l-0.187-10.344L301.274,307.97z"/>
				<polygon style="fill:#31323C;" points="301.01,281.296 301.126,293.057 304.904,293.063 304.691,281.302 				"/>
				<path style="fill:#31323C;" d="M301.609,341.96l0.027,2.712c0.005,0,0.009-0.001,0.014-0.001c0.87,0,1.576,0.706,1.576,1.576
					c0,0.864-0.697,1.564-1.559,1.574l0.021,2.121l4.244,0.007l-0.144-7.981L301.609,341.96z"/>
				<polygon style="fill:#31323C;" points="301.395,320.241 301.485,329.409 305.561,329.415 305.395,320.248 				"/>
				<path style="fill:#31323C;" d="M300.87,267.136l0.051,5.179c0.563,0.24,0.958,0.799,0.958,1.449c0,0.639-0.382,1.187-0.93,1.434
					l0.041,4.17l3.665,0.006l-0.221-12.233L300.87,267.136z"/>
				<polygon style="fill:#31323C;" points="280.755,216.809 283.615,216.814 283.641,201.146 280.821,201.143 				"/>
				<polygon style="fill:#31323C;" points="300.029,181.902 300.2,199.243 303.207,199.247 302.894,181.906 				"/>
				<path style="fill:#31323C;" d="M299.831,161.899l0.08,8.12c0.284,0.285,0.461,0.678,0.461,1.113
					c0,0.423-0.168,0.804-0.439,1.087l0.077,7.755l2.849,0.004l-0.327-18.075L299.831,161.899z"/>
				<polygon style="fill:#31323C;" points="301.707,351.869 301.788,360.092 306.116,360.099 305.967,351.876 				"/>
				<polygon style="fill:#31323C;" points="299.615,139.932 299.812,159.971 302.497,159.975 302.135,139.924 				"/>
				<path style="fill:#31323C;" d="M300.219,201.171l0.07,7.143c0.495,0.266,0.836,0.782,0.836,1.383
					c0,0.59-0.328,1.099-0.809,1.368l0.057,5.778l3.152,0.006l-0.284-15.675L300.219,201.171z"/>
				<path style="fill:#31323C;" d="M300.567,236.365l0.061,6.163c0.585,0.23,1.001,0.797,1.001,1.464
					c0,0.656-0.402,1.218-0.972,1.454l0.046,4.656l3.425,0.006l-0.248-13.737L300.567,236.365z"/>
				<polygon style="fill:#31323C;" points="300.393,218.773 300.548,234.437 303.844,234.443 303.561,218.778 				"/>
				<polygon style="fill:#31323C;" points="300.721,252.03 300.852,265.208 304.4,265.214 304.162,252.036 				"/>
				<polygon style="fill:#31323C;" points="295.872,114.079 296.005,138.015 298.631,138.007 298.395,114.079 				"/>
				<polygon style="fill:#31323C;" points="288.485,201.154 288.486,216.823 291.214,216.828 291.179,201.158 				"/>
				<polygon style="fill:#31323C;" points="288.486,218.751 288.488,234.416 291.254,234.421 291.219,218.756 				"/>
				<polygon style="fill:#31323C;" points="288.482,161.882 288.484,179.956 291.131,179.96 291.09,161.885 				"/>
				<polygon style="fill:#31323C;" points="288.484,181.884 288.485,199.226 291.175,199.23 291.135,181.888 				"/>
				<polygon style="fill:#31323C;" points="288.49,267.115 288.491,279.347 291.355,279.352 291.328,267.119 				"/>
				<polygon style="fill:#31323C;" points="288.489,252.009 288.49,265.187 291.323,265.191 291.294,252.013 				"/>
				<polygon style="fill:#31323C;" points="288.488,236.344 288.488,250.081 291.289,250.086 291.258,236.348 				"/>
				<polygon style="fill:#31323C;" points="288.481,139.967 288.482,159.954 291.086,159.958 291.041,139.958 				"/>
				<path style="fill:#31323C;" d="M304.276,379.742l-0.976-0.001l-0.978-0.001l-0.34,0l0.015,1.529
					c0.191,0.043,0.369,0.119,0.526,0.224c0.423,0.283,0.702,0.764,0.702,1.31c0,0.392-0.149,0.747-0.386,1.023
					c-0.21,0.243-0.49,0.422-0.812,0.502l0.012,1.195l1.061,0.001l0.997,0.001l0.991,0.002l1.486,0.002l-0.104-5.784
					L304.276,379.742z"/>
				<polygon style="fill:#31323C;" points="306.611,387.457 305.43,387.455 304.436,387.454 303.434,387.452 302.059,387.45 
					302.119,393.591 304.754,393.595 305.774,393.596 306.722,393.597 306.717,393.337 				"/>
				<polygon style="fill:#31323C;" points="301.898,371.178 301.942,375.643 301.951,376.607 301.961,377.571 301.963,377.81 
					302.138,377.811 303.109,377.812 304.079,377.814 306.436,377.817 306.316,371.185 				"/>
				<polygon style="fill:#31323C;" points="283.784,114.079 281.189,114.079 281.087,138.062 283.745,138.053 				"/>
				<polygon style="fill:#31323C;" points="288.491,281.275 288.492,293.036 291.386,293.041 291.36,281.28 				"/>
				<path style="fill:#31323C;" d="M301.807,362.02l0.02,2.014c0.786,0.089,1.398,0.748,1.398,1.558
					c0,0.799-0.597,1.452-1.367,1.555l0.021,2.104l4.403,0.007l-0.131-7.23L301.807,362.02z"/>
				<polygon style="fill:#31323C;" points="280.681,234.402 283.586,234.407 283.612,218.742 280.747,218.737 				"/>
				<polygon style="fill:#31323C;" points="292.143,201.159 292.178,216.83 295.477,216.835 295.391,201.164 				"/>
				<polygon style="fill:#31323C;" points="284.376,340.004 287.531,340.009 287.53,331.314 284.391,331.309 				"/>
				<polygon style="fill:#31323C;" points="284.55,234.409 287.524,234.414 287.522,218.749 284.576,218.744 				"/>
				<polygon style="fill:#31323C;" points="292.054,161.887 292.095,179.962 295.273,179.966 295.173,161.892 				"/>
				<polygon style="fill:#31323C;" points="292.099,181.89 292.138,199.231 295.38,199.236 295.284,181.894 				"/>
				<polygon style="fill:#31323C;" points="284.64,179.951 287.52,179.955 287.518,161.88 284.67,161.876 				"/>
				<polygon style="fill:#31323C;" points="284.524,250.074 287.525,250.079 287.524,236.342 284.547,236.337 				"/>
				<polygon style="fill:#31323C;" points="284.579,216.816 287.522,216.821 287.521,201.152 284.605,201.148 				"/>
				<polygon style="fill:#31323C;" points="284.412,318.286 287.53,318.291 287.529,307.947 284.429,307.942 				"/>
				<polygon style="fill:#31323C;" points="284.5,265.18 287.526,265.185 287.525,252.007 284.521,252.001 				"/>
				<polygon style="fill:#31323C;" points="284.394,329.381 287.53,329.386 287.53,320.219 284.409,320.214 				"/>
				<polygon style="fill:#31323C;" points="284.432,306.014 287.529,306.019 287.528,294.962 284.451,294.957 				"/>
				<polygon style="fill:#31323C;" points="284.454,293.029 287.528,293.034 287.527,281.273 284.473,281.268 				"/>
				<polygon style="fill:#31323C;" points="284.476,279.341 287.527,279.345 287.526,267.113 284.496,267.108 				"/>
				<polygon style="fill:#31323C;" points="284.608,199.22 287.521,199.224 287.52,181.883 284.637,181.879 				"/>
				<polygon style="fill:#31323C;" points="296.101,329.4 296.05,320.233 292.412,320.227 292.432,329.394 				"/>
				<polygon style="fill:#31323C;" points="296.16,340.023 296.112,331.328 292.437,331.322 292.456,340.017 				"/>
				<polygon style="fill:#31323C;" points="292.183,218.758 292.218,234.422 295.575,234.428 295.488,218.764 				"/>
				<polygon style="fill:#31323C;" points="296.215,349.933 296.171,341.951 292.461,341.945 292.479,349.927 				"/>
				<polygon style="fill:#31323C;" points="296.322,369.242 296.282,362.012 292.506,362.006 292.522,369.236 				"/>
				<polygon style="fill:#31323C;" points="296.271,360.084 296.226,351.861 292.483,351.855 292.502,360.078 				"/>
				<polygon style="fill:#31323C;" points="292.258,252.015 292.287,265.193 295.745,265.199 295.673,252.021 				"/>
				<polygon style="fill:#31323C;" points="292.223,236.35 292.253,250.087 295.662,250.093 295.586,236.356 				"/>
				<polygon style="fill:#31323C;" points="292.292,267.121 292.319,279.353 295.824,279.359 295.756,267.127 				"/>
				<polygon style="fill:#31323C;" points="292.324,281.281 292.35,293.042 295.9,293.048 295.835,281.287 				"/>
				<polygon style="fill:#31323C;" points="292.355,294.97 292.38,306.027 295.972,306.033 295.911,294.976 				"/>
				<path style="fill:#31323C;" d="M292.399,314.691l0.008,3.608l3.633,0.006l-0.057-10.344l-3.599-0.006l0.009,3.768
					c0.621,0.211,1.071,0.793,1.071,1.485C293.463,313.898,293.017,314.478,292.399,314.691z"/>
				<polygon style="fill:#31323C;" points="296.799,281.289 296.864,293.05 300.162,293.055 300.046,281.294 				"/>
				<polygon style="fill:#31323C;" points="296.452,218.765 296.539,234.43 299.583,234.435 299.429,218.771 				"/>
				<polygon style="fill:#31323C;" points="297.014,320.234 297.065,329.402 300.521,329.407 300.431,320.24 				"/>
				<path style="fill:#31323C;" d="M299.957,272.229l-0.05-5.095l-3.186-0.005l0.068,12.232l3.239,0.005l-0.04-4.059
					c-0.718-0.146-1.259-0.782-1.259-1.544C298.728,273.013,299.254,272.388,299.957,272.229z"/>
				<polygon style="fill:#31323C;" points="296.636,252.023 296.71,265.201 299.887,265.206 299.757,252.028 				"/>
				<polygon style="fill:#31323C;" points="280.829,199.214 283.644,199.219 283.673,181.877 280.902,181.873 				"/>
				<path style="fill:#31323C;" d="M300.348,311.877l-0.039-3.909l-3.363-0.005l0.057,10.344l3.408,0.006l-0.037-3.758
					c-0.458-0.276-0.767-0.773-0.767-1.346C299.608,312.646,299.905,312.156,300.348,311.877z"/>
				<polygon style="fill:#31323C;" points="296.874,294.978 296.936,306.034 300.29,306.04 300.181,294.983 				"/>
				<path style="fill:#31323C;" d="M299.663,242.471l-0.06-6.107l-3.053-0.005l0.076,13.737l3.112,0.005l-0.045-4.578
					c-0.696-0.163-1.216-0.785-1.216-1.53C298.477,243.257,298.982,242.645,299.663,242.471z"/>
				<polygon style="fill:#31323C;" points="280.995,159.942 283.709,159.946 283.742,139.981 281.079,139.99 				"/>
				<polygon style="fill:#31323C;" points="280.91,179.945 283.676,179.949 283.706,161.874 280.987,161.87 				"/>
				<polygon style="fill:#31323C;" points="296.016,139.943 296.126,159.965 298.848,159.969 298.65,139.935 				"/>
				<path style="fill:#31323C;" d="M298.797,169.557c0.05,0,0.098,0.01,0.146,0.015l-0.076-7.674l-2.73-0.004l0.1,18.075
					l2.809,0.004l-0.072-7.282c-0.059,0.007-0.117,0.018-0.177,0.018c-0.87,0-1.576-0.706-1.576-1.576
					C297.221,170.262,297.926,169.557,298.797,169.557z"/>
				<path style="fill:#31323C;" d="M299.324,208.145l-0.069-6.975l-2.9-0.004l0.087,15.672l2.968,0.005l-0.055-5.589
					c-0.777-0.097-1.38-0.753-1.38-1.556C297.975,208.905,298.562,208.255,299.324,208.145z"/>
				<polygon style="fill:#31323C;" points="296.248,181.896 296.344,199.237 299.236,199.241 299.065,181.9 				"/>
				<polygon style="fill:#31323C;" points="300.824,360.091 300.743,351.868 297.19,351.862 297.235,360.085 				"/>
				<polygon style="fill:#31323C;" points="292.005,139.956 292.05,159.959 295.162,159.964 295.051,139.946 				"/>
				<polygon style="fill:#31323C;" points="291.946,114.079 292,138.028 295.041,138.018 294.908,114.079 				"/>
				<polygon style="fill:#31323C;" points="284.318,375.643 284.316,376.607 284.314,377.571 284.314,377.783 287.534,377.788 
					287.534,377.571 287.534,376.607 287.534,375.643 287.533,371.156 284.325,371.151 				"/>
				<polygon style="fill:#31323C;" points="284.343,360.065 287.533,360.07 287.532,351.847 284.357,351.842 				"/>
				<polygon style="fill:#31323C;" points="284.328,369.223 287.533,369.228 287.533,361.998 284.34,361.993 				"/>
				<polygon style="fill:#31323C;" points="288.479,114.079 288.481,138.039 291.036,138.031 290.982,114.079 				"/>
				<polygon style="fill:#31323C;" points="300.626,340.03 300.54,331.335 297.076,331.33 297.124,340.025 				"/>
				<path style="fill:#31323C;" d="M300.915,369.249l-0.023-2.284c-0.485-0.269-0.818-0.78-0.818-1.373
					c0-0.583,0.32-1.086,0.791-1.359l-0.022-2.215l-3.597-0.006l0.04,7.23L300.915,369.249z"/>
				<polygon style="fill:#31323C;" points="284.748,114.079 284.709,138.05 287.517,138.041 287.515,114.079 				"/>
				<path style="fill:#31323C;" d="M300.724,349.94l-0.024-2.444c-0.378-0.288-0.625-0.738-0.625-1.25
					c0-0.5,0.238-0.941,0.601-1.229l-0.03-3.059l-3.51-0.006l0.044,7.982L300.724,349.94z"/>
				<polygon style="fill:#31323C;" points="284.36,349.914 287.532,349.919 287.531,341.938 284.373,341.932 				"/>
				<polygon style="fill:#31323C;" points="284.673,159.948 287.518,159.952 287.517,139.97 284.706,139.978 				"/>
				<polygon style="fill:#31323C;" points="276.483,329.369 279.316,329.373 279.354,320.206 276.504,320.201 				"/>
				<polygon style="fill:#31323C;" points="276.538,306.001 279.414,306.006 279.461,294.949 276.564,294.944 				"/>
				<polygon style="fill:#31323C;" points="276.509,318.273 279.363,318.278 279.406,307.934 276.533,307.929 				"/>
				<polygon style="fill:#31323C;" points="276.6,279.327 279.527,279.332 279.579,267.1 276.628,267.094 				"/>
				<polygon style="fill:#31323C;" points="276.633,265.167 279.587,265.172 279.642,251.993 276.693,251.988 276.697,250.06 
					279.651,250.065 279.708,236.328 276.819,236.323 276.822,234.395 279.717,234.4 279.783,218.735 276.954,218.73 
					276.958,216.802 279.791,216.807 279.857,201.141 277.099,201.137 277.102,199.209 279.865,199.213 279.938,181.871 
					277.253,181.868 277.256,179.94 279.947,179.943 280.023,161.869 277.407,161.865 277.41,159.937 280.031,159.941 
					280.115,139.993 277.585,140.001 277.579,138.072 280.123,138.065 280.224,114.079 276.986,114.079 				"/>
				<polygon style="fill:#31323C;" points="276.568,293.016 279.469,293.021 279.519,281.26 276.595,281.255 				"/>
				<polygon style="fill:#31323C;" points="276.411,360.053 279.186,360.057 279.221,351.834 276.431,351.83 				"/>
				<polygon style="fill:#31323C;" points="276.39,369.211 279.148,369.215 279.178,361.985 276.407,361.981 				"/>
				<polygon style="fill:#31323C;" points="276.435,349.902 279.229,349.906 279.263,341.924 276.454,341.92 				"/>
				<polygon style="fill:#31323C;" points="276.458,339.992 279.271,339.996 279.307,331.302 276.479,331.297 				"/>
				<polygon style="fill:#31323C;" points="276.37,377.771 277.355,377.773 278.623,377.775 279.111,377.775 279.114,377.174 
					279.12,375.751 279.139,371.143 276.385,371.139 				"/>
				<path style="fill:#31323C;" d="M291.664,416.028l-0.001-0.638l-3.162-0.005l0,4.457l3.172,0.006l-0.002-0.722
					c-0.746-0.124-1.317-0.768-1.317-1.549C290.354,416.798,290.921,416.155,291.664,416.028z"/>
				<path style="fill:#31323C;" d="M301.223,400.462l-0.011-1.142c-0.656-0.191-1.137-0.789-1.137-1.506
					c0-0.706,0.467-1.296,1.107-1.497l-0.008-0.801l-3.742-0.006l0.027,4.945L301.223,400.462z"/>
				<polygon style="fill:#31323C;" points="301.351,413.476 301.307,409.013 297.507,409.008 297.531,413.47 				"/>
				<polygon style="fill:#31323C;" points="301.288,407.085 301.242,402.391 297.47,402.385 297.496,407.08 				"/>
				<polygon style="fill:#31323C;" points="302.206,402.392 302.252,407.086 306.966,407.094 306.881,402.399 				"/>
				<path style="fill:#31323C;" d="M301.414,419.866l-0.007-0.738c-0.754-0.117-1.333-0.764-1.333-1.551
					c0-0.776,0.563-1.418,1.302-1.548l-0.006-0.624l-3.828-0.006l0.025,4.46L301.414,419.866z"/>
				<polygon style="fill:#31323C;" points="302.271,409.014 302.315,413.478 307.081,413.485 307,409.022 				"/>
				<polygon style="fill:#31323C;" points="288.5,408.994 288.5,413.457 291.658,413.462 291.648,408.999 				"/>
				<path style="fill:#31323C;" d="M307.116,415.413l-4.782-0.007l0.008,0.762c0.521,0.257,0.883,0.788,0.883,1.409
					c0,0.609-0.35,1.132-0.856,1.394l0.009,0.896l4.818,0.008L307.116,415.413z"/>
				<polygon style="fill:#31323C;" points="288.499,402.371 288.5,407.066 291.644,407.071 291.633,402.376 				"/>
				<polygon style="fill:#31323C;" points="276.317,400.425 279.016,400.429 279.037,395.484 276.329,395.48 				"/>
				<polygon style="fill:#31323C;" points="284.301,385.495 287.534,385.5 287.534,379.716 284.311,379.711 				"/>
				<polygon style="fill:#31323C;" points="284.288,393.564 287.535,393.569 287.534,387.428 284.298,387.423 				"/>
				<polygon style="fill:#31323C;" points="284.277,400.437 287.535,400.442 287.535,395.497 284.285,395.492 				"/>
				<polygon style="fill:#31323C;" points="276.333,393.552 279.045,393.556 279.071,387.415 276.348,387.411 				"/>
				<polygon style="fill:#31323C;" points="284.233,427.056 287.537,427.056 287.537,421.769 284.242,421.763 				"/>
				<polygon style="fill:#31323C;" points="296.642,427.056 296.613,421.785 292.641,421.778 292.653,427.056 				"/>
				<polygon style="fill:#31323C;" points="288.501,421.771 288.501,427.056 291.689,427.056 291.677,421.777 				"/>
				<polygon style="fill:#31323C;" points="296.412,385.513 296.38,379.73 292.546,379.724 292.559,385.508 				"/>
				<polygon style="fill:#31323C;" points="276.272,419.822 278.934,419.826 278.953,415.371 276.282,415.367 				"/>
				<polygon style="fill:#31323C;" points="283.299,408.986 279.944,408.982 279.925,413.445 283.291,413.45 				"/>
				<polygon style="fill:#31323C;" points="283.31,402.364 279.972,402.359 279.952,407.054 283.302,407.059 				"/>
				<polygon style="fill:#31323C;" points="283.288,415.378 279.917,415.372 279.898,419.828 283.281,419.834 				"/>
				<polygon style="fill:#31323C;" points="283.278,421.762 279.89,421.756 279.868,427.056 283.269,427.056 				"/>
				<polygon style="fill:#31323C;" points="283.321,395.491 280.001,395.486 279.98,400.431 283.313,400.436 				"/>
				<polygon style="fill:#31323C;" points="276.302,407.048 278.988,407.052 279.008,402.357 276.313,402.353 				"/>
				<polygon style="fill:#31323C;" points="276.287,413.44 278.961,413.443 278.98,408.98 276.297,408.976 				"/>
				<polygon style="fill:#31323C;" points="276.255,427.056 278.904,427.056 278.926,421.754 276.267,421.75 				"/>
				<polygon style="fill:#31323C;" points="301.486,427.056 301.434,421.793 297.577,421.787 297.607,427.056 				"/>
				
					<rect x="283.664" y="415.966" transform="matrix(0.0017 -1 1 0.0017 -132.2118 702.7788)" style="fill:#31323C;" width="4.457" height="3.288"/>
				<polygon style="fill:#31323C;" points="296.567,413.469 296.542,409.006 292.612,409 292.622,413.464 				"/>
				<polygon style="fill:#31323C;" points="283.35,377.571 283.352,376.607 283.354,375.643 283.361,371.15 280.103,371.145 
					280.084,375.643 280.08,376.607 280.076,377.571 280.076,377.777 283.35,377.782 				"/>
				<path style="fill:#31323C;" d="M292.635,418.979l0.002,0.871l3.966,0.007l-0.025-4.46l-3.951-0.006l0.002,0.78
					c0.518,0.258,0.877,0.787,0.877,1.405C293.505,418.192,293.149,418.72,292.635,418.979z"/>
				<polygon style="fill:#31323C;" points="301.155,393.589 301.094,387.449 297.387,387.443 297.421,393.584 				"/>
				<polygon style="fill:#31323C;" points="283.347,379.71 280.068,379.705 280.043,385.489 283.337,385.494 				"/>
				<polygon style="fill:#31323C;" points="283.334,387.422 280.035,387.417 280.009,393.558 283.324,393.563 				"/>
				<polygon style="fill:#31323C;" points="288.499,395.499 288.499,400.444 291.629,400.448 291.618,395.503 				"/>
				<polygon style="fill:#31323C;" points="296.532,407.078 296.506,402.383 292.597,402.378 292.608,407.072 				"/>
				<path style="fill:#31323C;" d="M301.075,385.521l-0.012-1.259c-0.579-0.233-0.988-0.798-0.988-1.46
					c0-0.652,0.396-1.211,0.96-1.451l-0.016-1.615l-3.674-0.005l0.032,5.784L301.075,385.521z"/>
				<polygon style="fill:#31323C;" points="307.232,421.803 302.398,421.795 302.449,427.056 307.327,427.056 				"/>
				<polygon style="fill:#31323C;" points="288.498,379.718 288.498,385.502 291.595,385.506 291.582,379.722 				"/>
				<polygon style="fill:#31323C;" points="284.255,413.451 287.536,413.456 287.536,408.993 284.263,408.988 				"/>
				<polygon style="fill:#31323C;" points="284.266,407.06 287.536,407.065 287.535,402.37 284.274,402.365 				"/>
				<polygon style="fill:#31323C;" points="288.498,387.43 288.499,393.57 291.613,393.575 291.599,387.434 				"/>
				<polygon style="fill:#31323C;" points="296.457,393.582 296.423,387.441 292.564,387.436 292.577,393.576 				"/>
				<polygon style="fill:#31323C;" points="296.495,400.455 296.468,395.51 292.582,395.504 292.593,400.45 				"/>
				<polygon style="fill:#31323C;" points="292.539,376.607 292.541,377.571 292.542,377.796 296.37,377.802 296.368,377.571 
					296.363,376.607 296.358,375.643 296.333,371.17 292.527,371.164 292.537,375.643 				"/>
				<polygon style="fill:#31323C;" points="276.364,380.322 276.361,381.735 276.352,385.484 279.079,385.487 279.103,379.703 
					278.247,379.702 276.942,379.7 276.365,379.699 				"/>
				<path style="fill:#31323C;" d="M306.757,395.526l-0.469-0.001l-1.023-0.001l-3.127-0.005l0.008,0.808
					c0.626,0.209,1.08,0.792,1.08,1.488c0,0.685-0.44,1.262-1.05,1.479l0.012,1.17l4.632,0.007h0.027l-0.059-3.241L306.757,395.526z
					"/>
				<polygon style="fill:#31323C;" points="297.327,376.607 297.332,377.571 297.334,377.803 300.999,377.809 300.997,377.571 
					300.987,376.607 300.978,375.643 300.934,371.177 297.297,371.171 297.322,375.643 				"/>
				<polygon style="fill:#31323C;" points="291.575,376.607 291.573,375.643 291.563,371.162 288.497,371.158 288.498,375.643 
					288.498,376.607 288.498,377.571 288.498,377.79 291.578,377.794 291.577,377.571 				"/>
				<path style="fill:#31323C;" d="M302.51,530.858l-0.035-3.582h-4.313l0.02,3.637c0.299,0.183,0.509,0.498,0.509,0.875
					c0,0.576-0.467,1.043-1.043,1.043c-0.576,0-1.043-0.467-1.043-1.043c0-0.421,0.253-0.78,0.612-0.944l-0.02-3.567h-4.319
					l0.008,3.565c0.309,0.181,0.527,0.503,0.527,0.887c0,0.576-0.467,1.043-1.043,1.043c-0.576,0-1.043-0.467-1.043-1.043
					c0-0.413,0.245-0.764,0.594-0.932l-0.008-3.52h-3.407l0,3.413c0.349,0.169,0.594,0.519,0.594,0.932
					c0,0.576-0.467,1.043-1.043,1.043c-0.576,0-1.043-0.467-1.043-1.043c0-0.384,0.218-0.706,0.527-0.887l0-3.458h-3.476
					l-0.006,3.511c0.338,0.173,0.576,0.514,0.576,0.92c0,0.576-0.467,1.043-1.043,1.043c-0.576,0-1.043-0.467-1.043-1.043
					c0-0.392,0.226-0.721,0.546-0.899l0.006-3.532h-3.66l-0.014,3.466c0.384,0.154,0.658,0.526,0.658,0.965
					c0,0.576-0.467,1.043-1.043,1.043c-0.576,0-1.043-0.467-1.043-1.043c0-0.357,0.191-0.656,0.464-0.844l0.015-3.587h-4.401
					l0.233,8.975h32.916l0.078-8.975h-3.867l0.034,3.468c0.381,0.155,0.652,0.526,0.652,0.964c0,0.576-0.467,1.043-1.043,1.043
					c-0.576,0-1.043-0.467-1.043-1.043C302.039,531.347,302.233,531.046,302.51,530.858z"/>
				<path style="fill:#31323C;" d="M288.677,32.446l1.74-0.5c0.858,1.679,1.963,3.359,4.068,3.359c0.201,0,0.412-0.015,0.633-0.047
					c1.265-0.186,2.229-0.762,2.786-1.665c0.666-1.079,0.705-2.53,0.116-4.312c-1.307-3.952-3.454-5.527-6.386-4.678
					c-0.792,0.23-1.372,0.71-1.724,1.429c-0.578,1.181-0.4,2.79-0.126,3.991l-1.779,0.469
					C288.223,31.121,288.447,31.77,288.677,32.446z M290.777,26.454c0.231-0.471,0.599-0.773,1.126-0.925
					c2.404-0.698,4.056,0.592,5.202,4.054c0.495,1.499,0.488,2.677-0.021,3.503c-0.51,0.826-1.426,1.117-2.105,1.216
					c-1.522,0.223-2.466-0.461-3.612-2.63c-0.064-0.121-0.127-0.229-0.192-0.36c-0.042-0.111-0.274-0.734-0.457-1.536
					C290.479,28.731,290.323,27.38,290.777,26.454z"/>
				<path style="fill:#31323C;" d="M276.642,105.637c0.116,0.159,0.181,0.349,0.185,0.546l0.139,5.968h3.267l0.323-76.495
					c-0.565-0.229-0.949-0.789-0.978-1.428c-0.037-0.831,0.734-1.539,1.539-1.539h0.08c0.863,0,1.502,0.705,1.539,1.539
					c0.032,0.719-0.541,1.344-1.217,1.5l-0.323,76.423h2.591l0.107-64.883c-1.27-0.61-1.044-2.931,0.677-2.931
					c1.882,0,1.973,2.765,0.287,3.05l-0.107,64.764h2.763l-0.004-50.521c-0.502-0.255-0.837-0.779-0.864-1.374
					c-0.037-0.831,0.734-1.54,1.539-1.54h0.08c0.863,0,1.502,0.705,1.539,1.54c0.034,0.759-0.607,1.408-1.33,1.517l0.003,50.378
					h2.499l-0.091-40.395c-1.087-0.721-0.81-2.838,0.834-2.838c1.938,0,1.974,2.928,0.13,3.066l0.091,40.166h2.955l-0.152-27.412
					c-1.182-0.666-0.934-2.887,0.751-2.887c1.908,0,1.973,2.839,0.214,3.058l0.151,27.241h2.515l-0.131-13.246
					c-1.236-0.633-1.001-2.914,0.706-2.914c1.892,0,1.972,2.792,0.26,3.053l0.129,13.107h2.406c0.219-1.507,0.934-4.618,3.25-7.742
					c1.708-2.304,2.372-5.211,1.609-7.975c-0.035-0.129-0.071-0.258-0.108-0.39c-0.177-0.64-0.366-1.312-0.565-2.015
					c-0.906-3.197-2.027-7.015-3.285-11.206c-0.198-0.66-0.399-1.326-0.603-2.003c-1.05-3.476-2.181-7.168-3.35-10.943
					c-0.206-0.664-0.413-1.331-0.621-2c-1.041-3.346-2.106-6.737-3.167-10.085c-0.213-0.671-0.425-1.34-0.637-2.007
					c-1.168-3.672-2.324-7.268-3.43-10.664c-0.219-0.671-0.435-1.332-0.649-1.987c-1.219-3.724-2.363-7.165-3.379-10.151
					c-0.235-0.69-0.463-1.356-0.683-1.995c-0.803-2.328-1.506-4.306-2.077-5.828c-0.556-1.484-1.596-2.742-2.937-3.587
					c-1.96-1.236-3.701-2.349-5.233-3.329c-0.914-0.584-1.798-1.15-2.629-1.676c-1.861-1.178-4.242,0.369-3.911,2.546
					c1.806,11.878,5.168,36.452,3.699,46.186c-1.963,8.228-3.938,14.686-5.407,19.048c-1.29,3.832-0.653,8.048,1.731,11.314
					L276.642,105.637z"/>
				<path style="fill:#31323C;" d="M293.858,33.465c1.366,0.362,2.048,0.281,2.691-0.964c0.643-1.245-0.603-3.615-0.643-3.776
					c0,0,0.161,2.892-1.205,3.414c-0.945,0.361-1.973-0.272-2.525-0.7c-0.246-0.191-0.407-0.345-0.407-0.345
					s0.087,0.163,0.226,0.397C292.364,32.114,293.135,33.274,293.858,33.465z"/>
				<path style="fill:#31323C;" d="M295.669,36.95c-0.792,0.23-1.372,0.71-1.724,1.429c-0.55,1.122-0.415,2.63-0.165,3.807
					l-1.704,0.45c0.21,0.641,0.422,1.289,0.636,1.946l1.644-0.473c0.871,1.738,1.982,3.543,4.163,3.543
					c0.202,0,0.412-0.015,0.633-0.047c1.265-0.185,2.228-0.761,2.786-1.665c0.666-1.079,0.706-2.53,0.116-4.312
					C300.747,37.676,298.6,36.102,295.669,36.95z M301.139,41.931c0.495,1.498,0.488,2.676-0.022,3.502
					c-0.51,0.826-1.426,1.118-2.105,1.217c-1.565,0.23-2.519-0.494-3.71-2.813c-0.032-0.063-0.063-0.113-0.095-0.178
					c-0.142-0.362-0.344-0.999-0.492-1.719c-0.218-1.059-0.316-2.3,0.094-3.137c0.231-0.471,0.599-0.774,1.127-0.926
					C298.342,37.179,299.994,38.47,301.139,41.931z"/>
				<path style="fill:#31323C;" d="M295.803,43.442c0,0,0.05,0.092,0.12,0.216c0.302,0.532,1.163,1.94,1.969,2.154
					c1.366,0.361,2.048,0.281,2.691-0.964c0.643-1.245-0.603-3.615-0.643-3.775c0,0,0.161,2.892-1.205,3.414
					c-1.071,0.41-2.255-0.458-2.72-0.855C295.887,43.523,295.803,43.442,295.803,43.442z"/>
				<path style="fill:#31323C;" d="M300.314,49.297c-0.792,0.23-1.372,0.71-1.724,1.429c-0.573,1.169-0.404,2.758-0.134,3.955
					l-2.298,0.606c0.208,0.653,0.416,1.309,0.624,1.966l2.29-0.659c0.862,1.695,1.969,3.406,4.093,3.406
					c0.202,0,0.413-0.015,0.633-0.047c1.265-0.186,2.229-0.762,2.787-1.666c0.665-1.079,0.705-2.53,0.115-4.311
					C305.393,50.024,303.247,48.447,300.314,49.297z M305.785,54.278c0.495,1.498,0.488,2.675-0.021,3.501
					c-0.51,0.826-1.427,1.118-2.106,1.218c-1.534,0.228-2.479-0.47-3.637-2.677c-0.056-0.108-0.111-0.201-0.168-0.316
					c-0.132-0.337-0.319-0.911-0.464-1.571c-0.239-1.088-0.362-2.409,0.067-3.285c0.231-0.471,0.599-0.774,1.127-0.926
					C302.986,49.523,304.639,50.816,305.785,54.278z"/>
				<path style="fill:#31323C;" d="M300.449,55.789c0,0,0.073,0.141,0.198,0.351c0.359,0.61,1.152,1.823,1.891,2.019
					c1.366,0.361,2.049,0.281,2.691-0.964c0.643-1.245-0.602-3.615-0.643-3.776c0,0,0.16,2.892-1.205,3.414
					c-0.973,0.372-2.038-0.312-2.576-0.739C300.588,55.923,300.449,55.789,300.449,55.789z"/>
				<path style="fill:#31323C;" d="M303.615,61.399c-0.792,0.23-1.372,0.71-1.724,1.429c-0.591,1.208-0.391,2.861-0.107,4.07
					l-1.823,0.481c0.204,0.655,0.406,1.308,0.608,1.959l1.86-0.535c0.854,1.66,1.958,3.3,4.037,3.3c0.201,0,0.413-0.015,0.633-0.047
					c1.265-0.186,2.228-0.763,2.786-1.666c0.665-1.079,0.705-2.53,0.115-4.311C308.694,62.126,306.545,60.55,303.615,61.399z
					 M309.085,66.381c0.495,1.498,0.489,2.676-0.021,3.501c-0.51,0.826-1.426,1.118-2.105,1.218
					c-1.508,0.224-2.449-0.449-3.581-2.571c-0.074-0.14-0.147-0.267-0.224-0.42c-0.041-0.107-0.258-0.694-0.438-1.458
					c-0.249-1.056-0.425-2.451,0.041-3.401c0.231-0.471,0.599-0.773,1.127-0.925C306.285,61.627,307.94,62.918,309.085,66.381z"/>
				<path style="fill:#31323C;" d="M303.75,67.892c0,0,0.102,0.192,0.261,0.455c0.381,0.634,1.125,1.729,1.828,1.915
					c1.366,0.362,2.048,0.281,2.691-0.964c0.643-1.245-0.602-3.615-0.643-3.776c0,0,0.16,2.892-1.205,3.414
					c-0.908,0.347-1.894-0.225-2.46-0.65C303.936,68.072,303.75,67.892,303.75,67.892z"/>
				<path style="fill:#31323C;" d="M307.649,74.236c-0.792,0.23-1.372,0.71-1.724,1.429c-0.606,1.236-0.381,2.938-0.087,4.154
					l-1.911,0.504c0.199,0.661,0.397,1.317,0.59,1.962l1.985-0.571c0.849,1.634,1.951,3.223,3.998,3.223
					c0.201,0,0.413-0.015,0.633-0.047c1.265-0.186,2.229-0.763,2.786-1.666c0.666-1.079,0.705-2.529,0.116-4.31
					C312.728,74.962,310.581,73.388,307.649,74.236z M313.12,79.217c0.495,1.498,0.488,2.676-0.021,3.501
					c-0.51,0.826-1.427,1.118-2.106,1.218c-1.49,0.223-2.426-0.433-3.54-2.495c-0.088-0.163-0.175-0.315-0.265-0.496
					c-0.119-0.302-0.279-0.8-0.415-1.373c-0.268-1.123-0.438-2.552,0.018-3.483c0.231-0.471,0.599-0.774,1.127-0.926
					C310.322,74.464,311.974,75.755,313.12,79.217z"/>
				<path style="fill:#31323C;" d="M307.784,80.728c0,0,0.121,0.226,0.306,0.529c0.393,0.642,1.107,1.662,1.783,1.84
					c1.366,0.361,2.048,0.281,2.691-0.964c0.643-1.245-0.603-3.615-0.643-3.776c0,0,0.161,2.892-1.205,3.414
					c-0.865,0.331-1.808-0.175-2.385-0.592C307.997,80.94,307.784,80.728,307.784,80.728z"/>
				<path style="fill:#31323C;" d="M311.439,87.195c-0.793,0.23-1.372,0.71-1.724,1.429c-0.65,1.327-0.345,3.192-0.022,4.413
					l-1.888,0.498c0.194,0.687,0.378,1.345,0.551,1.974l2.062-0.593c0.832,1.545,1.925,2.98,3.871,2.98
					c0.202,0,0.413-0.015,0.633-0.047c1.265-0.186,2.229-0.762,2.787-1.666c0.665-1.079,0.705-2.53,0.115-4.311
					C316.517,87.921,314.369,86.347,311.439,87.195z M316.909,92.176c0.495,1.498,0.489,2.675-0.021,3.501
					c-0.51,0.827-1.427,1.118-2.106,1.218c-1.431,0.213-2.352-0.375-3.41-2.253c-0.129-0.229-0.259-0.468-0.394-0.737
					c-0.035-0.091-0.195-0.524-0.352-1.115c-0.287-1.078-0.564-2.687-0.045-3.744c0.231-0.471,0.599-0.773,1.127-0.926
					C314.111,87.424,315.764,88.713,316.909,92.176z"/>
				<path style="fill:#31323C;" d="M311.573,93.687c0,0,0.181,0.342,0.456,0.766c0.411,0.631,1.037,1.446,1.633,1.604
					c1.366,0.361,2.048,0.281,2.691-0.964c0.643-1.245-0.602-3.615-0.643-3.776c0,0,0.16,2.892-1.205,3.414
					c-0.847,0.324-1.771-0.156-2.35-0.567C311.801,93.912,311.573,93.687,311.573,93.687z"/>
				<path style="fill:#31323C;" d="M314.021,487.025c0.599,0,1.085-0.485,1.085-1.085c0-0.599-0.485-1.084-1.085-1.084
					c-0.599,0-1.084,0.486-1.084,1.084C312.937,486.539,313.422,487.025,314.021,487.025z"/>
				<path style="fill:#31323C;" d="M313.901,497.87c0.599,0,1.085-0.486,1.085-1.084c0-0.599-0.485-1.085-1.085-1.085
					c-0.599,0-1.084,0.486-1.084,1.085C312.816,497.384,313.302,497.87,313.901,497.87z"/>
				<path style="fill:#31323C;" d="M313.901,506.425c0.599,0,1.085-0.486,1.085-1.085c0-0.599-0.485-1.084-1.085-1.084
					c-0.599,0-1.084,0.485-1.084,1.084C312.816,505.94,313.302,506.425,313.901,506.425z"/>
				<path style="fill:#31323C;" d="M268.111,484.856c-0.599,0-1.084,0.486-1.084,1.084c0,0.599,0.485,1.085,1.084,1.085
					c0.599,0,1.085-0.485,1.085-1.085C269.196,485.341,268.71,484.856,268.111,484.856z"/>
				<path style="fill:#31323C;" d="M267.99,495.701c-0.599,0-1.084,0.486-1.084,1.085c0,0.599,0.485,1.084,1.084,1.084
					c0.599,0,1.085-0.486,1.085-1.084C269.075,496.186,268.59,495.701,267.99,495.701z"/>
				<path style="fill:#31323C;" d="M267.99,504.256c-0.599,0-1.084,0.485-1.084,1.084c0,0.599,0.485,1.085,1.084,1.085
					c0.599,0,1.085-0.486,1.085-1.085C269.075,504.742,268.59,504.256,267.99,504.256z"/>
			</g>
			<polygon style="fill:#F1AC47;" points="167.593,579.012 158.889,567.366 119.36,580.85 162.133,550.167 173.481,562.833 
				209.668,550.746 			"/>
			<g>
				<path style="fill:#F1AC47;" d="M359.239,535.767c-3.071,0-5.56,2.489-5.56,5.56c0,3.07,2.489,5.56,5.56,5.56
					c3.071,0,5.56-2.489,5.56-5.56C364.798,538.256,362.309,535.767,359.239,535.767z M358.781,546.094
					c-2.747,0-4.981-2.234-4.981-4.981c0-2.747,2.235-4.981,4.981-4.981c2.746,0,4.981,2.234,4.981,4.981
					C363.763,543.86,361.528,546.094,358.781,546.094z"/>
				<path style="fill:#F1AC47;" d="M358.781,536.863c-2.344,0-4.25,1.907-4.25,4.25c0,2.344,1.907,4.25,4.25,4.25
					c2.344,0,4.25-1.907,4.25-4.25C363.031,538.769,361.125,536.863,358.781,536.863z M359.829,538.797
					c-1.974,0-3.568,1.601-3.568,3.575c0,0.57,0.139,1.119,0.38,1.594c-0.87-0.643-1.433-1.682-1.433-2.852
					c0-1.974,1.601-3.575,3.575-3.575c1.404,0,2.611,0.804,3.188,1.981C361.372,539.06,360.633,538.797,359.829,538.797z"/>
			</g>
			<g>
				<path style="fill:#F1AC47;" d="M332.643,529.555c-3.071,0-5.56,2.489-5.56,5.56s2.489,5.56,5.56,5.56
					c3.071,0,5.56-2.489,5.56-5.56S335.713,529.555,332.643,529.555z M332.185,539.882c-2.747,0-4.981-2.234-4.981-4.981
					s2.235-4.981,4.981-4.981c2.746,0,4.981,2.234,4.981,4.981S334.932,539.882,332.185,539.882z"/>
				<path style="fill:#F1AC47;" d="M332.185,530.651c-2.344,0-4.25,1.906-4.25,4.25c0,2.344,1.907,4.25,4.25,4.25
					c2.344,0,4.25-1.907,4.25-4.25C336.435,532.557,334.529,530.651,332.185,530.651z M333.233,532.585
					c-1.974,0-3.568,1.601-3.568,3.575c0,0.57,0.139,1.119,0.38,1.594c-0.87-0.643-1.433-1.682-1.433-2.852
					c0-1.974,1.601-3.575,3.575-3.575c1.404,0,2.61,0.804,3.188,1.981C334.776,532.848,334.037,532.585,333.233,532.585z"/>
			</g>
			<g>
				<path style="fill:#F1AC47;" d="M343.813,502.918c-3.071,0-5.56,2.489-5.56,5.56c0,3.07,2.489,5.56,5.56,5.56
					c3.071,0,5.56-2.489,5.56-5.56C349.373,505.407,346.884,502.918,343.813,502.918z M343.356,513.245
					c-2.747,0-4.981-2.234-4.981-4.981c0-2.747,2.235-4.981,4.981-4.981c2.747,0,4.981,2.234,4.981,4.981
					C348.337,511.011,346.102,513.245,343.356,513.245z"/>
				<path style="fill:#F1AC47;" d="M343.356,504.014c-2.344,0-4.25,1.906-4.25,4.25c0,2.344,1.907,4.25,4.25,4.25
					c2.344,0,4.25-1.907,4.25-4.25C347.606,505.921,345.699,504.014,343.356,504.014z M344.403,505.948
					c-1.974,0-3.568,1.601-3.568,3.575c0,0.57,0.139,1.119,0.38,1.594c-0.87-0.644-1.433-1.682-1.433-2.852
					c0-1.974,1.601-3.575,3.576-3.575c1.404,0,2.61,0.804,3.188,1.982C345.946,506.211,345.207,505.948,344.403,505.948z"/>
			</g>
			<g>
				<path style="fill:#F1AC47;" d="M342.134,559.93c-3.071,0-5.56,2.489-5.56,5.56c0,3.07,2.489,5.56,5.56,5.56
					c3.071,0,5.56-2.489,5.56-5.56C347.693,562.419,345.204,559.93,342.134,559.93z M341.676,570.257
					c-2.747,0-4.981-2.234-4.981-4.981c0-2.747,2.235-4.981,4.981-4.981c2.746,0,4.981,2.234,4.981,4.981
					C346.658,568.023,344.423,570.257,341.676,570.257z"/>
				<path style="fill:#F1AC47;" d="M341.676,561.026c-2.344,0-4.25,1.906-4.25,4.25c0,2.343,1.907,4.25,4.25,4.25
					c2.343,0,4.25-1.907,4.25-4.25C345.926,562.932,344.02,561.026,341.676,561.026z M342.724,562.96
					c-1.974,0-3.568,1.601-3.568,3.575c0,0.571,0.139,1.119,0.38,1.594c-0.87-0.644-1.433-1.682-1.433-2.852
					c0-1.974,1.601-3.575,3.575-3.575c1.404,0,2.61,0.804,3.188,1.981C344.267,563.223,343.528,562.96,342.724,562.96z"/>
			</g>
			<polygon style="fill:#F1AC47;" points="246.896,512.808 254.333,513.149 249.044,508.396 253.145,499.968 244.406,504.229 
				236.719,497.322 237.7,507.499 228.536,511.967 242.042,511.569 240.186,527.669 			"/>
			<polygon style="fill:#F1AC47;" points="363.463,576.383 359.753,577.654 361.983,573.682 358.171,569.304 363.454,571.678 
				366.32,567.051 367.328,572.341 372.621,573.246 365.734,575.039 369.05,582.904 			"/>
			<g>
				<polygon style="fill:#F1AC47;" points="398.922,407.569 407.415,415.615 436.915,399.523 407.191,429.695 396.464,421.202 
					369.421,435.729 				"/>
				<polygon style="fill:#F1AC47;" points="374.682,145.583 370.074,127.525 415.35,98.956 350.308,116.914 353.805,138.429 
					312.613,164.79 				"/>
				<polygon style="fill:#F1AC47;" points="220.788,150.072 225.261,135.35 188.984,110.104 241.957,127.334 238.273,144.949 
					271.264,168.222 				"/>
				<polygon style="fill:#F1AC47;" points="389.299,268.485 386.978,276.817 407.695,290.532 377.699,281.54 379.54,271.592 
					360.695,258.943 				"/>
				<polygon style="fill:#F1AC47;" points="199.061,272.879 200.982,282.28 176.992,295.845 210.883,288.227 209.619,277.077 
					231.455,264.544 				"/>
				<polygon style="fill:#F1AC47;" points="401.194,494.823 401.087,485.663 426.025,477.265 392.876,478.302 392.051,488.985 
					369.32,496.801 				"/>
				<polygon style="fill:#F1AC47;" points="425.298,596.864 434.003,585.217 473.531,598.702 430.758,568.019 419.411,580.685 
					383.223,568.598 				"/>
				<polygon style="fill:#F1AC47;" points="180.854,397.453 171.003,406.785 136.785,388.121 171.262,423.117 183.705,413.266 
					215.072,430.116 				"/>
				<polygon style="fill:#F1AC47;" points="190.637,491.636 190.761,481.033 161.895,471.314 200.266,472.514 201.22,484.879 
					227.532,493.926 				"/>
				<polygon style="fill:#F1AC47;" points="187.447,538.093 180.404,540.506 184.638,532.964 177.4,524.651 187.431,529.16 
					192.873,520.374 194.786,530.418 204.835,532.137 194.027,535.3 198.056,550.475 				"/>
				<polygon style="fill:#F1AC47;" points="402.385,523.68 400.408,516.503 407.677,521.19 416.416,514.473 411.303,524.21 
					419.74,530.178 409.598,531.474 407.268,541.4 404.325,530.12 391.535,530.768 				"/>
				<polygon style="fill:#F1AC47;" points="199.979,445.727 202.256,441.605 203.474,446.938 210.395,447.76 203.78,449.907 
					204.96,456.335 199.799,452.44 194.36,455.901 197.751,449.66 189.75,444.428 				"/>
				<polygon style="fill:#F1AC47;" points="391.607,443.559 393.883,439.438 395.101,444.77 402.023,445.593 395.408,447.739 
					396.588,454.167 391.427,450.272 385.987,453.734 390.67,446.586 381.378,442.261 				"/>
			</g>
		</g>
	</g>
	<g>
		<g>
			<polygon style="fill:#F1AC47;" points="228.216,276.411 219.038,311.402 366.853,315.366 358.999,271.823 			"/>
			<g>
				
					<text transform="matrix(1 0 0 1 232.9096 305.4415)" style="fill:#FFFFFF; font-family:'Montserrat-SemiBold'; font-size:26.2382px;">Festival</text>
			</g>
		</g>
		<text transform="matrix(1 0 0 1 207.598 678.0684)" style="fill:#E49038; font-family:'Bahiana-Regular'; font-size:56.2934px;">Lorem ipsum</text>
		<g>
			<polygon style="fill:#E2473E;" points="341.025,773.693 256.841,778.226 245.832,754.266 349.443,756.857 			"/>
			<g>
				
					<text transform="matrix(1 0 0 1 271.8666 769.7794)" style="fill:#FFFFFF; font-family:'Montserrat-SemiBold'; font-size:12.1997px;">Sponsor</text>
			</g>
		</g>
		<g>
			<rect x="104.181" y="685.53" style="fill:none;" width="386.914" height="58.878"/>
			<text transform="matrix(1 0 0 1 121.5863 693.4571)"><tspan x="0" y="0" style="fill:#FFFFFF; font-family:'Montserrat-Light'; font-size:10.6849px;">Lorem ipsum dolor sit amet, consectetuer adipiscing elit, sed diam </tspan><tspan x="-17.075" y="12.822" style="fill:#FFFFFF; font-family:'Montserrat-Light'; font-size:10.6849px;">nonummy nibh euismod tincidunt ut laoreet dolore magna aliquam erat </tspan><tspan x="0.379" y="25.644" style="fill:#FFFFFF; font-family:'Montserrat-Light'; font-size:10.6849px;">volutpat. Ut wisi enim ad minim veniam, quis nostrud exerci tation </tspan><tspan x="-10.69" y="38.466" style="fill:#FFFFFF; font-family:'Montserrat-Light'; font-size:10.6849px;">ullamcorper suscipit lobortis nisl ut aliquip ex ea commodo consequat. </tspan></text>
		</g>
		<g>
			<g>
				<path style="fill:#FFFFFF;" d="M493.319,208.049l-2.175-2.402c-1.095-1.209-2.972-1.274-4.148-0.144l-5.634,5.413l-5.237-6.217
					c-1.049-1.245-2.919-1.379-4.135-0.297l-3.731,3.321c-1.188,1.057-1.299,2.876-0.249,4.07l5.696,6.479l-5.371,5.161
					c-1.054,1.013-1.187,2.652-0.31,3.821l1.834,2.446c1.037,1.382,3.046,1.553,4.301,0.366l5.412-5.12l4.196,4.773
					c1.029,1.17,2.801,1.315,4.006,0.327l3.473-2.847c1.247-1.022,1.417-2.867,0.378-4.1l-4.479-5.317l6.016-5.691
					C494.305,211.011,494.375,209.215,493.319,208.049z"/>
				<path style="fill:#FFFFFF;" d="M116.821,208.049l-2.175-2.402c-1.095-1.209-2.972-1.274-4.148-0.144l-5.633,5.413l-5.237-6.217
					c-1.049-1.245-2.919-1.379-4.135-0.297l-3.731,3.321c-1.188,1.057-1.299,2.876-0.249,4.07l5.696,6.479l-5.371,5.161
					c-1.054,1.013-1.187,2.652-0.31,3.821l1.834,2.446c1.037,1.382,3.046,1.553,4.302,0.366l5.412-5.12l4.196,4.773
					c1.029,1.17,2.801,1.315,4.006,0.327l3.472-2.847c1.247-1.022,1.417-2.867,0.378-4.1l-4.479-5.317l6.016-5.691
					C117.808,211.011,117.877,209.215,116.821,208.049z"/>
			</g>
			<g>
				
					<text transform="matrix(1 0 0 1 137.0375 244.4649)" style="fill:#E2473E; font-family:'Bahiana-Regular'; font-size:92.8189px;">RocK</text>
				<g>
					
						<text transform="matrix(1 0 0 1 319.0365 244.3184)" style="fill:#E2473E; font-family:'Bahiana-Regular'; font-size:92.8189px;">MusiC</text>
				</g>
			</g>
		</g>
		<g>
			<g>
				<g>
					
						<text transform="matrix(1 0 0 1 49.7621 456.7481)" style="fill:#FFFFFF; font-family:'Montserrat-Black'; font-size:75.713px;">22</text>
				</g>
				<g>
					
						<text transform="matrix(1 0 0 1 47.2113 483.2911)" style="fill:#FFFFFF; font-family:'Montserrat-SemiBold'; font-size:19.0823px;">January</text>
				</g>
			</g>
			<g>
				<g>
					<text transform="matrix(1 0 0 1 75.7904 516.6905)"><tspan x="0" y="0" style="fill:#FFFFFF; font-family:'Bahiana-Regular'; font-size:28.7405px;">Free</tspan><tspan x="-3.736" y="34.488" style="fill:#FFFFFF; font-family:'Bahiana-Regular'; font-size:28.7405px;">entry</tspan></text>
				</g>
				<g>
					<polygon style="fill:#E2473E;" points="141.115,515.617 145.793,511.91 140.092,511.818 138.138,504.561 135.094,511.737 
						126.809,511.604 132.757,517.245 129.564,524.77 137.526,517.422 144.875,528.139 					"/>
					<polygon style="fill:#E2473E;" points="48.607,515.617 43.788,512.094 50.69,511.416 52.833,502.842 54.473,511.507 
						62.747,511.051 57.022,516.919 60.504,524.315 52.264,517.281 45.336,528.275 					"/>
				</g>
			</g>
		</g>
		<g>
			<g>
				<text transform="matrix(1 0 0 1 436.2045 423.3087)"><tspan x="0" y="0" style="fill:#FFFFFF; font-family:'Montserrat-Regular'; font-size:12.1997px;">123 street new york,</tspan><tspan x="0.708" y="11.638" style="fill:#FFFFFF; font-family:'Montserrat-Regular'; font-size:12.1997px;">stadion jaka baring</tspan></text>
			</g>
			<g>
				
					<text transform="matrix(1 0 0 1 454.0414 482.377)" style="fill:#E2473E; font-family:'Bahiana-Regular'; font-size:35.4153px;">14.00 pm</text>
			</g>
			<g>
				
					<text transform="matrix(1 0 0 1 431.3148 512.795)" style="fill:#FFFFFF; font-family:'Montserrat-Regular'; font-size:12.1997px;">Special Performance</text>
			</g>
			<g>
				
					<text transform="matrix(1 0 0 1 450.0297 549.1387)" style="fill:#E2473E; font-family:'Bahiana-Regular'; font-size:32.9138px;">Via Vallen</text>
			</g>
			<polygon style="fill:#F1AC47;" points="434.241,443.206 434.663,448.94 556.333,447.318 556.527,443.957 			"/>
			<polygon style="fill:#F1AC47;" points="434.241,489.197 434.663,494.931 556.333,493.309 556.527,489.947 			"/>
		</g>
	</g>
</g>
</svg>
