<?xml version="1.0" encoding="utf-8"?>
<!-- Generator: Adobe Illustrator 27.5.0, SVG Export Plug-In . SVG Version: 6.00 Build 0)  -->
<svg version="1.1" id="Print" xmlns="http://www.w3.org/2000/svg" xmlns:xlink="http://www.w3.org/1999/xlink" x="0px" y="0px"
	 viewBox="0 0 595.28 841.89" style="enable-background:new 0 0 595.28 841.89;" xml:space="preserve">
<g>
	<g>
		<path style="fill:#D22823;" d="M609.451-14.173H-14.171v870.236h623.622V-14.173z"/>
		<path style="fill:#E9DE9E;" d="M595.28,0H0v841.89h595.28V0z"/>
		<g>
			<path style="fill:#16384E;" d="M577.147,16.039H18.133v781.135h559.015V16.039z"/>
			<polygon style="fill:#E9DE9E;" points="6.118,434.087 577.895,322.706 577.895,459.375 6.118,662.882 6.118,480.186 			"/>
		</g>
	</g>
	<g>
		<defs>
			<polygon id="SVGID_1_" points="444.815,584.921 444.815,547.472 441.145,349.234 6.118,368.732 6.118,616.034 			"/>
		</defs>
		<clipPath id="SVGID_00000042722440265240294790000001833616465242218631_">
			<use xlink:href="#SVGID_1_"  style="overflow:visible;"/>
		</clipPath>
		<g style="clip-path:url(#SVGID_00000042722440265240294790000001833616465242218631_);">
			<polygon style="fill:#16384E;" points="52.557,462.467 401.585,348.294 412.395,389.169 			"/>
			<polygon style="fill:#16384E;" points="31.84,487.583 403.836,382.785 413.057,424.047 			"/>
			<polygon style="fill:#16384E;" points="36.114,504.219 420.168,395.388 429.525,436.62 			"/>
			<polygon style="fill:#16384E;" points="20.671,526.578 424.982,415.974 434.068,457.265 			"/>
			<polygon style="fill:#16384E;" points="15.469,549.005 412.376,441.008 421.366,482.32 			"/>
			<polygon style="fill:#16384E;" points="30.144,568.644 428.177,456.032 437.593,497.249 			"/>
			<polygon style="fill:#16384E;" points="356.389,532.83 628.177,445.952 638.032,487.067 			"/>
			<polygon style="fill:#16384E;" points="356.389,519.431 628.177,432.553 638.032,473.668 			"/>
			<polygon style="fill:#16384E;" points="174.397,563.05 446.186,476.171 456.04,517.286 			"/>
			<polygon style="fill:#16384E;" points="350.726,546.382 622.514,459.503 632.368,500.618 			"/>
			<polygon style="fill:#16384E;" points="345.041,561.567 616.83,474.689 626.684,515.804 			"/>
			<polygon style="fill:#16384E;" points="60.753,440.992 332.542,354.114 342.396,395.229 			"/>
		</g>
	</g>
	<g>
		<g>
			<g>
				<polygon style="fill:#16384E;" points="410.568,412.459 406.521,393.075 452.304,393.075 452.304,418.249 412.098,422.913 				
					"/>
				<path style="fill:#DDA836;" d="M420.111,503.332l-5.106,42.335c0,0,10.663,23.659,47.818,25.159s37.488-24.326,37.488-24.326
					l-4.095-14.228L420.111,503.332z"/>
				<path style="fill:#D22823;" d="M428.657,531.342l62.274,5.935l-19.38-49.843l-16.751-34.474l-2.495-34.711l-3.013-15.997
					c0,0-23.827,1.44-32.282,8.493c-4.108,3.427-6.44,9.94-6.44,9.94l5.233,39.318L428.657,531.342z"/>
				<path style="fill:#16384E;" d="M465.296,488.742l-3.243,26.21l10.974,13.694l14.429,10.012c1.764-1.494,3.527-3.122,5.286-5.005
					c0,0-6.828-27.944-22.75-48.404L458.31,454.34c0,0,3.743-20.738-4.741-36.956l-4.741,2.245l2.495,34.711L465.296,488.742z"/>
				<path style="fill:#D22823;" d="M468.771,487.362l-3.243,26.21l10.974,13.694l14.429,10.012c1.764-1.494,3.527-3.122,5.286-5.005
					c0,0-6.828-27.944-22.75-48.404l-11.681-30.909c0,0,3.743-20.738-4.741-36.956l-4.741,2.245l2.495,34.711L468.771,487.362z"/>
				<path style="fill:#16384E;" d="M409.988,444.154c0,0,11.727,22.38,7.236,28.617c-4.491,6.238,7.984,21.956,9.98,52.645
					l1.453,5.926l3.512,0.79l18.407-20.056c0,0-8.712-41.838-25.369-62.509l-10.685-36.159l-3.954-0.95
					C410.568,412.459,406.891,432.508,409.988,444.154z"/>
				<path style="fill:#D22823;" d="M406.644,445.271c0,0,11.727,22.38,7.236,28.617c-4.491,6.238,7.984,21.956,9.98,52.645
					c0,0,1.735,2.021,4.796,4.808l0,0l18.407-20.056c0,0-8.543-39.931-25.2-60.601l-11.296-38.226
					C410.568,412.459,402.153,428.381,406.644,445.271z"/>
				<g>
					<path style="fill:#E9DE9E;" d="M427.602,493.084c0,0-1.547,5.45,4.255,4.747c0,0,1.934-2.047,3.34-2.342
						s13.546,5.034,13.546,5.034l6.849-2.077c0,0-10.683-7.471-19.867-7.471C433.264,490.975,427.602,493.084,427.602,493.084z"/>
					<path style="fill:#DDA836;" d="M479.855,503.332c0,0,2.286-2.864,0-4.798c0,0-5.043-3.165-6.389-3.34
						c-1.347-0.176-22.444,2.915-30.884,8.138l10.915,0.82c0,0,15.282-2.101,16.688-2.101S479.855,503.332,479.855,503.332z"/>
					<path style="fill:#E9DE9E;" d="M479.503,518.578c0,0,1.934-2.287,1.934-5.715c0,0-8.263-6.241-10.725-6.944
						c-2.461-0.703-31.823-3.165-33.932-2.461c-2.11,0.703-7.033,4.923-7.033,4.923s0.703,3.743,3.165,2.575
						c0,0,4.571-2.047,5.978-2.047s30.064,3.516,31.471,3.692C471.767,512.776,479.503,518.578,479.503,518.578z"/>
					<path style="fill:#E9DE9E;" d="M425.001,482.711c0,0-2.408-4.757,1.082-6.071c0,0,16.145,0.093,20.982,2.203
						c4.836,2.11,26.402,16.351,26.402,16.351l-5.752,0.707c0,0-18.278-11.08-20.65-11.783
						C444.692,483.415,425.001,482.711,425.001,482.711z"/>
					<path style="fill:#DDA836;" d="M475.811,489.819c0,0,1.582-2.45,1.758-3.548c0.176-1.098-4.104-2.402-4.104-2.402
						s-6.669-3.684-11.739-3.165c-2.442,0.25-18.421,3.325-21.86,5.567l1.637,4.874c0,0,11.451-5.006,13.21-4.874
						C456.471,486.403,470.185,486.729,475.811,489.819z"/>
					<path style="fill:#E9DE9E;" d="M423.067,468.998c0,0-4.395-1.055-1.407-5.45c0,0,12.307,0,14.593,0
						c2.286,0,22.292,8.336,23.541,9.003s7.718,8.883,7.718,8.883l-5.785-0.73c0,0-9.992-7.838-12.898-8.893
						C445.923,470.756,429.572,467.591,423.067,468.998z"/>
					<path style="fill:#E9DE9E;" d="M417.44,452.96h-1.758c0,0-3.95-1.301-1.436-4.636c8.244-3.052,19.209,1.21,21.127,1.51
						c4.493,0.703,25.051,13.714,25.051,13.714h-8.121c0,0-13.006-7.312-14.968-7.612S424.433,452.457,417.44,452.96z"/>
					<path style="fill:#DDA836;" d="M468.579,470.939c0,0,3.292-3.326-1.067-5.535s-13.399-2.56-15.208-1.857
						c-1.81,0.703-18.521,7.392-18.521,7.392l2.452,5.701c0,0,16.193-7.115,19.357-7.643
						C458.757,468.47,468.579,470.939,468.579,470.939z"/>
					<path style="fill:#DDA836;" d="M459.793,452.96c0,0,2.267-2.278,0-4.636c0,0-11.409,0.982-13.695,1.51
						c-2.286,0.527-19.164,8.087-19.164,8.087l2.813,5.626c0,0,6.373-4.486,8.439-5.45
						C440.253,457.133,459.793,452.96,459.793,452.96z"/>
				</g>
				<path style="fill:#E9DE9E;" d="M428.657,531.342c10.434,9.497,36.36,27.881,62.274,5.935
					C458.886,509.223,433.939,526.926,428.657,531.342z"/>
			</g>
			<path style="fill:#16384E;" d="M415.997,35.819c0,0,6.912,97.513,10.368,108.132c3.456,10.619,26.264,9.616,20.044,37.419
				s21.426,30.568,8.294,56.141c-13.132,25.573,12.441,143.994,12.441,143.994h-69.859L299.077,35.819H415.997z"/>
			<g>
				<path style="fill:#E9DE9E;" d="M465.078,381.952c-0.123-0.569-12.325-57.402-15.485-100.465l4.218-0.31
					c3.138,42.772,15.278,99.316,15.401,99.883L465.078,381.952z"/>
			</g>
			<path style="fill:#DDA836;" d="M383.11,354.683h84.033c0,0,3.771,8.703,0,14.049c-3.771,5.346,11.206,13.752,4.631,24.343
				l-74.49,8.367c0,0-10.782-8.004-6.319-18.232S376.637,370.722,383.11,354.683z"/>
		</g>
		<g>
			<g>
				<polygon style="fill:#16384E;" points="133.977,412.459 138.024,393.075 92.241,393.075 92.241,418.249 132.447,422.913 				"/>
				<path style="fill:#DDA836;" d="M124.434,503.332l5.106,42.335c0,0-10.663,23.659-47.818,25.159S44.234,546.5,44.234,546.5
					l4.095-14.228L124.434,503.332z"/>
				<path style="fill:#D22823;" d="M115.888,531.342l-62.274,5.935l19.38-49.843l16.751-34.474l2.495-34.711l3.013-15.997
					c0,0,23.827,1.44,32.282,8.493c4.108,3.427,6.44,9.94,6.44,9.94l-5.233,39.318L115.888,531.342z"/>
				<path style="fill:#16384E;" d="M79.249,488.742l3.243,26.21l-10.974,13.694L57.09,538.657c-1.764-1.494-3.527-3.122-5.286-5.005
					c0,0,6.828-27.944,22.75-48.404l11.681-30.909c0,0-3.743-20.738,4.741-36.956l4.741,2.245l-2.495,34.711L79.249,488.742z"/>
				<path style="fill:#D22823;" d="M75.774,487.362l3.243,26.21l-10.974,13.694l-14.429,10.012
					c-1.764-1.494-3.527-3.122-5.286-5.005c0,0,6.828-27.944,22.75-48.404L82.76,452.96c0,0-3.743-20.738,4.741-36.956l4.741,2.245
					l-2.495,34.711L75.774,487.362z"/>
				<path style="fill:#16384E;" d="M134.557,444.154c0,0-11.727,22.38-7.236,28.617c4.491,6.238-7.984,21.956-9.98,52.645
					l-1.453,5.926l-3.512,0.79l-18.407-20.056c0,0,8.712-41.838,25.369-62.509l10.685-36.159l3.954-0.95
					C133.977,412.459,137.653,432.508,134.557,444.154z"/>
				<path style="fill:#D22823;" d="M137.901,445.271c0,0-11.727,22.38-7.236,28.617c4.491,6.238-7.984,21.956-9.98,52.645
					c0,0-1.735,2.021-4.796,4.808l0,0l-18.407-20.056c0,0,8.543-39.931,25.2-60.601l11.296-38.226
					C133.977,412.459,142.391,428.381,137.901,445.271z"/>
				<g>
					<path style="fill:#E9DE9E;" d="M116.943,493.084c0,0,1.547,5.45-4.255,4.747c0,0-1.934-2.047-3.34-2.342
						s-13.546,5.034-13.546,5.034l-6.849-2.077c0,0,10.683-7.471,19.867-7.471C111.281,490.975,116.943,493.084,116.943,493.084z"/>
					<path style="fill:#DDA836;" d="M64.69,503.332c0,0-2.286-2.864,0-4.798c0,0,5.043-3.165,6.389-3.34
						c1.347-0.176,22.444,2.915,30.884,8.138l-10.915,0.82c0,0-15.282-2.101-16.688-2.101S64.69,503.332,64.69,503.332z"/>
					<path style="fill:#E9DE9E;" d="M65.042,518.578c0,0-1.934-2.287-1.934-5.715c0,0,8.263-6.241,10.725-6.944
						c2.461-0.703,31.823-3.165,33.932-2.461c2.11,0.703,7.033,4.923,7.033,4.923s-0.703,3.743-3.165,2.575
						c0,0-4.571-2.047-5.978-2.047s-30.064,3.516-31.471,3.692C72.777,512.776,65.042,518.578,65.042,518.578z"/>
					<path style="fill:#E9DE9E;" d="M119.544,482.711c0,0,2.408-4.757-1.082-6.071c0,0-16.145,0.093-20.982,2.203
						c-4.836,2.11-26.402,16.351-26.402,16.351l5.752,0.707c0,0,18.278-11.08,20.65-11.783
						C99.853,483.415,119.544,482.711,119.544,482.711z"/>
					<path style="fill:#DDA836;" d="M68.734,489.819c0,0-1.582-2.45-1.758-3.548c-0.176-1.098,4.104-2.402,4.104-2.402
						s6.669-3.684,11.739-3.165c2.442,0.25,18.421,3.325,21.86,5.567l-1.637,4.874c0,0-11.451-5.006-13.21-4.874
						C88.073,486.403,74.36,486.729,68.734,489.819z"/>
					<path style="fill:#E9DE9E;" d="M121.478,468.998c0,0,4.395-1.055,1.407-5.45c0,0-12.307,0-14.593,0s-22.292,8.336-23.541,9.003
						c-1.249,0.667-7.718,8.883-7.718,8.883l5.785-0.73c0,0,9.992-7.838,12.898-8.893
						C98.622,470.756,114.973,467.591,121.478,468.998z"/>
					<path style="fill:#E9DE9E;" d="M127.104,452.96h1.758c0,0,3.95-1.301,1.436-4.636c-8.244-3.052-19.209,1.21-21.127,1.51
						c-4.493,0.703-25.051,13.714-25.051,13.714h8.121c0,0,13.006-7.312,14.968-7.612
						C109.171,455.636,120.112,452.457,127.104,452.96z"/>
					<path style="fill:#DDA836;" d="M75.966,470.939c0,0-3.292-3.326,1.067-5.535c4.359-2.209,13.399-2.56,15.208-1.857
						c1.81,0.703,18.521,7.392,18.521,7.392l-2.452,5.701c0,0-16.193-7.115-19.357-7.643
						C85.788,468.47,75.966,470.939,75.966,470.939z"/>
					<path style="fill:#DDA836;" d="M84.751,452.96c0,0-2.267-2.278,0-4.636c0,0,11.409,0.982,13.695,1.51
						c2.286,0.527,19.164,8.087,19.164,8.087l-2.813,5.626c0,0-6.373-4.486-8.439-5.45C104.292,457.133,84.751,452.96,84.751,452.96
						z"/>
				</g>
				<path style="fill:#E9DE9E;" d="M115.888,531.342c-10.434,9.497-36.36,27.881-62.274,5.935
					C85.658,509.223,110.606,526.926,115.888,531.342z"/>
			</g>
			<path style="fill:#E9DE9E;" d="M128.958,15.71c0,0-14,117.623-17.456,128.242c-3.456,10.619-19.586,9.616-13.365,37.419
				c6.221,27.803-21.426,30.568-8.294,56.141S77.401,381.505,77.401,381.505h69.859L245.878,15.71H128.958z"/>
			<path style="fill:#DDA836;" d="M161.435,354.683H77.401c0,0-3.771,8.703,0,14.049c3.771,5.346-11.206,13.752-4.631,24.343
				l74.49,8.367c0,0,10.782-8.004,6.319-18.232S167.908,370.722,161.435,354.683z"/>
		</g>
		<g>
			<g>
				<path style="fill:#16384E;" d="M231.794,178.768c0,0-13.357,22.262-22.262,25.601c-8.905,3.339-36.732-13.357-41.741-25.601
					c-5.009-12.244-7.792-39.267-10.574-43.287c-2.783-4.02-22.818,0-32.28,34.66c-2.3,8.425,3.339,50.368,15.027,82.091
					s18.366,56.211,17.81,60.664s-30.61,96.283-31.723,104.631c-1.113,8.348,12.244,64.003,35.063,79.03
					c22.818,15.027,139.83,31.18,200.914-4.452c6.679-3.896,26.954-43.044,23.375-73.464c-1.113-9.461-16.672-49.758-32.28-82.926
					c-4.452-9.461-12.452-37.625,8.905-71.795c2.783-4.452,9.103-52.64-5.565-75.691c-3.896-6.122-18.366-1.67-22.262,3.896
					s-10.035,34.242-21.705,43.967c-6.679,5.565-33.393,2.226-47.863-18.923C250.16,196.021,231.794,178.768,231.794,178.768z"/>
				<path style="fill:#D22823;" d="M243.257,176.482c0,0-13.357,22.262-22.262,25.601s-36.732-13.357-41.741-25.601
					c-5.009-12.244-7.792-39.267-10.574-43.287c-2.783-4.02-22.818,0-32.28,34.66c-2.3,8.425,3.339,50.368,15.027,82.091
					c11.688,31.723,18.366,56.211,17.81,60.664s-30.61,96.283-31.723,104.631c-1.113,8.348,12.244,64.003,35.063,79.03
					c22.818,15.027,139.83,31.18,200.914-4.452c6.679-3.896,26.954-43.044,23.375-73.464c-1.113-9.461-16.672-49.758-32.28-82.926
					c-4.452-9.461-12.452-37.625,8.905-71.795c2.783-4.452,9.103-52.64-5.565-75.691c-3.896-6.122-18.366-1.67-22.262,3.896
					c-3.896,5.565-10.035,34.242-21.705,43.967c-6.679,5.565-33.393,2.226-47.863-18.923S243.257,176.482,243.257,176.482z"/>
				<path style="fill:#16384E;" d="M209.204,221.498c5.362-3.9,32.592,7.605,50.518,13.58s54.863,28.246,76.591,0
					s16.296-44.542,22.271-38.024s10.321,49.974-3.802,66.813c-14.123,16.839-13.037,48.888-3.259,70.073
					c9.778,21.185,41.826,86.912,33.678,95.603c-8.148,8.691-19.012,2.716-32.592-10.864c-13.58-13.58-36.938-20.642-69.529-14.123
					c-32.592,6.518-73.875,14.123-82.566-20.642c-8.691-34.765,20.642-58.665,16.839-101.035
					C213.549,240.51,203.228,225.843,209.204,221.498z"/>
				<path style="fill:#E9DE9E;" d="M213.656,221.498c5.362-3.9,32.592,7.605,50.518,13.58s54.863,28.246,76.591,0
					s16.296-44.542,22.271-38.024s10.321,49.974-3.802,66.813c-14.123,16.839-13.037,48.888-3.259,70.073
					s41.826,86.912,33.678,95.603c-8.148,8.691-19.012,2.716-32.592-10.864c-13.58-13.58-36.938-20.642-69.529-14.123
					c-32.592,6.518-73.875,14.123-82.566-20.642c-8.691-34.765,20.642-58.665,16.839-101.035S207.681,225.843,213.656,221.498z"/>
				<path style="fill:#DDA836;" d="M345.716,258.521c-44.338,37.687-88.717,75.659-131.649,114.943
					c-1.039,0.951,0.532,2.478,1.57,1.527c42.932-39.283,87.311-77.256,131.649-114.943
					C348.358,259.137,346.784,257.613,345.716,258.521z"/>
				<path style="fill:#DDA836;" d="M311.695,310.579c-11.361,11.138-22.721,22.276-34.082,33.414
					c-1.008,0.988,0.432,2.66,1.449,1.663l34.082-33.413C314.152,311.253,312.712,309.581,311.695,310.579z"/>
				<g>
					<path style="fill:#16384E;" d="M313.173,430.873c5.951-9.288,11.004-10.517,21.585-3.322s38.515,31.743,35.129,37.245
						c-3.386,5.502-20.124,2.174-32.88-3.002C321.632,455.554,307.248,440.12,313.173,430.873z"/>
					<path style="fill:#DDA836;" d="M317.626,428.646c5.951-9.288,11.004-10.517,21.585-3.322
						c10.581,7.195,38.515,31.743,35.129,37.245c-3.386,5.502-20.124,2.174-32.88-3.002
						C326.084,453.328,311.7,437.894,317.626,428.646z"/>
					<path style="fill:#16384E;" d="M338.616,434.418c2.871,0.082,13.271,6.211,18.782,12.303s13.634,13.924,2.321,15.374
						c-11.313,1.45-24.858-9.069-29.605-14.384C328.592,446.007,334.789,434.309,338.616,434.418z"/>
					<path style="fill:#E9DE9E;" d="M340.842,432.191c2.871,0.082,13.271,6.211,18.782,12.303s13.634,13.924,2.321,15.374
						c-11.313,1.45-24.858-9.069-29.605-14.384C330.818,443.78,337.015,432.083,340.842,432.191z"/>
				</g>
				<path style="fill:#16384E;" d="M305.801,367.149c-3.797,3.05-7.626,7.904-6.535,13.354c1.09,5.451,11.719,11.174,18.533,8.721
					c6.814-2.453,4.906-14.717,1.363-19.35C315.618,365.242,309.398,364.259,305.801,367.149z"/>
				<path style="fill:#16384E;" d="M350.803,400.797c2.496-4.182,4.395-10.065,1.474-14.795c-2.921-4.73-14.878-6.392-20.41-1.719
					c-5.532,4.673,0.528,15.504,5.463,18.613C342.265,406.005,348.438,404.759,350.803,400.797z"/>
				<path style="fill:#16384E;" d="M365.895,398.768c-4.481,1.908-9.481,5.543-9.908,11.086c-0.427,5.542,8.255,13.93,15.478,13.414
					s8.708-12.839,6.552-18.258C375.862,399.59,370.141,396.96,365.895,398.768z"/>
				<path style="fill:#DDA836;" d="M308.716,365.484c-3.797,3.05-7.626,7.904-6.535,13.354c1.09,5.451,11.719,11.174,18.533,8.721
					c6.814-2.453,4.906-14.717,1.363-19.35C318.533,363.576,312.313,362.594,308.716,365.484z"/>
				<path style="fill:#DDA836;" d="M353.717,399.132c2.496-4.182,4.395-10.065,1.474-14.795c-2.921-4.73-14.878-6.392-20.41-1.719
					c-5.532,4.673,0.528,15.504,5.463,18.613C345.18,404.34,351.353,403.094,353.717,399.132z"/>
				<path style="fill:#DDA836;" d="M368.81,397.103c-4.481,1.908-9.481,5.543-9.908,11.086s8.255,13.93,15.478,13.414
					s8.708-12.839,6.552-18.258C378.777,397.925,373.056,395.295,368.81,397.103z"/>
				<g>
					<path style="fill:#16384E;" d="M335.874,344.734L335.874,344.734c1.461-1.226,3.605-1.178,5.009,0.113l15.226,13.995
						c1.537,1.413,1.645,3.801,0.241,5.347l-0.078,0.086c-1.421,1.565-3.847,1.668-5.395,0.228l-15.148-14.082
						C334.058,348.868,334.125,346.201,335.874,344.734z"/>
					<path style="fill:#16384E;" d="M343.989,356.842L343.989,356.842c1.932-2.511,5.574-2.89,7.981-0.83l3.433,2.939
						c2.334,1.998,2.592,5.517,0.574,7.834l-0.042,0.048c-2.014,2.313-5.525,2.545-7.827,0.518l-3.391-2.987
						C342.533,362.439,342.214,359.15,343.989,356.842z"/>
					<path style="fill:#D22823;" d="M345.944,355.387L345.944,355.387c1.932-2.511,5.574-2.89,7.981-0.829l3.433,2.939
						c2.334,1.998,2.592,5.517,0.574,7.834l-0.042,0.048c-2.014,2.313-5.525,2.545-7.827,0.518l-3.391-2.987
						C344.487,360.984,344.168,357.695,345.944,355.387z"/>
				</g>
				<circle style="fill:#16384E;" cx="214.422" cy="358.133" r="4.906"/>
				<circle style="fill:#16384E;" cx="220.418" cy="391.688" r="4.906"/>
				<path style="fill:#16384E;" d="M231.411,249.324c0,0,25.921,8.812,53.105-2.226l-4.452-231.059h-58.779L231.411,249.324z"/>
				<path style="fill:#16384E;" d="M235.863,247.098c0,0,21.468,11.038,48.653,0V16.039h-58.779L235.863,247.098z"/>
				<g>
					<rect x="283.459" y="11.752" style="fill:#E9DE9E;" width="2.114" height="235.346"/>
				</g>
				<g>
					<g>
						
							<rect x="226.457" y="58.339" transform="matrix(0.9994 -0.0332 0.0332 0.9994 -1.832 8.5196)" style="fill:#DDA836;" width="58.074" height="2.113"/>
					</g>
					<g>
						
							<rect x="226.457" y="23.962" transform="matrix(0.9994 -0.0332 0.0332 0.9994 -0.6901 8.5006)" style="fill:#DDA836;" width="58.074" height="2.113"/>
					</g>
					<g>
						
							<rect x="254.858" y="48.703" transform="matrix(0.0208 -0.9998 0.9998 0.0208 173.304 331.5626)" style="fill:#DDA836;" width="2.114" height="57.212"/>
					</g>
					<g>
						
							<rect x="228.536" y="94.192" transform="matrix(0.9985 -0.0547 0.0547 0.9985 -4.827 14.179)" style="fill:#DDA836;" width="56.022" height="2.113"/>
					</g>
					<g>
						
							<rect x="233.818" y="180.314" transform="matrix(0.9993 -0.0381 0.0381 0.9993 -6.7213 10.0051)" style="fill:#DDA836;" width="50.716" height="2.113"/>
					</g>
					<g>
						
							<rect x="258.486" y="174.305" transform="matrix(0.0238 -0.9997 0.9997 0.0238 54.1386 454.0106)" style="fill:#DDA836;" width="2.115" height="49.958"/>
					</g>
					<g>
						
							<rect x="235.626" y="216.166" transform="matrix(0.998 -0.0635 0.0635 0.998 -13.2632 16.9469)" style="fill:#DDA836;" width="48.939" height="2.114"/>
					</g>
					<g>
						
							<rect x="229.381" y="110.958" transform="matrix(0.9999 -0.0146 0.0146 0.9999 -1.6131 3.7755)" style="fill:#DDA836;" width="55.137" height="2.114"/>
					</g>
					<g>
						
							<rect x="256.285" y="101.018" transform="matrix(0.0205 -0.9998 0.9998 0.0205 123.8897 382.8531)" style="fill:#DDA836;" width="2.114" height="54.359"/>
					</g>
					<g>
						
							<rect x="231.043" y="142.895" transform="matrix(0.9982 -0.0596 0.0596 0.9982 -8.1188 15.6158)" style="fill:#DDA836;" width="53.52" height="2.114"/>
					</g>
					<g>
						
							<rect x="231.995" y="161.442" transform="matrix(0.9977 -0.0683 0.0683 0.9977 -10.5004 18.0293)" style="fill:#DDA836;" width="52.583" height="2.115"/>
					</g>
					<g>
						
							<rect x="235.497" y="234.168" transform="matrix(0.9999 -0.0146 0.0146 0.9999 -3.4174 3.8335)" style="fill:#DDA836;" width="49.021" height="2.114"/>
					</g>
					<g>
						
							<rect x="254.437" y="13.241" transform="matrix(0.0244 -0.9997 0.9997 0.0244 206.9934 296.665)" style="fill:#DDA836;" width="2.115" height="58.074"/>
					</g>
				</g>
				<path style="fill:#E9DE9E;" d="M216.55,463.978l-10.852,1.426l5.951-5.627h-5.601l3.468-6.817l-20.738-43.659l-4.963-1.308
					l-4.458,1.671l-12.226,4.718l-4.65-1.044c-9.838,6.704-17.94,14.05-22.515,18.503c4.805,20.14,16.284,51.679,32.609,62.43
					c3.675,2.42,9.803,4.868,17.737,7.125l2.784-6.265h6.651l16.802-15.402l2.778-10.151L216.55,463.978z"/>
				<g>
					<polygon style="fill:#DDA836;" points="176.908,446.221 170.181,426.982 172.22,422.777 176.908,425.631 186.082,446.221 
						192.605,446.221 198.313,460.898 194.848,474.149 182.616,480.061 174.462,475.576 167.939,466.199 149.999,446.221 
						149.999,441.328 155.911,442.144 165.288,451.929 167.327,449.341 172.22,449.341 172.831,446.221 					"/>
					<g>
						<g>
							<g>
								<polygon style="fill:#16384E;" points="182.847,480.535 182.386,479.585 194.397,473.78 197.759,460.929 192.244,446.749 
									186.47,446.749 182.592,459.148 185.26,462.535 189.732,461.284 191.893,453.67 192.911,453.959 190.586,462.143 
									184.866,463.745 181.417,459.362 185.693,445.692 192.966,445.692 198.868,460.867 195.297,474.519 								"/>
							</g>
							<g>
								<polygon style="fill:#16384E;" points="174.015,468.636 168.21,462.872 164.785,452.088 165.792,451.768 169.177,462.428 
									174.298,467.434 179.177,465.855 179.522,464.063 173.33,459.554 171.699,449.424 172.741,449.257 174.304,458.956 
									180.686,463.605 180.098,466.668 								"/>
							</g>
							<g>
								<polygon style="fill:#16384E;" points="183.182,464.362 180.104,464.362 180.104,463.305 183.003,463.305 184.887,462.643 
									185.238,463.638 								"/>
							</g>
						</g>
						<g>
							<polygon style="fill:#16384E;" points="182.311,456.817 179.617,455.193 178.834,449.812 179.881,449.66 180.591,454.547 
								182.856,455.913 							"/>
						</g>
					</g>
				</g>
				<g>
					<g>
						
							<rect x="237.982" y="16.181" transform="matrix(0.9995 -0.0315 0.0315 0.9995 -6.5849 7.6117)" style="fill:#113D4F;" width="1.058" height="393.618"/>
					</g>
					<g>
						
							<rect x="280.443" y="16.27" transform="matrix(1 -0.0094 0.0094 1 -1.9777 2.6478)" style="fill:#113D4F;" width="1.057" height="391.314"/>
					</g>
					<g>
						
							<rect x="246.836" y="16.182" transform="matrix(0.9995 -0.0313 0.0313 0.9995 -6.5276 7.8508)" style="fill:#113D4F;" width="1.058" height="392.262"/>
					</g>
					<g>
						
							<rect x="255.741" y="20.277" transform="matrix(0.9997 -0.0224 0.0224 0.9997 -4.72 5.7838)" style="fill:#113D4F;" width="1.057" height="387.346"/>
					</g>
					<g>
						
							<rect x="263.113" y="16.182" transform="matrix(0.9995 -0.0313 0.0313 0.9995 -6.5202 8.3613)" style="fill:#113D4F;" width="1.058" height="392.262"/>
					</g>
					<g>
						
							<rect x="272.018" y="20.277" transform="matrix(0.9998 -0.0224 0.0224 0.9998 -4.7154 6.1471)" style="fill:#113D4F;" width="1.057" height="387.346"/>
					</g>
				</g>
				<polygon style="fill:#16384E;" points="229.814,393.636 230.939,429.868 293.201,423.999 297.418,419.825 291.533,395.915 
					234.032,389.461 				"/>
				<polygon style="fill:#DDA836;" points="234.032,389.461 235.156,425.694 297.418,419.825 295.75,391.741 				"/>
			</g>
			<g>
				<g>
					
						<rect x="162.089" y="217.071" transform="matrix(0.955 -0.2966 0.2966 0.955 -70.1948 60.16)" style="fill:#E9DE9E;" width="2.114" height="88.639"/>
				</g>
				<g>
					<path style="fill:#E9DE9E;" d="M146.556,211.203c-0.06-0.169-6.025-17.184-5.419-35.733l2.112,0.068
						c-0.592,18.155,5.241,34.791,5.299,34.957L146.556,211.203z"/>
				</g>
			</g>
		</g>
	</g>
	<g>
		<circle style="fill:#16384E;" cx="513.895" cy="360.31" r="71.638"/>
		<circle style="fill:#D22823;" cx="518.248" cy="355.957" r="71.638"/>
		<g>
			<path style="fill:#E9DE9E;" d="M518.248,424.299c-37.684,0-68.342-30.658-68.342-68.342s30.658-68.343,68.342-68.343
				c37.684,0,68.343,30.659,68.343,68.343S555.932,424.299,518.248,424.299z M518.248,289.728c-36.518,0-66.228,29.71-66.228,66.229
				s29.71,66.228,66.228,66.228c36.519,0,66.229-29.709,66.229-66.228S554.767,289.728,518.248,289.728z"/>
		</g>
		<text transform="matrix(0.9756 -0.2194 0.2194 0.9756 482.355 358.9424)"><tspan x="0" y="0" style="fill:#E9DE9E; font-family:'ChineseRocksRg-Regular'; font-size:46.5074px;">free</tspan><tspan x="-17.672" y="38.148" style="fill:#E9DE9E; font-family:'ChineseRocksRg-Regular'; font-size:46.5074px;">entry!</tspan></text>
	</g>
	<g>
		
			<text transform="matrix(1 0 0 1 298.0547 152.998)" style="fill:#DDA836; font-family:'ChineseRocksRg-Regular'; font-size:160.0942px; letter-spacing:-3;">ROCK</text>
		<text transform="matrix(1 0 0 1 392.6953 210.7764)"><tspan x="0" y="0" style="fill:#E9DE9E; font-family:'ChineseRocksRg-Regular'; font-size:59.1912px; letter-spacing:-1;">music</tspan><tspan x="0" y="50.216" style="fill:#E9DE9E; font-family:'ChineseRocksRg-Regular'; font-size:59.1912px; letter-spacing:-1;">festival</tspan></text>
		<g>
			<g>
				
					<text transform="matrix(1 0 0 1 50.8535 728.8086)" style="fill:#E9DE9E; font-family:'ChineseRocksRg-Regular'; font-size:101.8426px; letter-spacing:-6;">21</text>
				
					<text transform="matrix(1 0 0 1 115.7422 728.8086)" style="fill:#E9DE9E; font-family:'ChineseRocksRg-Regular'; font-size:44.882px;">SEPTEMBER</text>
				
					<text transform="matrix(1 0 0 1 116.9063 689.7422)" style="fill:#DDA836; font-family:'ChineseRocksRg-Regular'; font-size:35.7757px;">ST</text>
				
					<text transform="matrix(1 0 0 1 113.9795 780.6582)" style="fill:#E9DE9E; font-family:'ChineseRocksRg-Regular'; font-size:55.8996px;">9PM</text>
			</g>
			<text transform="matrix(1 0 0 1 46.7412 757.4492)"><tspan x="0" y="0" style="fill:#DDA836; font-family:'ChineseRocksRg-Regular'; font-size:24.5958px;">STARTS</tspan><tspan x="43.657" y="23.942" style="fill:#DDA836; font-family:'ChineseRocksRg-Regular'; font-size:24.5958px;">AT</tspan></text>
		</g>
		<g>
			
				<text transform="matrix(1 0 0 1 341.334 691.0488)" style="fill:#E9DE9E; font-family:'ChineseRocksRg-Regular'; font-size:26.6485px;">BAND NAME </text>
			
				<text transform="matrix(1 0 0 1 341.334 718.418)" style="fill:#E9DE9E; font-family:'ChineseRocksRg-Regular'; font-size:26.6485px;">BAND NAME </text>
			
				<text transform="matrix(1 0 0 1 465.2773 691.0488)" style="fill:#E9DE9E; font-family:'ChineseRocksRg-Regular'; font-size:26.6485px;">BAND NAME </text>
			
				<text transform="matrix(1 0 0 1 465.2773 718.418)" style="fill:#E9DE9E; font-family:'ChineseRocksRg-Regular'; font-size:26.6485px;">BAND NAME </text>
			<polygon style="fill:#DDA836;" points="458.46,670.663 446.677,697.968 453.615,695.982 448.697,718.419 462.574,689.841 
				455.925,691.16 			"/>
		</g>
		
			<text transform="matrix(1 0 0 1 269.3115 642.3984)" style="fill:#DDA836; font-family:'ChineseRocksRg-Regular'; font-size:79.2209px; letter-spacing:-1;">BAND NAME</text>
		
			<text transform="matrix(1 0 0 1 318.4609 780.6582)" style="fill:#DDA836; font-family:'ChineseRocksRg-Regular'; font-size:48.6344px;">at venue name</text>
	</g>
	<text transform="matrix(1 0 0 1 198.7012 827.1006)" style="fill:#16384E; font-family:'Roboto-Bold'; font-size:19.0258px;">www.rockfestival.com</text>
	<g>
		<polygon style="fill:#DDA836;" points="41.839,37.555 81.792,108.832 89.032,90.372 129.809,138.54 90.571,60.569 82.357,77.285 
					"/>
		<polygon style="fill:#DDA836;" points="37.865,129.074 82.271,152.438 79.831,140.509 116.938,151.692 70.662,124.641 
			72.017,135.998 		"/>
	</g>
</g>
</svg>
