<?xml version="1.0" encoding="utf-8"?>
<!-- Generator: Adobe Illustrator 27.5.0, SVG Export Plug-In . SVG Version: 6.00 Build 0)  -->
<svg version="1.1" id="PRINT" xmlns="http://www.w3.org/2000/svg" xmlns:xlink="http://www.w3.org/1999/xlink" x="0px" y="0px"
	 viewBox="0 0 595.276 841.89" style="enable-background:new 0 0 595.276 841.89;" xml:space="preserve">
<g>
	<g>
		<rect x="-14.105" y="-14.183" style="fill:#040508;" width="623.486" height="868.35"/>
		<g>
			<path style="fill:#FFFFFF;" d="M572.763,22.716v794.551H22.513V22.716H572.763 M575.046,20.433H20.23V819.55h554.816V20.433
				L575.046,20.433z"/>
		</g>
	</g>
	<g>
		
			<line style="fill:none;stroke:#FFFFFF;stroke-width:1.6663;stroke-linecap:round;stroke-linejoin:round;stroke-miterlimit:10;" x1="38.749" y1="763.827" x2="556.527" y2="763.827"/>
		<g>
			<g>
				<g>
					<g>
						<g>
							<polygon style="fill:#FFFFFF;" points="532.525,457.664 506.195,550.071 492.24,529.102 479.36,583.76 464.432,561.327 
								428.978,648.052 463.319,532.164 474.467,548.916 487.96,498.88 506.62,526.92 							"/>
						</g>
					</g>
					<g>
						<polygon style="fill:#FFFFFF;" points="62.751,454.24 89.081,546.646 103.035,525.677 115.916,580.335 130.844,557.903 
							166.297,644.627 131.957,528.739 120.809,545.492 107.315,495.455 88.655,523.496 						"/>
					</g>
				</g>
				<g>
					<g>
						<path style="fill:#E13232;" d="M468.604,425.572c-0.221-3.62-0.436-7.3,0.388-10.832c1.177-5.041,4.356-9.335,6.792-13.903
							c4.253-7.975,6.308-17.109,5.881-26.137c0.837,17.696,7.1,31.912,2.825,50.393
							C480.081,444.152,469.892,446.729,468.604,425.572z"/>
						<path style="fill:#E13232;" d="M409.607,294.167c-0.206-3.387-0.408-6.83,0.363-10.134c1.101-4.717,4.076-8.733,6.355-13.007
							c3.979-7.462,5.902-16.007,5.502-24.453c0.782,16.557,6.643,29.856,2.643,47.147
							C420.345,311.55,410.813,313.962,409.607,294.167z"/>
						<path style="fill:#E13232;" d="M146.867,505.922c-0.338-2.97-0.688-5.988-1.862-8.737c-1.676-3.925-4.869-6.956-7.499-10.317
							c-4.591-5.867-7.563-12.988-8.506-20.378c1.848,14.485-1.208,26.919,4.901,41.312
							C140.202,522.644,148.842,523.282,146.867,505.922z"/>
						<path style="fill:#E13232;" d="M312.002,212.381c-0.408-2.574-0.828-5.19-1.956-7.54c-1.609-3.354-4.507-5.873-6.926-8.699
							c-4.223-4.935-7.085-11.024-8.188-17.425c2.163,12.546-0.023,23.494,5.849,35.797
							C306.836,227.201,314.386,227.426,312.002,212.381z"/>
						<path style="fill:#EA5C24;" d="M433.001,409.514c9.614-10.68,21.497-19.351,29.741-31.121
							c7.739-11.048,13.859-27.702,11.404-41.402c-2.35-13.113-8.085-25.56-13.567-37.626c-5.035-11.082-8.97-23.98-4.241-35.196
							c-8.772,8.423-13.534,20.905-12.322,33.051c0.469,4.698,0.227,9.491-1.501,13.885c-9.03,22.959-38.975,13.604-49.311-2.297
							c-3.173-4.881-5.246-10.365-6.444-16.067c2.616-13.234,5.534-26.43,5.835-39.887c0.393-17.547-4.462-36.299-17.775-47.737
							c-6.267-5.384-14.002-8.819-20.364-14.09c-11.206-9.286-17.376-24.316-15.926-38.798
							c-7.765,12.373-10.027,28.064-6.074,42.127c1.809,6.436,4.86,12.598,5.415,19.26c0.91,10.917-4.943,21.104-10.271,30.676
							c-0.174,0.311-0.345,0.622-0.513,0.931c-2.107,3.868-7.146,4.917-10.608,2.194c-7.072-5.562-14.184-11.061-19.925-17.95
							c-11.1-13.319-16.165-31.482-13.559-48.624c-4.43,7.465-8.859,14.929-13.288,22.394c-3.065,5.165-6.154,10.383-8.005,16.096
							c-3.363,10.378-2.408,21.68-0.117,32.345c0.511,2.379,1.091,4.742,1.698,7.099c-0.107-0.084-0.2-0.177-0.308-0.259
							c-5.259-4.022-11.786-6.032-17.319-9.667c-5.534-3.635-10.276-10.006-8.741-16.446c-4.722,5.161-2.946,13.448,0.21,19.69
							c3.156,6.242,7.531,12.426,7.222,19.415c-0.117,2.656-1.146,5.53-3.506,6.756c-1.903,0.989-4.232,0.685-6.287,0.186
							c-4.479-1.089-8.701-3.183-12.137-6.255c-10.896-9.744-13.875-24.05-12.746-37.625c-9.424,12.872-9.098,30.204-8.335,46.139
							c0.469,9.805,0.8,20.125-1.173,29.638c-10.579,14.619-32.224,22.556-45.248,7.101c-11.996-14.236-14.377-35.836-5.768-52.342
							c-8.972,2.5-15.757,10.198-19.471,18.74c-3.713,8.542-4.811,17.953-5.869,27.207c-2.751,24.086-7.157,45.875,7.877,67.339
							c8.244,11.77,20.128,20.441,29.742,31.121c9.614,10.68,17.208,25.043,13.877,39.021c-2.366,9.931-18.41,3.838-22.275-1.895
							c-2.208-3.275-3.125-7.263-5.163-10.647c-2.436-4.043-6.332-7.007-9.021-10.886c-3.228-4.656-4.556-10.589-3.622-16.177
							c-6.996,8.216-5.395,20.479-3.132,31.03c2.621,12.222,5.685,24.595,11.536,35.728c5.13,9.762,15.184,19.675,17.761,30.402
							c1.863,7.757-1.497,15.669-3.816,23.302c-2.32,7.633-3.274,16.906,2.216,22.695c7.221,7.616,20.28,4.16,29.65,8.888
							c12.322,6.217,10.915,30.608-5.14,24.623c-5.458-2.034-8.849-7.387-11.698-12.467c-8.633,13.952-5.515,33.999,6.949,44.669
							c5.712,4.89,13.383,8.409,15.955,15.474c-3.609,1.203-7.659,1.029-11.153-0.478c3.914,8.189,12.239,13.423,20.77,16.52
							c10.271,3.729,34.167,4.669,37.714,17.81h108.758c1.822-6.75,11.074-8.713,16.715-11.417
							c9.583-4.593,19.916-7.439,29.32-12.436c10.074-5.353,19.398-13.929,21.462-25.148c-1.658,1.589-3.404,3.231-5.604,3.891
							c-2.2,0.661-4.982-0.009-5.971-2.082c15.142-7.572,22.138-28.126,14.759-43.364c-2.631,7.262-11.085,11.868-18.613,10.142
							c-13.313-3.053-7.764-21.15,1.33-25.739c9.369-4.728,22.429-1.272,29.65-8.888c5.489-5.789,4.536-15.062,2.216-22.695
							c-2.319-7.633-5.679-15.545-3.816-23.302c1.576-6.559,6.587-11.624,10.581-17.06c7.928-10.791,13.982-28.639,13.162-42.037
							c-0.275-4.489-1.313-8.901-1.668-13.384c-0.58-7.338,0.716-14.816,3.73-21.531c-6.852,4.88-11.663,12.54-13.083,20.832
							c-1.278,7.464-0.186,16.043-7.91,20.607c-1.265,0.747-2.672,1.244-4.106,1.567c-21.415,4.829-16.456-8.583-15.054-18.26
							C420.188,426.517,426.148,417.127,433.001,409.514z"/>
						<path style="fill:#E13232;" d="M399.607,474.858c7.238-8.041,16.185-14.569,22.392-23.431
							c5.827-8.318,10.434-20.857,8.586-31.172c-1.769-9.873-6.087-19.244-10.215-28.329c-3.791-8.344-6.753-18.055-3.193-26.499
							c-6.605,6.341-10.19,15.74-9.278,24.884c0.353,3.538,0.171,7.146-1.13,10.454c-6.799,17.286-29.344,10.242-37.127-1.73
							c-2.389-3.675-3.95-7.804-4.852-12.097c1.969-9.964,4.167-19.899,4.393-30.031c0.296-13.211-3.359-27.33-13.383-35.941
							c-4.718-4.054-10.542-6.64-15.332-10.609c-8.437-6.992-13.082-18.308-11.991-29.211c-5.846,9.316-7.549,21.13-4.573,31.718
							c1.362,4.846,3.659,9.485,4.077,14.501c0.685,8.22-3.721,15.889-7.733,23.096c-0.131,0.234-0.259,0.468-0.386,0.701
							c-1.587,2.912-5.38,3.702-7.987,1.652c-5.325-4.187-10.679-8.328-15.002-13.514c-8.357-10.028-12.171-23.703-10.209-36.609
							c-3.335,5.62-6.67,11.241-10.005,16.861c-2.307,3.889-4.633,7.818-6.027,12.119c-2.532,7.814-1.813,16.323-0.088,24.353
							c0.385,1.791,0.822,3.57,1.278,5.345c-0.08-0.063-0.151-0.133-0.232-0.195c-3.96-3.028-8.873-4.542-13.039-7.278
							c-4.166-2.737-7.737-7.534-6.581-12.382c-3.555,3.886-2.218,10.125,0.158,14.825c2.376,4.7,5.67,9.356,5.438,14.617
							c-0.088,2-0.863,4.164-2.639,5.087c-1.433,0.745-3.186,0.516-4.734,0.14c-3.372-0.82-6.551-2.396-9.138-4.71
							c-8.203-7.336-10.446-18.107-9.596-28.328c-7.096,9.692-6.85,22.741-6.276,34.738c0.353,7.382,0.603,15.153-0.883,22.314
							c-7.965,11.006-24.262,16.983-34.068,5.346c-9.032-10.718-10.824-26.981-4.343-39.408c-6.755,1.882-11.864,7.678-14.66,14.109
							c-2.796,6.431-3.622,13.517-4.419,20.484c-2.072,18.134-5.389,34.539,5.931,50.7c6.207,8.861,15.154,15.39,22.393,23.431
							c7.238,8.041,12.956,18.855,10.448,29.379c-1.782,7.477-13.861,2.89-16.771-1.427c-1.662-2.466-2.353-5.469-3.888-8.016
							c-1.834-3.044-4.768-5.275-6.792-8.196c-2.43-3.506-3.43-7.972-2.727-12.18c-5.268,6.186-4.062,15.418-2.358,23.362
							c1.973,9.202,4.28,18.518,8.685,26.9c3.863,7.35,11.432,14.814,13.372,22.89c1.403,5.841-1.127,11.797-2.873,17.545
							c-1.746,5.747-2.465,12.728,1.669,17.087c5.437,5.734,15.269,3.132,22.324,6.692c9.277,4.681,8.218,23.045-3.87,18.539
							c-4.109-1.532-6.662-5.561-8.807-9.386c-6.5,10.505-4.152,25.598,5.232,33.632c4.3,3.682,10.076,6.331,12.013,11.651
							c-2.718,0.906-5.767,0.775-8.397-0.36c2.947,6.166,9.215,10.106,15.638,12.438c7.733,2.808,25.725,3.516,28.395,13.409h81.885
							c1.372-5.082,8.338-6.56,12.585-8.596c7.215-3.458,14.995-5.601,22.075-9.363c7.585-4.03,14.605-10.487,16.159-18.934
							c-1.248,1.196-2.563,2.432-4.219,2.93c-1.656,0.497-3.751-0.007-4.496-1.568c11.401-5.701,16.668-21.176,11.112-32.649
							c-1.981,5.467-8.346,8.936-14.014,7.636c-10.023-2.299-5.845-15.924,1.002-19.379c7.054-3.56,16.887-0.958,22.324-6.692
							c4.133-4.359,3.415-11.34,1.668-17.087c-1.746-5.747-4.276-11.704-2.873-17.545c1.186-4.938,4.959-8.751,7.966-12.844
							c5.969-8.125,10.527-21.563,9.91-31.65c-0.207-3.38-0.989-6.702-1.256-10.077c-0.437-5.525,0.539-11.155,2.808-16.211
							c-5.159,3.675-8.781,9.442-9.85,15.685c-0.962,5.62-0.14,12.079-5.956,15.515c-0.953,0.563-2.012,0.936-3.091,1.18
							c-16.124,3.636-12.39-6.462-11.334-13.748C389.96,487.659,394.447,480.59,399.607,474.858z"/>
					</g>
					<g>
						<g>
							<path style="fill:#E09673;" d="M404.725,440.326c-0.36-0.486-0.755-0.946-1.135-1.418c-0.31-0.401-0.627-0.801-0.962-1.202
								c-0.039-0.046-0.079-0.091-0.118-0.137c-2.989-3.55-6.934-7.106-12.156-10.504c0,0-0.001-0.001-0.001-0.001
								c1.149-3.452-3.833-36.794-7.665-47.525c-3.833-10.732,0-53.658,0-53.658c4.216-25.296,15.331-93.135,15.331-93.135
								c11.115-64.389-9.582-70.522-9.582-70.522c-14.948-4.982-21.846,10.732-22.23,11.881
								c-0.288,0.864-12.311,65.82-13.031,68.222c-3.449,11.498-9.198,24.146-11.881,45.226
								c-2.683,21.08-13.031,40.627-13.031,40.627c0.257-11.066-3.206-19.27-7.914-25.3c-0.305-0.672-0.662-1.261-1.093-1.72
								c0,0-9.201-10.083-20.908-13.17c-0.954-0.301-1.514-0.436-1.514-0.436c-0.154-0.015-0.302-0.013-0.454-0.024
								c-0.861-0.162-1.731-0.285-2.612-0.359c0,0-0.98,0.141-2.573,0.597c-5.135,0.889-9.453,3.624-12.957,6.949
								c-4.178,3.52-8.269,8.627-10.916,16.026c0,0-0.001,0.031-0.002,0.04c-0.25,0.577-0.382,0.918-0.382,0.918l-1.15,21.846
								l-11.259-21.016l-0.048-0.255c0,0-1.593-5.138-5.422-9.954l-0.519-0.969c-5.403-6.425-11.805-7.836-17.664-7.13
								c-0.128,0.014-0.26,0.037-0.389,0.054c-0.484,0.066-0.963,0.146-1.438,0.239c-0.22,0.042-0.437,0.081-0.66,0.13
								c-0.618,0.137-1.224,0.298-1.822,0.472c-0.142,0.042-0.284,0.084-0.427,0.129c-7.313,2.243-12.861,6.873-12.861,6.873
								l-26.446-76.654c-5.749-15.714-19.547-13.414-19.547-13.414c-15.714,1.916-12.648,25.679-12.648,25.679
								s7.167,24.458,14.745,50.374c-0.073,1.723,0.707,3.398,1.486,5.084c0.478,1.636,0.956,3.272,1.432,4.902
								c-0.004,0.194-0.01,0.388-0.036,0.584l0.157-0.169c7.073,24.209,13.717,47.009,14.41,49.607
								c1.533,5.749,6.132,26.829,6.132,26.829c-0.342,2.785-0.633,5.533-0.878,8.249c-0.588,2.884-0.682,5.872-0.635,8.828
								c-4.387,80.162,32.212,128.272,38.306,146.196c6.516,19.163,6.899,47.525,6.899,47.525l-8.432,81.253h141.427
								l-10.732-116.897c-0.358-5.609,0.202-11.309,1.964-16.66c1.104-3.352,2.687-6.233,4.575-8.87
								c0.886-0.97,1.669-1.921,2.276-2.832c0.071-0.107,0.147-0.212,0.218-0.319c2.69-3.146,5.75-6.048,8.85-9.147
								c2.395-2.394,3.881-5.388,5.685-8.206c0.108-0.078,0.214-0.131,0.322-0.214c0,0,22.485-22.485,26.574-33.728
								c0,0,0.794-1.87,1.305-4.974C412.576,456.609,410.301,447.844,404.725,440.326z"/>
							<path style="fill:#EFA382;" d="M270.227,402.152c7.727,6.267,16.779,10.895,26.384,13.488
								c19.361,5.227,40.98,2.37,58.66,11.836c16.248,8.699,25.884,26.301,30.885,44.04c2.186,7.752,3.659,16.02,1.646,23.819
								c5.741-3.994,11.054-8.603,15.821-13.72c3.368-3.616,6.528-7.604,8.037-12.308c2.34-7.294,0.347-15.423-3.569-22.006
								c-3.916-6.583-9.589-11.908-15.185-17.139c-9.728-9.094-19.456-18.188-29.184-27.283c-4.996-4.67-10.154-9.445-16.517-11.949
								c-5.352-2.106-11.2-2.463-16.917-3.086c-7.546-0.822-15.037-2.148-22.406-3.967c-6.866-1.694-13.676-3.823-20.722-4.427
								c-4.862-0.417-9.282,0.282-13.986,1.397c-2.577,0.611-6.104,0.552-8.358,2.085
								C257.244,388.08,265.663,398.45,270.227,402.152z"/>
							<path style="fill:#EFA382;" d="M298.415,307.128c3.134,2.998,3.836,7.695,4.044,12.027c0.16,3.327,0.096,6.822-1.493,9.749
								c-1.463,2.694-4.094,4.656-5.327,7.462c-3.488,7.938,5.818,17.046,2.914,25.216c-0.579,1.63-1.611,3.058-2.315,4.638
								c-2.208,4.956-0.969,10.691,0.304,15.965c6.204,0.487,12.322,2.033,18.012,4.552c1.172-10.668-1.285-21.446-0.552-32.153
								c0.967-14.136,7.431-27.436,8.59-41.558c0.26-3.171,0.243-6.418-0.666-9.467c-0.727-2.44-2.01-4.691-3.574-6.7
								c-5.662-7.274-15.279-11.259-24.426-10.123c-9.851,1.223-20.24,8.432-22.567,18.382c-0.189,0.807-0.259,1.794,0.376,2.328
								c0.59,0.496,1.485,0.328,2.189,0.014c0.827-0.368,1.581-0.899,2.205-1.555c0.975-1.023,3.765-0.658,5.222-0.911
								c2.002-0.347,4.095-0.239,6.127-0.246C290.971,304.736,295.682,304.513,298.415,307.128z"/>
							<path style="fill:#EFA382;" d="M227.248,313.896c1.881,3.315,1.583,7.367,1.804,11.172
								c0.436,7.473,3.148,14.797,7.684,20.751c2.906,3.815,6.641,7.272,7.867,11.909c0.63,2.383,0.533,4.889,0.807,7.338
								c1.228,11,9.8,20.366,10.053,31.432c4.005-5.906,8.009-11.812,12.014-17.718c0.432-0.638,0.878-1.31,0.956-2.077
								c0.078-0.76-0.217-1.502-0.498-2.212c-6.792-17.145-8.947-35.728-10.6-54.095c-0.406-4.506-0.826-9.16-2.978-13.14
								c-3.024-5.594-9.107-9.011-15.33-10.32c-4.966-1.045-16.458-2.758-20.091,2.304
								C214.519,305.395,224.665,309.344,227.248,313.896z"/>
							<path style="fill:#EFA382;" d="M177.458,242.389c-2.637-3.153-5.69-6.24-9.633-7.404c-3.807-1.124-8.437-0.501-11.23-3.321
								c-2.808-2.836-2.046-7.739,0.217-11.027c4.336-6.299,13.569-8.619,20.367-5.117c12.556,6.467,14.738,25.834,18.171,37.834
								c4.125,14.424,10.114,28.221,16.333,41.844c2.777,6.083,3.014,8.888-0.652,14.653c-1.419,2.232-5.032,7.794-7.854,3.979
								c-1.72-2.325-1.173-10.281-1.659-13.331c-0.676-4.239-1.492-8.456-2.488-12.632
								C195.106,271.419,188.38,255.448,177.458,242.389z"/>
							<path style="fill:#EFA382;" d="M340.095,555.854c-0.343,15.308,3.242,30.715,0.86,45.84
								c-3.694,23.451-21.118,42.752-26.143,65.953c15.826,0.131,31.652,0.263,47.479,0.395c2.12,0.018,4.611-0.153,5.764-1.932
								c0.72-1.111,0.676-2.533,0.607-3.855c-1.142-21.909-1.284-44.14-3.445-65.969c-2.157-21.782-6.461-42.854-4.238-64.889
								c0.027-0.265-6.471,2.447-7.051,2.845c-2.598,1.786-4.392,4.361-6.491,6.659
								C343.358,545.367,340.241,549.323,340.095,555.854z"/>
							<path style="fill:#EFA382;" d="M323.496,347.408c2.837-4.695,4.985-9.913,5.42-15.381c0.435-5.468-0.981-11.213-4.563-15.367
								c-3.241,9.175-4.153,19.057-7.531,28.182c-1.393,3.763-4.85,9.793-2.637,13.56
								C318.049,356.107,321.159,351.274,323.496,347.408z"/>
							<path style="fill:#EFA382;" d="M394.04,190.662c1.346,7.608,0.776,15.602-1.485,22.912
								c-1.582,5.117-3.932,10.095-4.255,15.441c-0.194,3.208,0.356,6.408,0.573,9.614c0.733,10.784-2.3,21.49-6.322,31.523
								c-4.022,10.033-9.06,19.655-12.642,29.854c-4.517,12.861-6.645,26.554-6.274,40.179c0.144,5.306-1.343,10.008-1.225,15.246
								c0.157,6.922,1.79,13.719,3.449,20.407c2.2,8.87,4.516,17.71,6.833,26.549c1.388,5.297,2.824,10.703,5.855,15.263
								c3.031,4.56,8.003,8.202,13.479,8.164c-1.581-9.292-3.163-18.584-4.744-27.876c-1.936-11.376-3.875-22.772-4.724-34.28
								c-3.301-44.73,9.877-88.776,18.253-132.839c3.367-17.716,5.901-36.434-0.065-53.451c-1.891-5.395-4.811-10.719-9.613-13.82
								c-2.32-1.499-12.894-5.341-11.982,0.347c0.228,1.424,3.866,4.258,4.89,5.633c1.734,2.329,3.506,4.725,4.972,7.232
								C391.521,181.047,393.176,185.775,394.04,190.662z"/>
							<path style="fill:#FDDED9;" d="M279.267,393.458c16.247,7.765,35.217,6.447,52.802,10.326
								c16.22,3.578,31.399,11.755,43.311,23.33c3.747,3.641,7.198,7.64,9.776,12.184c6.254,11.019,6.918,24.248,10.72,36.334
								c0.659,2.096,2.107,7.428,4.27,7.04c0.835-0.15,1.531-3.558,2.135-4.155c6.794-6.707,10.451-17.7,7.586-26.807
								c-2.866-9.108-11.608-16.567-18.691-22.969c-7.083-6.402-14.949-11.915-21.807-18.558
								c-6.505-6.301-12.229-13.711-20.21-17.991c-5.934-3.182-12.694-4.393-19.325-5.56c-15.283-2.69-30.553-5.778-45.9-8.071
								c-3.86-0.577-9.231-1.928-11.842,1.891C268.286,386.022,274.888,391.365,279.267,393.458z"/>
							<path style="fill:#FDDED9;" d="M304.966,366.157c0.251-3.355,1.159-6.643,1.289-10.005c0.124-3.222-0.47-6.443-0.289-9.663
								c0.388-6.918,4.275-13.14,5.711-19.919c2.321-10.956-2.513-23.087-11.735-29.443c-2.851-1.965-6.329-3.743-7.293-7.07
								c7.714-1.093,15.857,1.321,21.73,6.442c5.872,5.121,9.371,12.86,9.336,20.652c-0.013,2.962-0.509,5.899-1.053,8.809
								c-3.654,19.515-9.641,39.266-6.429,58.859c-4.457,2.249-8.663,2.548-9.271-2.854
								C306.361,376.628,304.556,371.643,304.966,366.157z"/>
							<path style="fill:#FDDED9;" d="M250.37,346.287c-2.012-8.658-2.481-17.646-4.927-26.192
								c-2.446-8.546-7.378-16.998-15.458-20.702c-1.429-0.655-3.26-2.027-2.401-3.343c0.453-0.694,1.416-0.787,2.245-0.809
								c3.094-0.082,6.245-0.157,9.222,0.689c6.626,1.885,11.247,8.057,13.566,14.543c2.319,6.486,2.813,13.458,4.151,20.215
								c0.769,3.885,1.819,7.708,2.868,11.527c3.453,12.572,8.32,25.227,11.02,37.932c-2.842,1.298-4.882,2.732-7.136-0.237
								c-2.21-2.911-3.412-7.329-4.888-10.67C255.344,361.798,252.217,354.233,250.37,346.287z"/>
							<path style="fill:#FDDED9;" d="M173.516,228.154c10.803,10.372,18.567,23.433,26.195,36.321
								c-4.384-10.676-8.258-21.561-11.604-32.606c-2.11-6.965-5.227-17.837-13.827-19.064c-3.171-0.452-6.847,0.808-7.452,4.315
								C166.051,221.633,170.669,225.42,173.516,228.154z"/>
							<path style="fill:#FDDED9;" d="M350.489,537.75c-1.012,2.022-1.32,4.315-1.561,6.563c-1.218,11.358-1.1,22.859,0.351,34.189
								c0.703,5.493,1.719,10.952,2.094,16.477c0.345,5.092,0.143,10.206-0.237,15.295c-1.434,19.202-5.51,38.498-14.727,55.403
								c10.263,1.08,20.654,0.931,30.882-0.443c0.645-0.086,1.351-0.212,1.764-0.714c0.404-0.492,0.399-1.193,0.372-1.829
								c-0.69-16.405-2.389-32.767-5.083-48.964c-1.304-7.84-2.841-15.64-4.179-23.474c-0.723-4.234-0.064-9.05-0.466-13.326
								c-1.309-13.928-1.129-27.376-0.785-41.361C359.026,531.031,351.408,535.915,350.489,537.75z"/>
							<path style="fill:#FDDED9;" d="M393.441,238.814c-1.666,6.871-3.878,13.607-5.347,20.523
								c-3.184,14.985-2.819,30.474-2.164,45.779c-0.839-9.335,1.332-18.644,3.313-27.805c4.281-19.794,7.744-39.765,10.376-59.845
								c1.581-12.059,2.861-24.29,1.356-36.358c-0.27-2.163-3.503-17.94-8.181-11.57c-1.506,2.051,0.836,7.113,1.332,9.385
								c0.863,3.96,1.543,7.96,2.04,11.982C398.139,206.866,397.231,223.183,393.441,238.814z"/>
							<g>
								<path style="fill:#FDDED9;" d="M375.423,425.544c-0.319,0.494-9.355-4.752-20.253-11.429
									c-5.331-3.284-11.27-3.115-15.46-3.955c-4.257-0.691-6.632-2.137-6.5-2.354c0.129-0.281,2.54,0.629,6.689,0.936
									c2.069,0.2,4.571,0.268,7.397,0.64c2.802,0.33,6.041,1.272,8.865,2.969C367.189,419.104,375.711,425.102,375.423,425.544z"
									/>
							</g>
							<g>
								<path style="fill:#FDDED9;" d="M305.667,363.269c-0.228-0.063,0.245-1.99,0.438-5.122c0.091-1.566,0.092-3.43-0.135-5.481
									c-0.216-2.057-0.665-4.327-0.921-6.799c-0.52-4.978,0.315-9.513,1.352-12.577c1.042-3.085,2.169-4.769,2.331-4.685
									c0.218,0.1-0.546,1.928-1.289,4.984c-0.741,3.046-1.364,7.379-0.868,12.125c0.244,2.375,0.655,4.675,0.803,6.826
									c0.158,2.155,0.042,4.109-0.193,5.717C306.7,361.485,305.843,363.328,305.667,363.269z"/>
							</g>
							<g>
								<path style="fill:#FDDED9;" d="M252.415,353.711c-0.149,0.093-1.334-1.51-2.328-4.52c-1.045-2.991-1.641-7.316-2.244-11.971
									c-0.609-4.647-1.657-8.735-3.012-11.443c-1.31-2.729-2.673-4.105-2.493-4.277c0.096-0.128,1.782,1.019,3.421,3.78
									c1.677,2.728,2.943,7.012,3.559,11.736c0.611,4.717,1.027,8.926,1.782,11.887
									C251.799,351.872,252.622,353.603,252.415,353.711z"/>
							</g>
							<g>
								<path style="fill:#FDDED9;" d="M264.555,382.129c-0.078,0.186-2.181-0.946-3.888-4.116c-0.87-1.545-1.629-3.497-2.426-5.618
									c-0.787-2.142-1.647-4.485-2.551-6.946c-1.737-4.938-3.396-9.431-4.002-12.907c-0.646-3.462-0.31-5.661-0.11-5.644
									c0.255,0,0.34,2.123,1.249,5.385c0.861,3.264,2.673,7.65,4.419,12.61c1.824,4.911,3.139,9.542,4.465,12.595
									C263.041,380.582,264.722,381.929,264.555,382.129z"/>
							</g>
							<g>
								<path style="fill:#FDDED9;" d="M191.783,251.283c-0.383,0.291-6.128-6.611-12.832-15.417
									c-1.671-2.209-3.23-4.26-4.945-5.804c-1.715-1.562-3.489-2.824-4.866-4.052c-2.86-2.41-3.808-4.674-3.592-4.753
									c0.224-0.127,1.438,1.734,4.364,3.794c1.428,1.07,3.26,2.21,5.156,3.809c1.918,1.606,3.605,3.754,5.268,5.952
									C187.041,243.617,192.166,250.992,191.783,251.283z"/>
							</g>
							<g>
								<path style="fill:#FDDED9;" d="M394.264,222.113c0.239-0.021,0.736,2.687,0.463,7.091
									c-0.234,4.405-1.474,10.377-3.209,16.767c-1.735,6.393-3.204,12.139-3.854,16.381c-0.687,4.232-0.769,6.912-1.101,6.922
									c-0.241,0.017-0.687-2.698-0.362-7.095c0.288-4.4,1.568-10.355,3.303-16.742c1.734-6.388,3.16-12.142,3.759-16.39
									C393.897,224.81,393.93,222.128,394.264,222.113z"/>
							</g>
							<g>
								<path style="fill:#FDDED9;" d="M379.844,329.849c-0.388-0.009-0.691-3.883-0.428-10.133
									c0.242-6.25,1.168-14.833,2.422-24.228c1.253-9.396,2.324-17.867,2.907-24.027c0.605-6.155,0.867-9.993,1.309-10
									c0.382-0.009,0.869,3.852,0.799,10.117c-0.047,6.263-0.799,14.885-2.055,24.298c-1.278,9.363-2.435,17.838-3.279,24.021
									C380.723,326.038,380.279,329.861,379.844,329.849z"/>
							</g>
							<g>
								<path style="fill:#FDDED9;" d="M400.352,479.127c0.072,0.011,0.147,0.254-0.035,0.672c-0.181,0.402-0.683,0.962-1.588,1.118
									c-0.442,0.074-1.016,0.03-1.542-0.33c-0.502-0.339-0.841-0.884-1.067-1.413c-0.418-1.056-0.758-2.105-1.19-3.353
									c-1.688-4.911-3.835-11.738-6.705-19.047c-2.876-7.305-6.141-13.606-8.936-17.907c-2.757-4.325-4.805-6.805-4.517-7.071
									c0.211-0.208,2.75,1.874,5.964,6.062c3.246,4.154,6.878,10.547,9.808,17.998c2.927,7.455,4.82,14.422,6.078,19.469
									c0.297,1.241,0.567,2.368,0.806,3.367c0.25,0.893,0.642,1.236,1.223,1.258C399.865,479.965,400.199,479.048,400.352,479.127
									z"/>
							</g>
							<g>
								<path style="fill:#FDDED9;" d="M348.848,596.518c0.838-0.03,2.249,16.515,0.935,37.011
									c-0.386,5.143-1.173,10.093-2.576,14.438c-1.387,4.349-3.355,8.042-5.467,10.79c-2.125,2.773-4.239,4.562-5.976,5.616
									c-0.904,0.497-1.827,0.624-2.402,0.415c-0.578-0.204-0.696-0.536-0.639-0.601c0.134-0.154,1.04,0.315,2.356-0.858
									c1.248-1.17,3.097-3.166,4.802-5.871c1.731-2.711,3.349-6.229,4.496-10.342c1.163-4.114,1.832-8.821,2.208-13.835
									C347.882,613.077,347.917,596.534,348.848,596.518z"/>
							</g>
							<g>
								<path style="fill:#FDDED9;" d="M294.703,292.515c-0.03,0.177-2.829-0.831-6.258-0.06c-3.442,0.708-5.58,2.778-5.68,2.629
									c-0.135-0.051,1.939-2.419,5.563-3.173C291.941,291.107,294.805,292.413,294.703,292.515z"/>
							</g>
							<g>
								<path style="fill:#FDDED9;" d="M352.797,603.784c-0.332-0.003-0.516-2.986-0.759-7.755
									c-0.241-4.784-0.744-11.272-2.782-18.225c-0.967-3.497-1.986-6.842-2.751-9.955c-0.766-3.113-1.254-5.996-1.412-8.444
									c-0.334-4.93,0.65-7.898,0.902-7.831c0.369,0.054-0.011,3.005,0.717,7.656c0.356,2.323,0.983,5.058,1.845,8.076
									c0.86,3.02,1.936,6.33,2.921,9.89c0.978,3.557,1.686,7.081,1.961,10.296c0.298,3.213,0.296,6.104,0.228,8.518
									C353.494,600.836,353.101,603.787,352.797,603.784z"/>
							</g>
							<g>
								<path style="fill:#FDDED9;" d="M349.609,303.182c-0.661-0.153,0.17-6.455,2.047-16.519
									c0.939-5.032,2.139-11.005,3.545-17.62c0.636-3.288,1.391-6.707,1.984-10.251c0.537-3.555,0.908-7.401,1.81-11.407
									c1.039-4.573,2.71-8.712,4.283-12.547c0.777-1.898,1.538-3.756,2.279-5.566c0.664-1.62,1.566-4.174,1.366-3.962
									c-0.009-0.033-0.011-0.05-0.037-0.095c-0.05-0.071-0.148-0.181-0.305-0.317c-0.314-0.278-0.802-0.61-1.368-1.108
									c-0.572-0.483-1.189-1.262-1.53-2.04c-0.362-0.796-0.506-1.62-0.526-2.358c-0.023-2.927,1.215-5.02,1.885-6.653
									c1.433-3.4,2.301-6.627,3.022-9.3c1.378-5.38,2.292-8.558,2.792-8.462c0.453,0.088,0.446,3.331-0.202,8.963
									c-0.364,2.812-0.907,6.247-2.186,10.098c-0.345,0.999-0.699,1.878-0.93,2.731c-0.243,0.859-0.377,1.726-0.309,2.399
									c0.09,0.712,0.255,0.972,0.752,1.387c0.444,0.324,0.894,0.652,1.348,0.983c0.291,0.229,0.619,0.516,0.941,0.895
									c0.344,0.405,0.642,0.9,0.833,1.421c0.311,0.819,0.313,1.818,0.199,2.479c-0.109,0.698-0.294,1.267-0.445,1.739
									c-0.304,0.939-0.626,1.884-0.966,2.83c-0.68,1.892-1.423,3.794-2.17,5.715c-1.49,3.84-3.009,7.764-3.934,11.853
									c-0.819,3.612-1.225,7.364-1.847,11.072c-0.684,3.701-1.557,7.198-2.328,10.522c-1.648,6.559-3.199,12.451-4.57,17.382
									C352.296,297.311,350.269,303.335,349.609,303.182z"/>
							</g>
							<g>
								<path style="fill:#FDDED9;" d="M272.202,359.679c-0.642,0.03-1.423-12.795,0.882-28.407
									c0.558-3.892,1.263-7.591,1.985-10.902c0.352-1.623,0.575-3.097,0.373-4.372c-0.147-1.195-0.992-2.58-0.999-4.152
									c-0.049-1.51,0.48-2.769,1.051-3.703c0.579-0.947,1.243-1.613,1.815-2.1c1.164-0.962,1.966-1.219,2.048-1.092
									c0.106,0.153-0.501,0.683-1.362,1.761c-0.809,1.046-2.035,2.842-1.815,5.018c0.048,1.045,0.855,2.121,1.268,3.89
									c0.369,1.707,0.145,3.491-0.152,5.179c-0.6,3.337-1.224,6.974-1.777,10.827C273.246,347.015,272.92,359.679,272.202,359.679
									z"/>
							</g>
							<g>
								<path style="fill:#FDDED9;" d="M233.66,378.756c-0.31,0.183-2.516-2.639-5.572-7.59c-2.954-4.929-6.997-12.284-8.033-21.411
									c-0.256-2.205-0.465-4.241-1.12-5.97c-0.643-1.745-1.722-3.363-2.732-5.001c-2.183-3.259-3.321-6.965-3.49-9.951
									c-0.213-3.031,0.315-5.455,0.854-7.023c0.554-1.576,1.094-2.336,1.255-2.271c0.459,0.126-0.971,3.58-0.162,9.074
									c0.433,2.75,1.514,5.754,3.69,8.789c1.039,1.568,2.275,3.269,3.121,5.416c0.853,2.161,1.079,4.456,1.336,6.611
									c0.952,8.51,4.502,15.665,6.997,20.791C232.381,375.342,234.009,378.55,233.66,378.756z"/>
							</g>
							<g>
								<path style="fill:#FDDED9;" d="M201.197,301.447c-0.598,0.153-3.946-10.889-7.477-24.663
									c-1.755-6.901-3.224-13.128-4.545-17.56c-1.283-4.443-2.28-7.143-1.98-7.28c0.26-0.124,1.785,2.381,3.479,6.773
									c1.73,4.379,3.463,10.633,5.213,17.512C199.418,290.003,201.795,301.294,201.197,301.447z"/>
							</g>
							<g>
								<path style="fill:#FDDED9;" d="M235.028,657.407c-0.148,0.034-0.563-0.793-0.792-2.413
									c-0.253-1.612-0.229-4.028,0.367-6.874c0.559-2.856,1.712-6.088,2.876-9.593c1.188-3.529,2.223-7.283,2.336-11.484
									c0.183-4.188-0.053-8.339,0.256-12.151c0.271-3.796,0.876-7.174,1.561-9.956c1.397-5.572,3.038-8.74,3.352-8.621
									c0.39,0.134-0.592,3.496-1.472,9.002c-0.429,2.754-0.819,6.045-0.946,9.71c-0.167,3.649,0.145,7.718-0.042,12.144
									c-0.103,2.203-0.362,4.407-0.878,6.464c-0.5,2.053-1.155,3.949-1.808,5.719c-1.322,3.533-2.615,6.586-3.374,9.231
									C234.812,653.86,235.472,657.333,235.028,657.407z"/>
							</g>
							<path style="fill:#040508;" d="M259.137,432.266c6.301,4.412,13.343,8.875,15.975,16.103
								c2.721,7.471-0.057,15.945,1.886,23.656c2.368-4.962,4.736-9.923,7.105-14.884c1.338-2.804,2.687-5.626,4.511-8.141
								c3.524-4.859,8.897-8.764,10.168-14.63c-7.318-1.361-14.248-4.747-19.819-9.683c-0.495-0.439-1.014-0.908-1.662-1.041
								c-0.828-0.17-1.651,0.244-2.403,0.628c-4.445,2.268-9.762,3.922-14.346,1.952c-2.349-1.01-4.214-2.858-6.131-4.55
								c-1.241-1.096-5.135-5.263-6.817-5.212c-2.526,0.076-0.295,3.552,0.488,4.919
								C250.676,425.901,254.936,429.325,259.137,432.266z"/>
							<path style="fill:#040508;" d="M237.52,570.63c0.501-5.427,1.289-11.115,4.556-15.478c4.85-6.477,13.746-8.256,21.831-8.591
								c3.62-0.15,7.247-0.108,10.863,0.126c-14.433-4.377-30.474-3.992-43.561-11.488c1.642,10.408,3.592,20.766,5.846,31.059"/>
							<g>
								<path style="fill:#BE633C;" d="M378.293,479.793c-1.846-1.676-4.102-3.172-6.371-4.742
									c-4.207-2.741-7.225-6.104-9.151-8.996c-1.682-3.476-3.122-7.151-4.989-10.503c-2.423-4.352-5.68-8.225-9.505-11.414
									c0.408,0.256,0.815,0.513,1.208,0.781c4.021,2.757,7.291,5.92,10.118,8.509c5.58,5.314,9.631,8.073,9.941,7.652
									c0.299-0.402-2.994-3.721-8.087-9.49c-2.606-2.832-5.748-6.283-10.008-9.448c-2.129-1.57-4.571-3.025-7.317-4.112
									c-2.754-1.08-5.636-1.71-8.467-2.387c-21.918-5.185-39.978-8.674-41.605-8.07c-1.454-0.522-2.89-1.09-4.278-1.779
									c-1.904-0.947-3.716-2.064-5.543-3.151c-5.442-3.238-11.034-6.219-16.658-9.128c2.757,4.706,6.561,7.38,10.817,10.538
									c1.787,1.326,3.097,2.697,5.142,3.761c2.565,1.335,5.215,2.498,7.878,3.62c2.564,1.081,5.197,2.075,7.858,3.036
									c-0.029,0.009-0.058,0.011-0.087,0.02c-0.704,0.225-1.312,0.633-1.868,1.118c-6.277-2.083-12.165-5.336-17.246-9.571
									c-1.584-1.32-3.208-2.79-5.24-3.133c-1.676-0.282-3.365,0.253-5.026,0.61c-8.873,1.907-18.693-1.667-24.266-8.83
									c-3.913-5.029-5.679-11.34-7.964-17.288c-3.283-8.546-6.305-16.056-12.936-22.347c-7.936-7.528-11.706-20.513-15.843-30.724
									c-2.273-5.611-4.461-11.411-4.593-17.464c-0.199-9.108,4.239-17.597,8.558-25.618c-8.038,7.13-15.102,15.356-20.935,24.379
									c-2.523,3.902-4.866,8.099-5.394,12.716c-0.542,4.734,0.871,9.449,2.268,14.005c2.699,8.805,6.226,18.594,14.596,22.435
									c1.892,0.868,3.964,1.384,5.682,2.558c4.664,3.187,5.101,9.778,5.073,15.427c-0.016,3.195-0.097,6.417-0.192,9.652
									c-0.006,0.212-0.013,0.425-0.019,0.637c-0.287-1.897-0.654-3.649-1.059-5.217c-1.619-6.153-3.67-9.544-3.993-9.395
									c-0.434,0.172,0.891,3.804,1.926,9.839c0.504,3.015,0.918,6.632,0.927,10.651c0,4.005-0.542,8.559-0.639,13.33
									c-0.113,9.774,2.417,18.422,5.091,24.138c2.609,5.621,5.103,8.594,5.498,8.554c4.448,8.809,10.102,17.149,15.138,25.476
									c4.116,6.805,8.243,13.722,11.546,20.943c-0.987-1.268-1.967-2.392-2.859-3.337c-1.59-1.646-2.71-2.91-3.388-3.906
									c-0.689-0.977-1.022-1.632-1.339-1.587c-0.283,0.032-0.538,0.833-0.249,2.244c0.264,1.408,1.225,3.27,2.531,5.189
									c2.484,3.744,5.9,8.965,7.334,15.277c0.348,1.566,0.557,3.112,0.576,4.603c0.016,1.493-0.043,2.965-0.377,4.018
									c-0.571,2.049-2.686,3.712-4.412,4.95c-3.072,2.127-5.56,3.013-6.079,3.633c-2.673,0.298-5.833,0.145-7.773,1.387
									c-2.11,1.351-0.308,3.371,1.452,4.61c-0.254,0.203-0.534,0.387-0.744,0.62c-2.231,2.474-1.202,4.125-0.709,7.283
									c3.238,20.734,6.493,41.784,1.804,62.589c-1.004,4.454-2.365,8.932-2.045,13.487l2.003-0.544
									c1.418-14.956,4.545-30.394,13.96-42.531c4.584-5.909,11.476-10.523,19.022-13.821c-1.118,0.878-2.202,1.746-3.246,2.569
									c-3.779,3.032-7.127,5.915-9.723,8.576c-5.255,5.31-7.335,9.547-6.956,9.765c0.439,0.299,3.158-3.295,8.65-7.952
									c2.728-2.348,6.143-4.958,10.009-7.832c3.893-2.858,7.99-6.199,12.772-8.409c2.202-1.033,4.484-1.655,6.771-2.037
									c0.482-0.076,0.96-0.143,1.436-0.208c2.159-0.268,4.31-0.351,6.39-0.351c4.742,0.006,9.154,0.221,12.884-0.044
									c3.487-0.205,6.319-0.852,8.269-1.601c0.52-0.113,1.044-0.204,1.561-0.34c2.306-0.606,4.701-1.69,6.56-3.204
									c0.576-0.167,1.151-0.336,1.72-0.52c8.3-2.678,16.185-7.293,23.169-12.5c1.183-0.882,2.511-2.154,2.105-3.573
									c-0.042-0.148-0.109-0.297-0.233-0.388c-0.129-0.094-0.298-0.109-0.457-0.114c-2.535-0.076-4.538,1.556-6.93,2.019
									c-1.244,0.241-2.86-0.106-4.62-0.764c-1.577-1.197-4.433-3.163-8.044-5.925c-2.9-2.199-6.284-4.913-10.059-7.949
									c-3.777-2.965-7.651-6.392-10.618-10.816c-1.473-2.2-2.604-4.522-3.405-6.867c-0.773-2.338-1.199-4.757-1.491-7.086
									c-0.558-4.659-0.453-8.964-0.269-12.582c0.432-7.247,0.877-11.81,0.351-11.883c-0.436-0.062-1.746,4.297-2.831,11.648
									c-0.507,3.675-0.891,8.144-0.48,13.148c0.22,2.488,0.602,5.126,1.437,7.821c0.67,2.092,1.601,4.167,2.76,6.149
									c-6.308-8.324-9.979-18.261-8.693-29.48c0.811-7.075,3.34-13.826,6.937-19.945c0.757-0.841,1.735-1.97,2.992-3.264
									c2.764-2.83,7.062-6.353,12.708-7.906c2.805-0.781,5.597-1.009,8.095-0.802c2.502,0.187,4.694,0.868,6.577,1.559
									c3.741,1.446,6.184,2.524,6.475,2.008c0.25-0.44-1.55-2.315-5.266-4.559c-1.861-1.083-4.36-2.211-7.337-2.659
									c-2.955-0.47-6.309-0.317-9.619,0.607c-0.356,0.098-0.682,0.233-1.026,0.345c2.371-1.672,7.066-5.15,8.028-6.27
									c6.646,3.106,12.852,6.953,18.056,12.379c11.408,11.895,15.341,29.009,24.314,42.833c2.611,4.022,7.299,8.204,11.603,6.088
									c4.276-2.103,3.874-8.24,2.82-12.887c-0.921-4.059-1.946-8.32-4.777-11.372c-1.935-2.085-4.544-3.407-6.719-5.24
									c-0.17-0.143-0.306-0.313-0.469-0.46c0.561,0.427,1.145,0.84,1.752,1.234c2.313,1.599,4.52,3.01,6.312,4.522
									c1.792,1.488,3.142,3.115,4.037,4.613c1.817,3.033,1.595,5.393,1.888,5.385c0.177,0.092,0.907-2.445-0.795-5.971
									C381.529,483.321,380.159,481.463,378.293,479.793z M283.356,458.352c-1.601,2.251-2.927,4.66-3.548,7.358
									c-1,4.346-2.038,6.151-4.979,8.972c1.075-2.363,2.166-4.718,3.279-7.057c1.478-3.108,9.92-20.463,15.951-28.041
									C289.797,445.344,286.188,451.68,283.356,458.352z"/>
								<path style="fill:#BE633C;" d="M317.172,384.986c-1.438,1.369-1.4,2.546,2.997,2.609c0.795,0.012,1.585,0.033,2.376,0.049
									c1.987,0.307,4.182,0.288,6.307,0.226c2.896,0.169,5.784,0.445,8.687,0.912c3.592,0.578,7.187,1.374,10.475,2.932
									c3.536,1.675,6.605,4.178,9.586,6.712c10.324,8.781,20.168,18.341,31.979,24.989c-5.344-9.319-10.466-18.765-15.359-28.329
									c-1.638-3.201-3.307-6.491-5.962-8.916c-2.146-1.96-4.819-3.24-7.513-4.328c-5.345-2.157-11.113-3.577-16.888-4.032
									c-0.019-0.403-0.044-0.799-0.075-1.193c2.765-0.011,5.28,0.143,7.343,0.241c3.725,0.217,6.056,0.277,6.082,0.024
									c0.025-0.24-2.239-0.745-5.958-1.288c-2.097-0.282-4.699-0.59-7.606-0.663c-0.745-8.305-1.38-16.635-1.115-24.967
									c0.471-14.864,3.777-29.468,6.437-44.1c2.126-11.693,3.847-23.46,5.159-35.273c1.163-10.473,2.007-20.999,3.961-31.354
									c1.135-6.014,2.642-11.958,3.55-18.01c1.168-7.788,2.558-22.758,1.605-30.576c-3.99,8.493-6.882,24.88-8.626,34.101
									c-6.8,35.962-15.322,71.598-25.527,106.746c-1.541,5.309-3.136,10.644-5.683,15.55c-1.721,3.315-3.867,6.412-5.355,9.839
									c-3.239,7.287-3.85,17.326-2.25,25.122C316.051,383.246,316.538,384.206,317.172,384.986z"/>
							</g>
						</g>
						<g>
							<g>
								<g>
									<path style="fill:#040508;" d="M239.535,585.738c-0.266-17.496-1.724-37.04-9.038-53.122
										c-6.429-14.134-14.189-27.537-19.957-42c-9.353-23.453-15.013-48.269-16.284-73.506
										c-0.383-7.615-0.394-15.247-0.046-22.864c0.185-4.056,0.471-8.107,0.854-12.149c0.243-2.573,0.929-5.385,0.655-7.942
										c-0.88-8.189-3.613-16.696-5.595-24.684c-7.137-28.757-16.523-57.104-24.845-85.536
										c-1.921-6.563-3.842-13.126-5.765-19.688c-0.534-1.824-1.026-3.667-1.605-5.478c-0.285-0.893-0.5-1.809-0.431-1.372
										c-1.003-6.345-0.186-15.436,4.469-20.202c5.372-5.5,14.912-3.411,19.848,2.252c3.375,3.873,4.699,9.248,6.344,14.016
										c2.531,7.336,5.062,14.672,7.593,22.007c5.107,14.804,10.214,29.607,15.322,44.411c0.322,0.932,0.643,1.864,0.965,2.797
										c0.546,1.583,2.269,1.963,3.521,0.93c9.837-8.12,26.385-11.585,33.455,1.613c5.248,9.796,10.496,19.593,15.744,29.389
										c1.038,1.937,3.821,0.919,3.926-1.063c0.355-6.738,0.797-13.477,1.064-20.218c0.07-1.77-0.033-1.127,0.994-3.26
										c1.638-3.403,3.608-6.702,5.949-9.67c4.817-6.11,12.825-12.446,21.156-10.599c5.319,1.179,10.745,4.42,14.969,7.725
										c9.639,7.544,14.24,18.531,14.128,30.657c-0.019,2.037,2.94,2.938,3.926,1.063c3.543-6.744,6.351-13.986,8.673-21.228
										c4.183-13.049,4.969-26.695,8.456-39.903c2.377-9.002,5.963-17.623,8.382-26.602c1.841-6.833,3.057-13.865,4.374-20.813
										c2.772-14.625,5.165-29.317,7.87-43.953c0.705-3.812,2.943-7.122,5.848-9.701c3.878-3.441,9.249-4.733,14.191-2.788
										c0.184,0.072-0.233-0.173,0.531,0.269c6.151,3.554,8.474,12.643,9.624,19.22c2.994,17.132,0.174,34.912-2.605,51.86
										c-2.487,15.175-4.978,30.35-7.474,45.524c-2.495,15.17-5.91,30.493-7.461,45.79c-0.751,7.406-1.086,14.89-1.37,22.324
										c-0.342,8.944-0.797,18.243,0.66,27.12c1.365,8.32,4.234,16.455,5.685,24.827c0.944,5.444,1.783,10.914,2.388,16.406
										c0.294,2.667,1.147,6.247,0.467,8.907c-0.183,0.715-0.008,1.532,0.542,2.05c3.103,2.923,6.85,4.949,9.889,8.043
										c5.782,5.886,10.184,13.324,10.479,21.746c0.586,16.776-15.627,27.85-24.994,39.737c-1.876,2.38-3.535,4.865-5.119,7.446
										c-2.189,3.565-4.856,6.267-7.792,9.21c-4.4,4.412-8.607,9.094-11.179,14.841c-3.151,7.043-3.809,14.847-3.152,22.456
										c2.438,28.229,5.181,56.436,7.771,84.652c0.927,10.102,1.855,20.204,2.782,30.307c0.702-0.702,1.404-1.404,2.107-2.107
										c-41.269,0-82.538,0-123.808,0c-5.873,0-11.746,0-17.619,0c0.702,0.702,1.404,1.404,2.106,2.107
										C233.914,639.906,236.725,612.822,239.535,585.738c0.279-2.694-3.936-2.674-4.213,0
										c-2.811,27.084-5.621,54.169-8.432,81.253c-0.118,1.134,1.061,2.107,2.107,2.107c41.269,0,82.538,0,123.807,0
										c5.873,0,11.746,0,17.619,0c1.062,0,2.211-0.968,2.106-2.107c-2.341-25.503-4.682-51.006-7.024-76.509
										c-1.148-12.509-2.297-25.019-3.445-37.528c-0.715-7.783-0.347-15.833,3.288-22.934c3.465-6.768,9.295-11.296,14.247-16.847
										c4.889-5.481,8.172-12.179,13.146-17.701c10.127-11.244,23.132-22.839,21.287-39.482
										c-0.799-7.209-4.059-13.639-8.648-19.178c-3.806-4.595-8.577-7.287-12.772-11.238c0.181,0.683,0.361,1.366,0.542,2.05
										c1.526-5.975-0.723-13.863-1.605-19.796c-1.349-9.064-2.783-18.333-5.489-27.108c-2.253-7.304-2.265-14.85-2.185-22.454
										c0.092-8.701,0.562-17.399,1.191-26.076c1.038-14.326,4.203-28.569,6.534-42.732c2.808-17.064,5.61-34.13,8.408-51.196
										c2.756-16.81,5.516-33.946,3.521-51.004c-1.018-8.701-3.274-19.593-10.683-25.309c-8.281-6.388-19.69-1.286-25.075,6.395
										c-2.204,3.144-2.968,5.811-3.616,9.478c-1.306,7.387-2.581,14.779-3.896,22.165c-2.765,15.524-4.89,31.562-9.87,46.57
										c-3.818,11.506-7.593,22.885-9.551,34.892c-2.231,13.683-5.031,26.579-10.631,39.345c-0.936,2.133-1.907,4.26-2.991,6.324
										c1.309,0.354,2.617,0.709,3.926,1.063c0.183-19.882-12.296-35.997-31.018-42.079c-7.439-2.417-15.605,1.079-21.268,5.919
										c-5.262,4.497-11.313,12.01-13.098,18.924c-0.778,3.014-0.461,6.612-0.624,9.704c-0.226,4.299-0.453,8.599-0.679,12.898
										c1.309-0.354,2.617-0.709,3.926-1.063c-2.64-4.927-5.279-9.854-7.919-14.782c-3.015-5.629-5.652-11.81-9.18-17.136
										c-9.098-13.736-28.131-8.676-38.718,0.063c1.174,0.31,2.347,0.62,3.521,0.93c-8.767-25.412-17.057-51.043-26.316-76.278
										c-2.778-7.571-8.239-13.79-16.479-15.16c-6.49-1.079-12.953,1.202-16.522,6.96c-5.341,8.616-4.127,18.678-1.46,27.783
										c9.434,32.208,18.905,64.406,28.224,96.648c1.204,4.167,2.369,8.317,3.361,12.541c1.196,5.092,2.333,10.197,3.464,15.304
										c0.363,1.639,0.933,3.379,1.113,5.05c0.273,2.526-0.371,5.121-0.615,7.692c-2.738,28.933-0.318,58.287,7.641,86.26
										c5.418,19.04,13.47,37.022,22.483,54.597c2.587,5.046,5.467,10.081,7.39,15.43c4.49,12.49,5.837,26.282,6.627,39.451
										c0.158,2.631,0.291,5.267,0.331,7.902C235.363,588.446,239.577,588.454,239.535,585.738z"/>
								</g>
							</g>
							<g>
								<g>
									<path style="fill:#040508;" d="M392.61,425.574c-9.792-8.536-19.585-17.072-29.377-25.608
										c-1.432-1.249-3.004-2.43-4.339-3.782c0.302,0.305-0.024-0.116-0.569-0.749c-0.879-1.021-1.759-1.944-2.818-2.79
										c-6.716-5.362-15.489-4.998-23.573-6.181c-16.169-2.365-32.152-5.727-48.234-8.584
										c-8.482-1.507-20.493,1.902-24.442,10.077c-5.007,10.366,2.986,24.311,9.943,31.6
										c14.879,15.59,37.015,15.374,54.816,25.526c6.857,3.91,12.965,10.141,18.268,15.819
										c5.346,5.725,7.497,12.046,10.622,19.037c4.281,9.576,14.16,32.953,28.487,27.552c5.21-1.964,9.246-7.886,12.798-11.835
										c6.167-6.855,12.995-14.225,16.994-22.628c5.436-11.425,2.551-25.22-4.885-35.039c-3.878-5.121-8.806-9.188-14.119-12.744
										c-2.259-1.512-4.371,2.136-2.126,3.638c13.001,8.701,24.159,24.081,18.201,40.33c-2.567,7.001-8.108,13.138-12.871,18.711
										c-4.058,4.749-8.212,10.175-13.041,14.176c-11.587,9.6-22.951-17.839-26.17-25.119c-2.282-5.159-3.995-10.6-7.494-15.094
										c-5.331-6.846-12.192-12.985-19.14-18.189c-13.5-10.11-32.155-10.502-46.608-18.785
										c-10.197-5.844-18.975-15.766-20.73-27.718c-1.205-8.208,4.371-12.818,11.711-14.545c2.082-0.49,4.162-0.678,6.284-0.85
										c0.513-0.042,1.058-0.059,1.573-0.03c-0.805-0.045-0.054,0.021,0.483,0.108c14.264,2.318,28.398,5.445,42.674,7.739
										c8.041,1.292,19.136,0.853,26.146,5.053c3.121,1.869,5.646,5.196,8.414,7.608c10.047,8.758,20.094,17.516,30.141,26.274
										C391.666,430.328,394.658,427.36,392.61,425.574z"/>
								</g>
							</g>
							<g>
								<g>
									<path style="fill:#040508;" d="M299.051,432.857c-5.956,7.247-11.086,15.335-15.427,23.631
										c-6.988,13.358-12.816,29.199-9.654,44.448c3.366,16.233,14.141,31.333,27.715,40.659
										c5.494,3.774,11.845,6.818,18.535,7.562c7.383,0.821,14.443-2.397,21.021-5.386c9.349-4.249,19.088-9.788,26.174-17.367
										c5.761-6.161,10.122-13.496,16.123-19.537c1.468-1.478-0.011-4.107-2.05-3.521c-11.177,3.214-15.717-9.468-19.788-17.331
										c-4.273-8.254-7.892-17.844-13.964-24.985c-7.177-8.441-16.478-16.529-26.263-21.762
										c-6.287-3.362-13.585-4.905-20.373-6.954c-2.601-0.785-3.713,3.28-1.12,4.063c7.749,2.339,15.764,4.119,22.681,8.471
										c8.717,5.485,18.843,13.356,24.316,22.308c5.906,9.661,10.338,20.182,15.921,30.03
										c4.261,7.516,10.535,12.862,19.711,10.223c-0.683-1.174-1.366-2.347-2.049-3.521c-4.312,4.341-8.329,9.049-11.926,13.998
										c-4.962,6.824-10.781,11.779-18.022,16.171c-7.375,4.473-16.089,9.309-24.681,10.823c-6.017,1.06-12.351-1.25-17.552-4.098
										c-13.995-7.664-24.78-21.749-29.309-36.959c-4.418-14.836,0.626-30.273,7.366-43.6c4.326-8.553,9.495-16.966,15.595-24.388
										C303.739,433.757,300.775,430.759,299.051,432.857z"/>
								</g>
							</g>
							<g>
								<g>
									<path style="fill:#040508;" d="M265.271,382.601c-8.407,8.588-4.81,24.271,3.951,31.471
										c4.42,3.633,10.071,7.385,16.042,7.1c6.096-0.291,9.793-5.367,12.812-10.06c3.739-5.81,7.27-12.591,9.207-19.263
										c1.273-4.383,0.554-8.84-4.092-10.594c-6.529-2.464-15.255-3.456-22.225-3.758
										C275.085,377.242,269.78,378.766,265.271,382.601c-2.068,1.759,0.924,4.727,2.979,2.979
										c7.516-6.393,18.26-3.503,26.985-1.747c2.627,0.529,7.857,0.69,8.51,4.265c0.303,1.657-1.137,4.337-1.715,5.803
										c-1.638,4.158-3.541,8.236-5.779,12.107c-2.273,3.933-5.222,9.679-9.946,10.8c-4.765,1.131-9.706-2.406-13.254-5.077
										c-7.301-5.495-11.917-18.884-4.802-26.152C270.148,383.641,267.172,380.659,265.271,382.601z"/>
								</g>
							</g>
							<g>
								<g>
									<path style="fill:#040508;" d="M318.297,385.479c-0.697-6.851-1.393-13.703-2.09-20.554
										c-0.238-2.341-0.269-1.577,0.277-4.309c0.803-4.017,1.607-8.034,2.41-12.052c2.677-13.386,7.314-28.319,5.352-41.976
										c-1.034-7.198-6.974-11.427-12.753-15.198c-6.354-4.146-14.068-7.734-21.583-5.187
										c-8.647,2.931-16.053,8.983-20.614,16.902c-3.721,6.461-3.491,11.712-3.77,18.942c-0.406,10.515-0.874,21.044-0.935,31.567
										c-0.025,4.234,0.358,8.37,1.077,12.548c0.873,5.067,1.754,11.825,5.339,15.823c0.602,0.672,1.796,0.805,2.553,0.329
										c3.264-2.052,7.593-0.609,11.103,0.054c4.078,0.77,8.174,1.448,12.267,2.128c6.228,1.034,12.462,2.037,18.699,3.013
										c2.652,0.415,3.795-3.644,1.12-4.063c-7.33-1.148-14.655-2.326-21.971-3.561c-6.698-1.131-17.112-5.127-23.345-1.209
										c0.851,0.11,1.702,0.22,2.553,0.329c-2.93-3.267-3.547-9.829-4.256-13.964c-0.634-3.697-0.945-7.344-0.929-11.085
										c0.035-8.123,0.364-16.25,0.656-24.367c0.211-5.864-0.51-12.801,0.727-18.567c1.881-8.769,10.897-16.68,18.84-20.001
										c1.684-0.704,3.931-1.741,5.805-1.777c4.905-0.094,10.561,3.188,14.538,5.782c3.032,1.978,6.617,4.432,8.903,7.341
										c1.973,2.511,2.074,5.937,2.105,9.024c0.125,12.384-3.32,24.94-5.738,37.03c-1.032,5.16-3.115,10.911-2.672,16.209
										c0.581,6.957,1.414,13.901,2.12,20.847C314.356,388.151,318.572,388.179,318.297,385.479z"/>
								</g>
							</g>
							<g>
								<g>
									<path style="fill:#040508;" d="M212.56,300.628c-9.115,9.574-8.551,25.105-5.724,36.979
										c2.532,10.635,6.328,21.609,11.488,31.296c5.248,9.851,10.706,19.596,16.057,29.391c1.34,2.452,3.721,6.547,4.569,8.31
										c0.815,1.694,2.577,5.71,4.079,8.013c7.009,10.747,21.999,18.459,33.641,9.145c1.134-0.907,0.58-2.627-0.426-3.309
										c-7.254-4.916-12.773-12.87-14.206-21.516c-0.58-3.499-0.809-7.56,1.035-10.745c1.862-3.217,6.552-4.762,9.721-6.452
										c1.083-0.578,1.202-1.875,0.756-2.882c-3.371-7.612-7.058-15.291-9.566-23.239c-3.075-9.743-4.395-20.514-5.497-30.629
										c-0.61-5.596-0.094-11.154-2.426-16.371c-2.492-5.576-6.401-10.898-11.795-13.952c-10.54-5.967-22.313-0.785-31.281,5.631
										c-2.186,1.564-0.085,5.22,2.126,3.638c7.986-5.714,18.711-11.073,28.006-5.033c4.426,2.876,7.963,7.873,9.714,12.843
										c1.994,5.66,1.305,12.683,2.112,18.634c1.199,8.84,2.319,18.175,5.09,26.693c2.655,8.161,6.406,16.07,9.878,23.911
										c0.252-0.961,0.504-1.922,0.756-2.882c-3.819,2.036-8.591,3.717-10.966,7.54c-2.547,4.1-2.562,9.183-1.842,13.802
										c1.557,9.987,7.929,19.002,16.257,24.646c-0.142-1.103-0.284-2.206-0.426-3.309c-5.223,4.179-13.951,3.293-19.23-0.135
										c-4.055-2.634-7.091-6.647-9.398-10.837c-2.397-4.351-4.453-8.902-6.844-13.278c-8.851-16.201-18.339-31.802-24.224-49.378
										c-4.344-12.975-9.269-32.191,1.543-43.547C217.408,301.644,214.434,298.66,212.56,300.628z"/>
								</g>
							</g>
							<g>
								<path style="fill:#040508;" d="M196.312,277.871c0.321,0.47-1.303,2.2-4.186,4.619c-0.689,0.554-1.579,1.418-3.079,1.892
									c-1.453,0.414-2.614,0.431-3.962,0.482c-2.587,0.041-5.254-0.18-7.844,0.021c-1.275,0.103-2.467,0.316-3.311,0.712
									c-0.847,0.397-1.268,0.865-1.653,1.655c-0.688,1.321-0.031,3.265,0.584,5.028c0.631,1.766,1.055,3.456,0.945,4.659
									c-0.086,1.207-0.528,1.78-0.769,1.735c-0.314-0.044-0.444-0.632-0.817-1.509c-0.354-0.891-1.037-2.055-2.004-3.671
									c-0.472-0.825-1.018-1.77-1.437-3.016c-0.42-1.214-0.63-2.922-0.054-4.553c0.465-1.528,1.815-3.193,3.428-3.948
									c1.585-0.802,3.2-1.058,4.761-1.196c3.12-0.231,5.895,0.14,8.254,0.29c1.119,0.069,2.339,0.115,3.032,0.004
									c0.658-0.069,1.428-0.516,2.286-0.989C193.789,278.282,195.992,277.401,196.312,277.871z"/>
							</g>
							<g>
								<path style="fill:#040508;" d="M349.641,424.818c-0.443-0.328,0.538-2.3,2.013-5.369c1.452-3.059,3.38-7.319,3.78-12.166
									c0.37-4.775-1.243-9.096-3.07-11.638c-1.814-2.609-3.717-3.673-3.479-4.218c0.11-0.431,2.669-0.251,5.522,2.436
									c2.814,2.6,5.314,7.788,4.849,13.722c-0.5,5.845-3.162,10.425-5.284,13.271
									C351.797,423.733,350.045,425.121,349.641,424.818z"/>
							</g>
							<g>
								<path style="fill:#040508;" d="M268.844,368.04c-0.253-0.033-0.435-0.403-1.014-1.001c-0.143-0.16-0.309-0.345-0.494-0.587
									c-0.217-0.304-0.448-0.735-0.574-1.207c-0.301-0.924,0.023-2.264,1.217-2.843c0.569-0.292,1.3-0.374,2.072-0.29
									c0.683,0.081,1.098,0.203,1.543,0.286c0.91,0.188,1.876,0.388,2.891,0.598c2.033,0.395,4.265,0.767,6.609,1.016
									c9.405,1.161,16.908-1.312,17.28-0.354c0.169,0.424-1.53,1.644-4.71,2.701c-3.16,1.046-7.864,1.74-12.938,1.167
									c-2.532-0.269-4.9-0.769-6.997-1.364c-1.046-0.306-2.033-0.615-2.94-0.947c-0.38-0.137-0.747-0.27-1.102-0.398
									c-0.093-0.051-0.215-0.1-0.351-0.105c-0.294-0.023-0.514,0.242-0.527,0.514c-0.014,0.144-0.017,0.27,0.02,0.449
									c0.078,0.26,0.151,0.503,0.219,0.728C269.362,367.389,269.089,368.091,268.844,368.04z"/>
							</g>
							<g>
								<path style="fill:#040508;" d="M268.675,312.372c-0.393-0.165-0.015-2.375,2.454-4.885c1.219-1.245,3.07-2.379,5.082-3.198
									c2.016-0.853,4.337-1.561,6.829-1.998c4.995-0.897,9.645-0.463,12.814,0.378c3.195,0.814,4.944,1.928,4.805,2.352
									c-0.283,0.975-7.884-0.993-17.015,0.699c-4.513,0.846-8.641,2.099-10.948,3.667
									C270.28,310.996,269.127,312.624,268.675,312.372z"/>
							</g>
							<g>
								<path style="fill:#040508;" d="M229.244,314.189c0.078,0.624-2.318,1.35-5.954,2.623c-1.803,0.654-3.939,1.446-6.02,2.618
									c-2.139,1.18-3.896,2.652-5.058,4.968c-2.414,4.657-1.715,9.938-0.95,13.634c0.794,3.748,1.426,6.201,0.842,6.448
									c-0.52,0.225-2.138-1.719-3.788-5.531c-0.797-1.91-1.569-4.34-1.795-7.22c-0.217-2.893,0.205-6.215,1.817-9.341
									c0.791-1.562,1.897-2.956,3.168-4.082c1.316-1.125,2.642-1.856,3.953-2.467c2.617-1.188,5.058-1.715,7.097-2.025
									C226.649,313.249,229.179,313.62,229.244,314.189z"/>
							</g>
							<g>
								<path style="fill:#040508;" d="M386.612,281.23c-0.467,1.315-11.127-1.411-24.368-3.586
									c-3.281-0.554-6.272-0.885-8.878-0.651c-2.586,0.213-4.822,0.993-6.407,2.008c-0.821,0.523-1.371,0.992-1.745,1.522
									c-0.385,0.523-0.629,1.192-0.862,1.775c-0.452,1.19-0.903,1.861-1.236,1.787c-0.332-0.074-0.532-0.765-0.66-2.058
									c-0.045-0.647-0.096-1.525,0.248-2.632c0.333-1.112,1.139-2.22,2.061-3.094c1.876-1.828,4.712-3.246,7.998-3.802
									c3.278-0.576,6.842-0.29,10.284,0.29C376.813,275.059,387.086,279.998,386.612,281.23z"/>
							</g>
							<g>
								<path style="fill:#040508;" d="M288.734,551.199c-0.353,0.594-3.843-1.062-9.715-2.668
									c-5.856-1.677-14.179-2.964-23.575-3.522c-4.679-0.294-9.403-0.508-13.682-1.64c-4.278-1.082-8.009-3.26-10.291-5.813
									c-2.316-2.525-3.423-5.086-3.871-6.875c-0.454-1.804-0.326-2.85-0.039-2.917c0.325-0.081,0.789,0.799,1.682,2.224
									c0.883,1.42,2.27,3.397,4.467,5.227c2.176,1.843,5.239,3.293,9.018,4.046c3.782,0.784,8.19,0.883,13.014,1.178
									c9.637,0.566,18.433,2.45,24.343,5.034C286.038,547.993,289.047,550.723,288.734,551.199z"/>
							</g>
							<g>
								<path style="fill:#040508;" d="M201.423,327.051c0.153,0.144,0.004,0.687-0.643,1.392c-0.635,0.712-1.812,1.499-3.338,2.095
									c-1.515,0.608-3.356,1.034-5.169,1.601c-1.792,0.548-3.542,1.431-5.126,2.78c-0.14,0.117-0.258,0.223-0.309,0.277
									c-0.023,0.023-0.014,0.011-0.014,0.011c-0.001,0.032-0.004-0.071-0.009,0.074c-0.003,0.124,0.022,0.376,0.05,0.642
									c0.055,0.516,0.109,1.024,0.162,1.523c0.134,0.994,0.263,1.951,0.386,2.865c0.272,1.822,0.577,3.452,0.829,4.828
									c0.513,2.749,0.822,4.49,0.395,4.66c-0.399,0.162-1.475-1.302-2.604-3.998c-0.558-1.347-1.128-3-1.599-4.89
									c-0.236-0.945-0.452-1.948-0.632-2.998c-0.079-0.527-0.16-1.064-0.242-1.61c-0.034-0.266-0.081-0.55-0.093-0.97
									c-0.02-0.397,0.057-1.055,0.285-1.524c0.154-0.343,0.398-0.68,0.646-0.938c0.22-0.229,0.399-0.381,0.562-0.519
									c1.979-1.705,4.37-2.76,6.502-3.212c2.11-0.464,3.884-0.623,5.312-0.891C199.628,327.812,201.044,326.723,201.423,327.051z"
									/>
							</g>
							<g>
								<path style="fill:#040508;" d="M247.599,359.14c0.328,0.382-1.224,2.165-4.423,3.691c-3.14,1.621-7.614,2.787-10.661,6.2
									c-1.554,1.672-2.623,3.592-3.115,5.44c-0.491,1.85-0.434,3.612-0.098,5.085c0.672,2.967,2.089,4.593,1.695,4.994
									c-0.246,0.366-2.564-0.629-4.191-4.144c-0.786-1.719-1.221-4.112-0.764-6.664c0.448-2.544,1.768-5.13,3.739-7.248
									c1.944-2.134,4.455-3.578,6.669-4.389c2.223-0.838,4.191-1.299,5.788-1.739C245.438,359.561,247.267,358.722,247.599,359.14
									z"/>
							</g>
							<g>
								<path style="fill:#040508;" d="M210.658,365.792c0.21,0.082,0.277,0.684-0.174,1.61c-0.436,0.924-1.462,2.07-2.979,2.975
									c-1.517,0.936-3.44,1.547-5.198,2.348c-1.721,0.775-3.291,1.982-4.627,3.708c-2.689,3.446-3.555,7.638-4.104,10.678
									c-0.525,3.071-0.845,5.08-1.352,5.083c-0.463,0.005-1.03-1.952-1.129-5.269c-0.033-1.656,0.081-3.669,0.609-5.882
									c0.528-2.212,1.526-4.62,3.201-6.773c1.638-2.16,3.957-3.786,6.178-4.547c2.173-0.76,3.977-1.07,5.328-1.58
									C209.193,367.211,210.195,365.623,210.658,365.792z"/>
							</g>
							<g>
								<path style="fill:#040508;" d="M392.095,230.099c0.138,0.519-2.319,1.474-6.142,0.819c-3.771-0.651-8.37-2.119-13.656-3.054
									c-5.221-0.979-10.023-1.228-12.968-0.177c-3.072,0.868-4.008,3.055-4.634,2.754c-0.252-0.102-0.229-0.703,0.121-1.813
									c0.215-0.523,0.629-1.101,1.122-1.781c0.599-0.535,1.283-1.27,2.209-1.712c3.677-2.15,9.305-2.216,14.864-1.183
									c5.606,0.992,10.429,3.008,13.634,4.241C389.866,229.437,391.994,229.537,392.095,230.099z"/>
							</g>
							<g>
								<path style="fill:#040508;" d="M380.907,483.617c-0.258,0.526-2.462,0.011-6.084-0.484c-1.813-0.275-4.002-0.553-6.49-1.064
									c-2.466-0.504-5.318-1.312-8.024-2.778c-5.459-2.879-9.075-7.363-10.825-10.861c-1.766-3.556-1.911-6.042-1.412-6.197
									c0.569-0.199,1.681,1.841,3.866,4.647c2.186,2.783,5.621,6.322,10.301,8.788c4.58,2.465,9.691,3.288,13.292,4.65
									C379.178,481.586,381.159,483.129,380.907,483.617z"/>
							</g>
							<g>
								<path style="fill:#040508;" d="M254.322,513.746c-0.453-0.041-0.687-3.249,0.277-8.322c0.458-2.538,1.324-5.492,2.508-8.69
									c1.24-3.174,2.851-6.567,4.836-9.951c4.01-6.755,8.64-12.152,12.248-15.737c3.622-3.587,6.195-5.432,6.538-5.089
									c0.378,0.375-1.53,2.863-4.581,6.812c-3.043,3.953-7.191,9.422-11.029,15.888c-1.901,3.241-3.521,6.424-4.873,9.378
									c-1.294,2.975-2.372,5.702-3.125,8.05C255.566,510.765,254.879,513.81,254.322,513.746z"/>
							</g>
							<g>
								<path style="fill:#040508;" d="M326.534,339.657c0.39,0.041,0.65,1.841,0.086,4.686c-0.536,2.818-2.083,6.692-4.904,10.118
									c-1.367,1.694-2.708,3.133-3.758,4.504c-1.062,1.354-1.82,2.655-2.321,3.819c-1.026,2.319-0.875,4.009-1.32,4.106
									c-0.349,0.148-1.385-1.691-0.737-4.738c0.306-1.483,1.018-3.178,2.086-4.801c1.048-1.632,2.393-3.199,3.676-4.793
									C324.539,346.334,325.653,339.519,326.534,339.657z"/>
							</g>
							<g>
								<path style="fill:#040508;" d="M257.201,421.763c-0.338,0.441-2.651-0.769-5.184-3.887c-1.248-1.556-2.566-3.55-3.686-5.978
									c-1.084-2.433-2.107-5.287-2.151-8.638c-0.044-1.664,0.27-3.377,0.9-4.956c0.39-0.764,0.771-1.518,1.297-2.187
									c0.528-0.655,1.091-1.17,1.618-1.615c2.076-1.657,3.776-2.914,5.463-4.068c0.855-0.565,1.758-1.032,2.628-1.281
									c0.922-0.264,1.571-0.234,2.017-0.285c0.869,0.005,1.208-0.404,1.467-0.299c0.122,0.062,0.233,0.286,0.146,0.651
									c-0.059,0.356-0.501,0.856-1.039,1.173c-0.545,0.343-1.199,0.579-1.67,0.911c-0.523,0.345-1.079,0.822-1.708,1.447
									c-1.243,1.276-2.984,2.972-4.714,4.608c-0.403,0.401-0.762,0.796-1.035,1.188c-0.259,0.387-0.451,0.87-0.678,1.317
									c-0.323,0.987-0.545,2.101-0.507,3.348c0.013,2.482,0.751,5.004,1.531,7.215c0.806,2.225,1.745,4.185,2.585,5.81
									C256.184,419.479,257.583,421.3,257.201,421.763z"/>
							</g>
						</g>
					</g>
				</g>
			</g>
			<g>
				<g>
					<rect x="65.501" y="61.447" style="fill:none;" width="469.697" height="118.844"/>
					
						<text transform="matrix(1 0 0 1 69.7691 175.0538)" style="fill:#040508; font-family:'Montserrat-Black'; font-size:153.1108px; letter-spacing:-4;">ROCK</text>
					<rect x="64.096" y="57.936" style="fill:none;" width="469.697" height="118.844"/>
					
						<text transform="matrix(1 0 0 1 68.3624 171.5431)" style="fill:#E13232; font-family:'Montserrat-Black'; font-size:153.1108px; letter-spacing:-4;">ROCK</text>
					<g>
						<rect x="179.393" y="105.318" style="fill:#040508;" width="232.822" height="27.355"/>
						<rect x="192.411" y="110.144" style="fill:none;" width="206.989" height="16.933"/>
						
							<text transform="matrix(1 0 0 1 196.0567 126.0768)" style="fill:#FFFFFF; font-family:'Montserrat-Black'; font-size:21.4709px;">MUSIC FESTIVAL</text>
					</g>
				</g>
				<g>
					<g>
						<g>
							<rect x="214.377" y="782.923" style="fill:none;" width="263.951" height="17.716"/>
							<text transform="matrix(1 0 0 1 214.378 797.2365)"><tspan x="0" y="0" style="fill:#E13232; font-family:'Montserrat-Bold'; font-size:19.2909px;">ROCKMUSICFESTIVAL.</tspan><tspan x="216.556" y="0" style="fill:#E13232; font-family:'Montserrat-Bold'; font-size:19.2909px;">-</tspan></text>
						</g>
						<g>
							<rect x="116.948" y="782.923" style="fill:none;" width="81.72" height="17.716"/>
							
								<text transform="matrix(1 0 0 1 116.9483 797.2365)" style="fill:#EEEDEE; font-family:'Montserrat-Bold'; font-size:19.2909px;">TICKETS</text>
						</g>
						
							<line style="fill:none;stroke:#FFFFFF;stroke-width:1.1416;stroke-linecap:round;stroke-linejoin:round;stroke-miterlimit:10;" x1="206.931" y1="781.026" x2="206.931" y2="799.862"/>
					</g>
					<g>
						<g>
							<rect x="434.224" y="681.175" style="fill:none;" width="95.514" height="67.354"/>
							<text transform="matrix(1 0 0 1 439.5484 698.1163)"><tspan x="0" y="0" style="fill:#EA5C24; font-family:'Montserrat-Black'; font-size:22.8319px;">LOREM</tspan><tspan x="3.984" y="23.674" style="fill:#EA5C24; font-family:'Montserrat-Black'; font-size:22.8319px;">IPSUM</tspan><tspan x="0" y="47.349" style="fill:#EA5C24; font-family:'Montserrat-Black'; font-size:22.8319px;">LOREM</tspan></text>
							<rect x="66.98" y="679.254" style="fill:none;" width="95.164" height="71.196"/>
							<text transform="matrix(1 0 0 1 72.1295 696.1964)"><tspan x="0" y="0" style="fill:#EA5C24; font-family:'Montserrat-Black'; font-size:22.8319px;">LOREM</tspan><tspan x="3.984" y="23.674" style="fill:#EA5C24; font-family:'Montserrat-Black'; font-size:22.8319px;">IPSUM</tspan><tspan x="0" y="47.349" style="fill:#EA5C24; font-family:'Montserrat-Black'; font-size:22.8319px;">LOREM</tspan></text>
						</g>
						<g>
							<g>
								
									<line style="fill:none;stroke:#FFFFFF;stroke-width:1.7124;stroke-linecap:round;stroke-linejoin:round;stroke-miterlimit:10;" x1="189.923" y1="745.684" x2="189.923" y2="684.019"/>
								
									<line style="fill:none;stroke:#FFFFFF;stroke-width:1.7124;stroke-linecap:round;stroke-linejoin:round;stroke-miterlimit:10;" x1="412.534" y1="745.684" x2="412.534" y2="684.019"/>
							</g>
							<g>
								<g>
									<rect x="227.134" y="684.713" style="fill:none;" width="146.02" height="60.278"/>
									
										<text transform="matrix(1 0 -2.000000e-05 1 227.1338 741.3009)" style="fill:#FFFFFF; font-family:'Norwester-Regular'; font-size:79.7036px;">202</text>
									<g>
										<rect x="251.891" y="580.396" style="fill:none;" width="92.097" height="35.238"/>
										
											<text transform="matrix(1 0 0 1 251.8917 613.4796)" style="fill:#FFFFFF; font-family:'Norwester-Regular'; font-size:46.5947px;">02T</text>
										<rect x="250.417" y="624.084" style="fill:none;" width="95.045" height="35.073"/>
										
											<text transform="matrix(1 0 0 1 250.4171 657.1652)" style="fill:#FFFFFF; font-family:'Norwester-Regular'; font-size:46.5947px;">JULY</text>
									</g>
								</g>
							</g>
						</g>
					</g>
				</g>
			</g>
		</g>
	</g>
</g>
</svg>
